<svg xmlns="http://www.w3.org/2000/svg" viewBox="0 0 1200 250.65"><style>.st0{fill:#ff8308}.st1{fill:#d46627}</style><path d="M153.31 126.72l-.42-103.09 98.39 70.88-97.97 32.21zm-11.71-.35L43.45 94.93l97.92-70.94.23 102.38zm-4.16 9.62l-59 83.3L40 104.62l97.44 31.37zm9.33 4.1l60.96 83.18-120.91-.17 59.95-83.01zm10.82-3.33l97.92-32.32-37.55 114.97-60.37-82.65z" class="st0"/><path d="M206.66 223.16c-16.93-25.67-35.83-33.81-48.72-36.13-13.96-2.5-24.06 1.07-24.18 1.13l-.06-.24c.12-.06 10.28-3.68 24.3-1.13 8.26 1.49 16.16 4.75 23.59 9.74 9.27 6.24 17.77 15.15 25.25 26.5l-.18.13z" class="st1"/><path d="M206.66 223.16c-17.29-25.55-36.84-35.47-50.15-39.33-14.44-4.16-24.9-2.26-25.01-2.26l-.06-.24c.12 0 10.64-1.9 25.13 2.26 8.5 2.44 16.7 6.48 24.36 12 9.57 6.89 18.3 16.1 25.97 27.39l-.24.18z" class="st1"/><path d="M206.66 223.16c-17.29-25.55-36.6-38.56-49.73-44.98-14.26-6.95-24.48-7.84-24.6-7.9v-.24c.12 0 10.4.95 24.66 7.9 8.38 4.1 16.46 9.45 24.06 15.86 9.45 8.08 18.12 17.88 25.79 29.17l-.18.19z" class="st1"/><path d="M206.66 223.16c-17.29-25.55-36.01-40.23-48.6-48.01-13.67-8.44-23.41-10.93-23.47-10.93l.06-.24c.12 0 9.8 2.5 23.53 10.93 12.66 7.84 31.37 22.52 48.66 48.07l-.18.18z" class="st1"/><path d="M206.66 223.16c-17.29-25.55-35.53-41.47-47.77-50.39-13.25-9.63-22.52-13.25-22.64-13.31l.06-.24c.12.06 9.39 3.68 22.7 13.31 12.24 8.91 30.48 24.9 47.83 50.44l-.18.19z" class="st1"/><path d="M206.66 223.16c-17.29-25.55-34.94-42.9-46.64-52.94-12.72-10.87-21.39-15.8-21.51-15.8l.12-.18c.06.06 8.79 4.93 21.51 15.86 11.71 10.04 29.35 27.39 46.7 52.94l-.18.12z" class="st1"/><path d="M206.66 223.16c-32.98-48.9-62.92-77.24-63.22-77.54l.18-.18c.3.3 30.24 28.64 63.28 77.54l-.24.18z" class="st1"/><path d="M207.14 223.16c-17.29-25.55-34.34-44.03-45.57-55.02-12.18-11.88-20.32-17.83-20.38-17.88l.12-.18c.06.06 8.26 6 20.44 17.94 11.23 10.99 28.22 29.47 45.57 55.02l-.18.12z" class="st1"/><path d="M207.14 223.16c-17.29-25.55-36.96-37.25-50.39-42.54-14.56-5.76-25.19-5.47-25.25-5.47v-.24c.12 0 10.75-.3 25.37 5.53 8.56 3.39 16.82 8.2 24.48 14.26 9.63 7.55 18.36 17.11 26.02 28.4l-.23.06z" class="st1"/><path d="M148.79 203.55c-.12-.06-12.72-5.05-16.4-18.18-3.39-12 1.6-26.8 14.79-43.91l.18.12c-13.13 17.05-18.06 31.73-14.74 43.67 3.62 13.01 16.16 18 16.28 18.06l-.11.24z" class="st1"/><path d="M143.74 207.89c-.12-.06-10.04-5.82-12.77-18.95-2.79-13.43 2.67-29.35 16.22-47.47l.18.12c-13.49 18-18.95 33.93-16.16 47.3 2.73 13.01 12.54 18.72 12.66 18.78l-.13.22z" class="st1"/><path d="M131.38 215.37c-.06-.06-5.05-6.65-5.59-19.01-.3-7.25.95-15.03 3.74-23.17 3.51-10.16 9.45-20.8 17.59-31.73l.18.12c-18.48 24.66-21.81 43.37-21.33 54.78.53 12.3 5.47 18.84 5.53 18.89l-.12.12z" class="st1"/><path d="M124.97 218.28c-.06-.06-3.39-7.37-2.38-20.44.59-7.66 2.61-15.8 5.94-24.18 4.16-10.46 10.4-21.27 18.6-32.2l.18.12c-18.48 24.72-23.53 44.21-24.54 56.21-1.07 13.01 2.32 20.26 2.32 20.38l-.12.11z" class="st1"/><path d="M117.78 219.65c0-.06-1.6-7.72 1.25-21.15 2.61-12.36 9.63-32.32 28.16-57.04l.18.12c-18.48 24.66-25.49 44.56-28.1 56.92-2.85 13.37-1.25 21.03-1.25 21.09l-.24.06z" class="st1"/><path d="M109.7 221.37h-.24c0-.06.53-8.2 5.41-22.04 4.52-12.77 13.78-33.15 32.26-57.87l.18.12c-18.48 24.72-27.75 45.1-32.26 57.81-4.82 13.84-5.35 21.92-5.35 21.98z" class="st1"/><path d="M95.85 222.38l-.18-.12c.18-.36 16.1-33.51 51.51-80.81l.18.12c-35.47 47.3-51.33 80.46-51.51 80.81z" class="st1"/><path d="M103.1 222.09l-.24-.06c0-.06 2.14-8.44 8.62-22.58 6-13.01 16.99-33.69 35.47-58.41l.18.12c-18.48 24.72-29.53 45.39-35.47 58.41-6.42 14.08-8.5 22.4-8.56 22.52z" class="st1"/><path d="M138.28 211.93c-.06-.06-6.83-5.88-9.09-17.47-1.31-6.83-.89-14.26 1.37-22.1 2.79-9.8 8.32-20.32 16.52-31.25l.18.12c-18.48 24.66-19.9 42.54-17.83 53.24 2.26 11.53 8.97 17.29 9.03 17.35l-.18.11z" class="st1"/><path d="M95.67 222.5c-2.61 0-5.29-.06-8.02-.24v-.24c30.66 1.96 48.66-7.61 58.41-15.98 10.52-9.09 13.78-18.72 13.84-18.84l.24.06c-.06.12-3.33 9.8-13.9 18.89-6.18 5.35-13.67 9.45-22.1 12.18-8.56 2.81-18.07 4.17-28.47 4.17z" class="st1"/><path d="M94.54 222.44c-2.26 0-4.58-.06-6.89-.18v-.24c30.78 1.54 50.5-7.61 61.62-15.57 12.06-8.62 16.87-17.71 16.93-17.83l.18.12c-.06.12-4.87 9.27-16.99 17.88-7.07 5.11-15.27 9.03-24.3 11.65-9.27 2.81-19.55 4.17-30.55 4.17z" class="st1"/><path d="M95.5 222.44c-2.61 0-5.23-.06-7.84-.18v-.24c30.84 1.54 53.48-6.42 67.08-13.31 14.74-7.55 22.28-15.51 22.34-15.57l.18.18c-.06.06-7.66 8.08-22.4 15.63-8.67 4.46-18.06 7.84-27.99 10.1-10.04 2.26-20.56 3.39-31.37 3.39z" class="st1"/><path d="M96.45 222.5c-2.85 0-5.82-.06-8.79-.24v-.24c30.84 1.54 55.08-5.35 69.99-11.41 16.16-6.6 25.19-13.61 25.25-13.67l.12.18c-.06.06-9.09 7.13-25.31 13.67-13.49 5.53-34.59 11.71-61.26 11.71z" class="st1"/><path d="M97.75 222.5c-3.33 0-6.65-.06-10.1-.24v-.24c30.84 1.54 56.33-4.34 72.37-9.51 17.35-5.64 27.51-11.71 27.63-11.76l.12.18c-.12.06-10.28 6.18-27.63 11.82-14.32 4.58-36.07 9.75-62.39 9.75z" class="st1"/><path d="M100.31 222.56c-4.16 0-8.38-.12-12.66-.3v-.24c30.84 1.54 57.87-2.91 75.1-6.95 18.66-4.4 30.24-9.15 30.36-9.21l.06.18c-.12.06-11.65 4.87-30.36 9.21-14.85 3.51-36.95 7.31-62.5 7.31z" class="st1"/><path d="M113.44 222.92c-8.38 0-17.05-.18-25.79-.65v-.24c59 2.97 113.9-5.59 114.44-5.64l.06.24c-.48.05-40.4 6.29-88.71 6.29z" class="st1"/><path d="M103.81 223.04c-5.35 0-10.87-.12-16.46-.42v-.24c30.84 1.54 59-1.66 77.18-4.58 19.73-3.21 32.32-6.83 32.44-6.83l.06.24c-.12.06-12.72 3.68-32.44 6.83-14.91 2.44-36.53 5-60.78 5z" class="st1"/><path d="M94.66 222.8c-2.44 0-4.81-.06-7.31-.18v-.24c30.78 1.54 52.05-7.07 64.41-14.56 13.43-8.14 19.61-16.76 19.67-16.81l.18.12c-.06.06-6.3 8.73-19.73 16.87-7.9 4.81-16.7 8.5-26.14 10.93-9.75 2.62-20.14 3.87-31.08 3.87z" class="st1"/><path d="M151.64 200.7l-13.55-4.99 11.11-9.27 2.44 14.26zm-13.13-5.05l12.83 4.75-2.32-13.49-10.51 8.74z" class="st1"/><path d="M145.05 197.55l-.83-6.3 5.88 2.44-5.05 3.86zm-.6-5.95l.71 5.53 4.46-3.45-5.17-2.08zM199 163.98c0-.12-.3-10.87 6.42-23.47 3.98-7.37 9.51-13.9 16.58-19.43 8.79-6.89 19.9-12.24 33.04-15.86l.06.24c-29.65 8.14-43.26 23.65-49.43 35.17-6.71 12.54-6.42 23.23-6.42 23.35H199z" class="st1"/><path d="M192.29 164.09h-.24c0-.12 1.49-10.7 9.92-23.17 4.99-7.31 11.35-13.9 18.95-19.43 9.51-6.95 20.97-12.42 34.11-16.22l.06.24c-29.65 8.56-45.1 24.06-52.88 35.53-8.44 12.42-9.92 22.94-9.92 23.05z" class="st1"/><path d="M181.83 159.82l-.18-.06c.06-.12 4.1-9.63 15.15-21.03 6.48-6.71 14.08-12.77 22.52-17.94 10.58-6.54 22.58-11.76 35.71-15.51l.06.24c-29.65 8.56-47.95 22.93-58.11 33.45-11.05 11.28-15.09 20.79-15.15 20.85z" class="st1"/><path d="M176.78 155.78l-.18-.12c.06-.06 5.41-8.56 17.71-19.01 11.35-9.63 31.08-22.88 60.78-31.43l.06.24c-29.65 8.56-49.38 21.81-60.66 31.37-12.36 10.39-17.65 18.89-17.71 18.95z" class="st1"/><path d="M172.74 152.75l-.18-.12c.06-.06 6.42-7.78 19.67-17.47 12.24-8.91 33.1-21.33 62.74-29.89l.06.24c-29.65 8.56-50.44 20.97-62.68 29.89-13.2 9.56-19.55 17.29-19.61 17.35z" class="st1"/><path d="M168.64 149l-.18-.18c.06-.06 7.43-6.83 21.75-15.57 13.19-8.02 35.12-19.43 64.82-28.04l.06.24c-29.65 8.56-51.57 19.96-64.76 27.99-14.27 8.73-21.63 15.5-21.69 15.56z" class="st1"/><path d="M161.8 141.64l-.12-.18c.36-.18 36.6-19.9 93.34-36.18l.06.24c-56.67 16.21-92.92 35.88-93.28 36.12z" class="st1"/><path d="M165.55 145.2l-.12-.18c.06-.06 8.26-6 23.35-13.9 13.9-7.31 36.78-17.77 66.43-26.32l.06.24c-29.65 8.56-52.47 19.07-66.37 26.32-15.15 7.84-23.29 13.78-23.35 13.84z" class="st1"/><path d="M186.17 162.13l-.24-.06c0-.12 3.03-10.34 13.07-22.4 5.88-7.13 12.95-13.49 21.09-18.89 10.16-6.77 21.92-12.18 35.06-15.98l.06.24c-29.65 8.56-46.82 23.65-56.03 34.76-9.98 12.06-13.01 22.22-13.01 22.33z" class="st1"/><path d="M197.22 164.45h-1.07c-12.48-.53-25.01-9.8-37.2-27.63l.18-.12c12.12 17.77 24.6 27.03 37.02 27.51 13.49.59 22.1-9.8 22.16-9.86l.18.12c-.06.12-8.26 9.98-21.27 9.98z" class="st1"/><path d="M202.45 167.07c-1.07 0-2.2-.06-3.33-.18-13.61-1.49-27.09-11.59-40.11-30.06l.18-.12c12.95 18.42 26.44 28.52 39.99 30.01 13.19 1.43 21.69-6.12 21.81-6.24l.18.18c-.19.05-7.32 6.41-18.72 6.41z" class="st1"/><path d="M216.17 175.74c-3.15 0-7.07-.42-11.59-1.66-7.01-1.96-14.02-5.53-20.86-10.7-8.56-6.48-16.87-15.39-24.72-26.56l.18-.12c17.77 25.19 34.52 34.11 45.45 37.2 11.82 3.33 19.61.59 19.67.59l.06.24c.01-.06-3.02 1.01-8.19 1.01z" class="st1"/><path d="M223.36 181.74c-3.03 0-9.63-.53-18.42-4.16-7.13-2.97-14.2-7.37-21.15-13.13-8.62-7.19-16.99-16.46-24.84-27.63l.18-.12c17.77 25.19 34.76 36.07 45.87 40.7 12.06 5.05 20.02 4.1 20.08 4.1v.24c.06-.06-.53 0-1.72 0z" class="st1"/><path d="M224.25 188.93c-.06 0-7.84-.89-19.73-7.72-10.93-6.3-27.75-19.13-45.57-44.38l.18-.12c17.77 25.25 34.52 38.03 45.45 44.33 11.82 6.83 19.61 7.66 19.67 7.72v.17z" class="st1"/><path d="M223.36 197.37c-.06 0-7.61-3.03-19.25-11.94-10.75-8.26-27.27-23.35-45.1-48.6l.18-.12c17.77 25.25 34.28 40.34 45.04 48.54 11.65 8.91 19.13 11.88 19.25 11.94l-.12.18z" class="st1"/><path d="M219.91 210.8c-.24-.24-26.92-25.67-60.96-73.97l.18-.12c34.05 48.31 60.66 73.68 60.9 73.91l-.12.18z" class="st1"/><path d="M221.93 203.79c-.06-.06-7.37-4.63-18.78-15.15-10.52-9.68-26.8-26.56-44.62-51.81l.18-.12c17.77 25.25 34.05 42.07 44.56 51.81 11.41 10.52 18.66 15.09 18.78 15.15l-.12.12z" class="st1"/><path d="M208.27 170.57c-1.43 0-2.91-.06-4.52-.3-6.89-.83-13.84-3.57-20.62-8.14-8.5-5.64-16.76-14.2-24.66-25.37l.18-.12c17.77 25.19 34.34 32.09 45.1 33.39 11.65 1.43 19.25-3.15 19.31-3.21l.12.18c0 .13-5.76 3.57-14.91 3.57z" class="st1"/><path d="M217.42 218.4l-.24-.06c11.35-28.58 7.84-48.66 2.85-60.49-5.35-12.77-13.55-18.89-13.61-18.95l.12-.18c.06.06 8.32 6.24 13.67 19.07 3.15 7.55 4.75 15.86 4.75 24.78.06 11.11-2.49 23.18-7.54 35.83z" class="st1"/><path d="M217.42 218.4l-.24-.06c10.99-28.82 8.38-50.39 4.22-63.46-4.46-14.14-11.65-21.51-11.71-21.57l.18-.18c.06.06 7.25 7.49 11.76 21.69 2.61 8.32 3.86 17.29 3.57 26.68-.24 11.71-2.91 24.13-7.78 36.9z" class="st1"/><path d="M217.42 218.4l-.24-.06c10.99-28.82 10.46-52.82 8.02-67.91-2.61-16.34-7.9-25.97-7.9-26.08l.18-.12c.06.12 5.35 9.74 7.96 26.14 1.54 9.63 1.84 19.61.95 29.77-1.07 12.65-4.1 25.49-8.97 38.26z" class="st1"/><path d="M217.42 218.4l-.24-.06c10.99-28.82 11.94-54.01 10.81-70.11-1.25-17.41-5.17-28.1-5.17-28.22l.24-.06c.06.12 3.92 10.87 5.17 28.28 1.19 16.04.24 41.3-10.81 70.17z" class="st1"/><path d="M217.42 218.4l-.24-.06c10.99-28.82 13.31-54.96 13.31-71.78 0-18.24-2.67-29.77-2.67-29.89l.24-.06c0 .12 2.67 11.71 2.67 29.95.06 16.82-2.26 42.97-13.31 71.84z" class="st1"/><path d="M217.42 218.4l-.24-.06c10.99-28.82 15.09-55.91 16.58-73.56 1.6-19.13.59-31.61.59-31.73h.24c0 .12 1.01 12.6-.59 31.73-1.43 17.65-5.53 44.75-16.58 73.62z" class="st1"/><path d="M217.42 218.4l-.24-.06c21.09-55.2 29.89-110.04 30.01-110.63l.24.06c-.06.53-8.92 55.43-30.01 110.63z" class="st1"/><path d="M217.72 218.76l-.24-.06c10.99-28.82 16.7-56.62 19.49-74.81 3.03-19.73 3.51-32.86 3.51-32.98h.24c0 .12-.48 13.25-3.51 32.98-2.8 18.24-8.5 46.05-19.49 74.87z" class="st1"/><path d="M217.72 218.76l-.24-.06c10.99-28.82 9.39-51.63 6.06-65.77-3.57-15.27-9.86-23.83-9.92-23.95l.18-.12c.06.06 6.36 8.67 9.98 24 2.14 8.97 2.91 18.48 2.32 28.28-.72 12.25-3.51 24.9-8.38 37.62z" class="st1"/><path d="M207.79 162.19l-5.35-13.43 14.32 2.08-8.97 11.35zm-4.99-13.13l5.05 12.72 8.5-10.75-13.55-1.97z" class="st1"/><path d="M211.66 156.19l-6.3-1.13 4.16-4.87 2.14 6zm-5.83-1.3l5.53 1.01-1.9-5.29-3.63 4.28zm-13.84-59.18c-.12 0-10.46-3.09-20.32-13.37-5.82-6.06-10.28-13.37-13.37-21.75-3.86-10.52-5.47-22.7-4.87-36.3h.24c-1.43 30.72 9.09 48.42 18.18 57.87 9.8 10.22 20.08 13.25 20.2 13.31l-.06.24z" class="st1"/><path d="M189.97 102.36c-.12-.06-9.74-4.69-19.01-16.64-5.47-7.01-9.68-15.09-12.66-24-3.68-11.17-5.35-23.77-4.87-37.43h.24c-1.01 30.84 8.91 50.33 17.47 61.32 9.21 11.88 18.84 16.52 18.89 16.58l-.06.17z" class="st1"/><path d="M182.66 110.98c-.06-.06-7.9-6.89-15.33-20.91-4.4-8.26-7.78-17.29-10.1-26.98-2.91-12.06-4.16-25.13-3.74-38.74h.24c-1.01 30.84 6.95 52.7 13.84 65.6 7.43 13.96 15.21 20.8 15.27 20.86l-.18.17z" class="st1"/><path d="M177.19 114.54c-.06-.06-6.48-7.78-12.6-22.7-5.64-13.73-12.12-36.66-11.11-67.5h.24c-1.01 30.84 5.47 53.65 11.11 67.38 6.12 14.85 12.54 22.58 12.6 22.64l-.24.18z" class="st1"/><path d="M173.03 117.39c-.06-.06-5.47-8.5-10.52-24.12-4.69-14.38-10.04-38.03-9.03-68.92h.24c-1.01 30.84 4.34 54.49 9.03 68.86 5.05 15.57 10.46 24 10.52 24.06l-.24.12z" class="st1"/><path d="M168.22 120.07c-.06-.12-4.22-9.21-8.08-25.49-3.57-15.03-7.66-39.39-6.65-70.29h.24c-1.01 30.84 3.03 55.2 6.65 70.23 3.86 16.28 8.02 25.37 8.08 25.43l-.24.12z" class="st1"/><path d="M159.07 124.23c-.06-.42-7.61-40.94-5.59-99.94h.24c-2.02 58.94 5.53 99.46 5.59 99.88l-.24.06z" class="st1"/><path d="M163.59 121.85c-.06-.12-3.15-9.68-6-26.5-2.61-15.51-5.53-40.46-4.52-71.3h.24c-1.9 59.06 10.4 97.32 10.52 97.74l-.24.06z" class="st1"/><path d="M186.17 107.59c-.06-.06-8.85-6.12-17.29-19.37-4.93-7.78-8.79-16.52-11.47-25.91-3.33-11.76-4.81-24.66-4.34-38.26h.24c-1.01 30.84 8.02 51.87 15.75 64.05 8.38 13.25 17.11 19.25 17.23 19.31l-.12.18z" class="st1"/><path d="M153.84 125.41l-.06-.24c20.62-6.06 33.27-15.03 37.61-26.68 4.69-12.66-2.5-24.06-2.55-24.12l.18-.12c.06.12 7.31 11.59 2.55 24.36-4.33 11.71-17.05 20.74-37.73 26.8z" class="st1"/><path d="M153.84 125.41l-.06-.24c21.51-6.65 35.29-16.34 40.88-28.76 5.47-12.12.89-22.52.83-22.64l.18-.12c.06.12 4.69 10.64-.83 22.82-5.64 12.55-19.43 22.29-41 28.94z" class="st1"/><path d="M153.84 125.41l-.06-.24c29.47-9.09 43.14-22.28 49.43-31.79 6.77-10.28 6.65-18.48 6.65-18.54h.24c0 .06.18 8.38-6.65 18.66-3.98 6.06-9.63 11.59-16.64 16.52-8.9 6.18-19.95 11.35-32.97 15.39z" class="st1"/><path d="M153.84 125.41l-.06-.24c29.47-9.09 45.04-21.92 52.88-31.08 8.5-9.92 10.1-17.77 10.1-17.83l.24.06c0 .06-1.6 7.96-10.1 17.94-4.99 5.82-11.41 11.23-19.01 16.04-9.63 6.02-21.03 11.07-34.05 15.11z" class="st1"/><path d="M153.84 125.41l-.06-.24c29.47-9.09 46.82-21.09 56.21-29.53 10.16-9.15 13.37-16.28 13.43-16.34l.18.12c-.06.06-3.27 7.19-13.43 16.4-9.45 8.44-26.8 20.5-56.33 29.59z" class="st1"/><path d="M153.84 125.41l-.06-.24c29.47-9.09 48.96-20.14 60.07-27.81 12.06-8.32 17.23-14.56 17.29-14.62l.18.12c-.06.06-5.23 6.3-17.29 14.62-11.23 7.73-30.72 18.84-60.19 27.93z" class="st1"/><path d="M153.84 125.41l-.06-.24c56.45-17.41 88.83-34.88 89.13-35.06l.12.18c-.36.19-32.74 17.72-89.19 35.12z" class="st1"/><path d="M153.66 125.83l-.06-.24c29.47-9.09 50.56-19.37 63.04-26.38 13.49-7.61 20.14-13.13 20.2-13.19l.12.18c-.06.06-6.71 5.59-20.2 13.19-12.47 7.07-33.57 17.35-63.1 26.44z" class="st1"/><path d="M153.66 125.83l-.06-.24c29.47-9.09 41.12-22.76 45.69-32.56 4.93-10.64 2.91-19.25 2.91-19.37l.24-.06c0 .06 2.08 8.79-2.91 19.49-2.91 6.3-7.66 12.06-14.08 17.11-8.02 6.36-18.71 11.65-31.79 15.63z" class="st1"/><path d="M249.33 95.23c-23.65-19.61-43.85-22.46-56.62-21.39-13.84 1.13-22.16 7.01-22.28 7.07l-.12-.18c.06-.06 8.5-5.94 22.34-7.13 8.14-.71 16.58.36 25.07 3.15 10.58 3.45 21.27 9.63 31.73 18.3l-.12.18z" class="st1"/><path d="M249.33 95.23c-24-19.37-45.34-23.53-59-23.65h-.53c-14.5 0-23.59 4.46-23.65 4.46l-.12-.18c.12-.06 9.21-4.52 23.77-4.52h.48c8.73.06 17.65 1.66 26.5 4.81 11.05 3.92 22.04 10.28 32.68 18.84-.02 0-.13.24-.13.24z" class="st1"/><path d="M249.33 95.23c-24-19.37-47-26.26-62.09-28.64-16.34-2.55-27.15-.53-27.21-.53l-.06-.24c.12 0 10.93-2.08 27.33.53 9.63 1.49 19.25 4.28 28.58 8.26 11.71 4.99 22.99 11.82 33.63 20.38l-.18.24z" class="st1"/><path d="M249.33 95.23c-24-19.37-47.71-28.04-63.34-31.91-16.93-4.22-28.34-3.8-28.46-3.8v-.24c.12 0 11.53-.42 28.52 3.8 15.69 3.86 39.39 12.6 63.4 31.97l-.12.18z" class="st1"/><path d="M249.33 95.23c-24-19.37-48.13-29.65-64.11-34.82-17.35-5.64-29.17-6.65-29.29-6.71v-.24c.12 0 11.94 1.07 29.29 6.71 16.04 5.17 40.17 15.45 64.23 34.88l-.12.18z" class="st1"/><path d="M249.33 95.23c-24-19.37-48.54-31.61-64.82-38.5-17.71-7.43-29.83-10.34-29.95-10.4l.06-.24c.12 0 12.3 2.91 30.01 10.4 16.34 6.89 40.88 19.13 64.88 38.56-.01 0-.18.18-.18.18z" class="st1"/><path d="M249.33 95.23c-45.99-37.14-95.42-62.45-95.9-62.68l.12-.18c.48.24 49.97 25.61 95.96 62.74l-.18.12z" class="st1"/><path d="M249.8 95.05c-24-19.37-48.66-33.33-65.12-41.65-17.83-8.97-30.12-13.49-30.24-13.49l.06-.24c.12.06 12.42 4.52 30.3 13.55 16.46 8.32 41.12 22.28 65.18 41.65l-.18.18z" class="st1"/><path d="M249.8 95.05c-24-19.37-46.23-24.84-60.66-26.08-15.63-1.31-25.73 2.02-25.85 2.02l-.06-.24c.12-.06 10.22-3.39 25.91-2.08 9.21.77 18.48 2.97 27.63 6.54 11.41 4.46 22.58 11.05 33.21 19.61l-.18.23z" class="st1"/><path d="M178.62 87.8l6.42-12.95 8.02 12-14.44.95zm6.42-12.53l-6.06 12.24 13.67-.89-7.61-11.35z" class="st1"/><path d="M185.45 86.91l-3.33-5.47 6.36-.18-3.03 5.65zm-2.91-5.23l2.91 4.75 2.67-4.93-5.58.18zM77.61 101.23c-10.4 0-21.63-2.26-33.33-6.65l.06-.24c28.76 10.81 48.84 6.3 60.66.59 12.77-6.18 18.84-15.03 18.89-15.15l.18.12c-.06.06-6.12 8.97-18.95 15.21-7.55 3.62-15.86 5.64-24.84 6-.89.12-1.78.12-2.67.12z" class="st1"/><path d="M81.06 101.53c-11.71 0-24.06-2.32-36.78-6.95l.06-.24c29 10.46 50.68 7.07 63.69 2.32 14.14-5.11 21.51-12.77 21.57-12.89l.18.18c-.06.06-7.49 7.78-21.69 12.95-8.32 3.03-17.35 4.58-26.74 4.58-.11.05-.17.05-.29.05z" class="st1"/><path d="M91.69 103.37c-3.09 0-6.24-.12-9.45-.36-12.42-.95-25.19-3.8-38.03-8.44l.06-.24c29 10.46 52.29 9.68 66.67 7.13 15.63-2.73 24.48-8.02 24.54-8.08l.12.18c-.06.06-8.97 5.35-24.6 8.14-6.18 1.14-12.65 1.67-19.31 1.67z" class="st1"/><path d="M101.91 105.21c-14.62 0-34.46-2.26-57.63-10.64l.06-.24c29 10.46 52.76 11.35 67.56 10.28 16.04-1.19 25.31-4.93 25.43-4.93l.06.24c-.12.06-9.39 3.8-25.49 4.99-2.98.18-6.3.3-9.99.3z" class="st1"/><path d="M112.55 107.29c-15.15 0-39.27-2.2-68.33-12.72l.06-.24C73.27 104.8 97.4 107 112.49 107h.06c16.4 0 26.02-2.5 26.14-2.55l.06.24c-.06.05-9.68 2.6-26.2 2.6.06 0 .06 0 0 0z" class="st1"/><path d="M128.65 110.68c-4.16 0-9.33-.18-15.45-.65-15.39-1.25-39.87-4.93-68.92-15.39l.06-.24c29 10.52 53.48 14.14 68.86 15.39 16.7 1.37 26.62.18 26.68.18v.24c-.06-.01-4.04.47-11.23.47z" class="st1"/><path d="M141.07 120.19c-.42-.06-41.29-5.41-96.79-25.55l.06-.24c55.44 20.14 96.31 25.49 96.73 25.55v.24z" class="st1"/><path d="M140.18 115.08c-.24 0-10.34 0-27.03-2.5-15.57-2.32-40.17-7.25-69.22-17.71l.06-.24c29 10.52 53.65 15.45 69.16 17.71 16.81 2.5 26.92 2.5 27.03 2.5v.24z" class="st1"/><path d="M85.75 102.66c-1.37 0-2.73 0-4.1-.06-12.24-.48-24.9-3.09-37.73-7.72l.06-.24c29 10.46 51.81 8.38 65.77 4.81 15.15-3.92 23.59-10.34 23.65-10.4l.12.18c-.06.06-8.56 6.54-23.77 10.46-7.6 1.96-15.68 2.97-24 2.97z" class="st1"/><path d="M140.53 125.47h-.24c.59-21.51-4.04-36.3-13.73-44.03-10.58-8.38-23.65-5.05-23.77-5.05l-.06-.24c.12-.06 13.25-3.39 23.95 5.05 9.81 7.85 14.45 22.71 13.85 44.27z" class="st1"/><path d="M140.53 125.47h-.24c.36-22.52-4.63-38.56-14.74-47.77-9.86-8.91-21.15-7.78-21.27-7.78v-.24c.12 0 11.53-1.19 21.45 7.84 10.17 9.27 15.16 25.38 14.8 47.95z" class="st1"/><path d="M140.53 125.47h-.24c.48-30.84-7.9-47.89-14.91-56.8-7.66-9.63-15.51-12-15.57-12.06l.06-.24c.06 0 8.02 2.44 15.69 12.12 4.52 5.7 8.08 12.72 10.58 20.91 3.09 10.35 4.57 22.47 4.39 36.07z" class="st1"/><path d="M140.53 125.47h-.24c.48-30.84-6.95-49.55-13.19-59.89-6.77-11.17-13.78-15.09-13.84-15.09l.12-.18c.06.06 7.13 3.98 13.9 15.15 3.98 6.6 7.19 14.32 9.39 23.05 2.73 10.88 4.04 23.36 3.86 36.96z" class="st1"/><path d="M140.53 125.47h-.24c.48-30.84-5.59-51.04-10.75-62.57-5.59-12.48-11.29-17.71-11.35-17.77l.18-.18c.06.06 5.82 5.35 11.41 17.88 5.17 11.49 11.23 31.75 10.75 62.64z" class="st1"/><path d="M140.53 125.47h-.24c.48-30.84-4.04-52.76-7.9-65.72-4.16-14.02-8.5-20.86-8.56-20.91l.24-.18c.06.06 4.4 6.89 8.56 20.97 3.86 13.02 8.38 34.95 7.9 65.84z" class="st1"/><path d="M140.53 125.47h-.24c.89-59.06-5.76-95.25-5.82-95.6l.24-.06c.06.36 6.71 36.6 5.82 95.66z" class="st1"/><path d="M140.89 125.77h-.24c.48-30.84-2.79-54.07-5.64-68.09-3.03-15.21-6.24-23.23-6.3-23.29l.24-.06c.06.06 3.21 8.08 6.3 23.29 2.85 14.02 6.12 37.25 5.64 68.15z" class="st1"/><path d="M140.89 125.77h-.24c.48-30.84-8.91-46.11-16.87-53.53-8.62-8.02-17.41-8.73-17.47-8.73v-.24c.06 0 8.97.77 17.65 8.79 5.05 4.75 9.09 10.99 11.94 18.66 3.5 9.62 5.23 21.39 4.99 35.05z" class="st1"/><path d="M103.1 95.94c-.06-.12-3.03-9.92.12-23.47 1.84-7.96 5.47-15.69 10.75-22.88 6.54-8.97 15.75-17.23 27.21-24.54l.12.18c-25.97 16.52-34.94 34.82-37.85 47.3-3.15 13.49-.18 23.29-.12 23.35l-.23.06z" class="st1"/><path d="M97.16 98.56c0-.12-1.49-10.34 3.21-24.48 2.73-8.26 7.07-16.28 12.77-23.71 7.19-9.33 16.58-17.83 28.04-25.25l.12.18c-25.85 16.81-36.42 35.83-40.7 48.84-4.69 14.08-3.2 24.24-3.2 24.36l-.24.06z" class="st1"/><path d="M85.99 101.29h-.24c0-.12 1.43-11.05 8.91-25.79 4.4-8.67 10.04-16.99 16.7-24.66 8.32-9.57 18.36-18.24 29.83-25.67l.12.18C115.46 42.17 101.79 61.9 94.9 75.5c-7.49 14.74-8.91 25.67-8.91 25.79z" class="st1"/><path d="M78.98 101.59l-.24-.06c.06-.12 3.21-11.11 12.42-25.97 8.56-13.73 24.18-33.57 50.03-50.44l.12.18C115.46 42.17 99.89 62.02 91.4 75.68c-9.21 14.8-12.42 25.79-12.42 25.91z" class="st1"/><path d="M72.98 101.29l-.18-.06c.06-.12 4.69-11.05 15.45-25.79 9.92-13.61 27.09-33.45 53-50.33l.12.18C115.52 42.17 98.29 61.9 88.42 75.5c-10.75 14.8-15.38 25.73-15.44 25.79z" class="st1"/><path d="M65.55 100.4l-.18-.12c.06-.12 6.6-10.81 19.13-25.31 11.59-13.43 30.84-32.92 56.68-49.79l.12.18c-25.85 16.87-45.1 36.36-56.68 49.79-12.53 14.44-19.01 25.13-19.07 25.25z" class="st1"/><path d="M52.06 97.19l-.18-.18c.42-.42 39.81-39.63 89.3-71.89l.12.18C91.81 57.56 52.42 96.78 52.06 97.19z" class="st1"/><path d="M59.37 98.56l-.18-.12c.06-.12 8.14-10.46 22.22-24.6 13.01-13.07 33.93-32.26 59.77-49.14l.12.18C115.46 41.7 94.54 60.83 81.59 73.9 67.51 88.1 59.43 98.44 59.37 98.56z" class="st1"/><path d="M91.51 99.69c0-.12-.06-10.75 6.06-25.25 3.57-8.5 8.56-16.7 14.74-24.24 7.72-9.45 17.47-18.06 28.88-25.49l.12.18c-25.85 16.87-37.97 36.3-43.55 49.61-6.06 14.44-6.06 25.07-6.06 25.19h-.19z" class="st1"/><path d="M112.43 90.3l-10.34-10.1 13.9-3.92-3.56 14.02zm-9.92-9.98l9.8 9.57 3.39-13.25-13.19 3.68z" class="st1"/><path d="M107.5 85.01l1.78-6.12 4.4 4.63-6.18 1.49zm1.9-5.7l-1.6 5.35 5.47-1.31-3.87-4.04zM77.85 217.87l-.18-.12c18.66-23.77 20.38-44.03 18.6-56.86-1.96-13.96-8.44-22.34-8.5-22.4l.18-.12c.06.06 6.54 8.5 8.56 22.46 1.19 8.2.59 16.64-1.78 25.19-2.92 10.58-8.62 21.33-16.88 31.85z" class="st1"/><path d="M78.32 218.34l-.18-.12c18.95-24.36 22.04-45.87 21.33-59.65-.77-14.91-6.12-24.18-6.18-24.3l.18-.12c.06.12 5.41 9.39 6.18 24.36.48 8.79-.71 17.77-3.51 26.74-3.44 11.17-9.44 22.34-17.82 33.09z" class="st1"/><path d="M78.32 218.34l-.18-.12c18.95-24.36 25.01-46.58 26.8-60.96 1.9-15.57-.65-25.55-.71-25.61l.24-.06c0 .12 2.61 10.1.71 25.73-1.13 9.15-3.57 18.48-7.25 27.63-4.63 11.35-11.23 22.64-19.61 33.39z" class="st1"/><path d="M78.32 218.34l-.18-.12c18.95-24.36 26.8-46.52 30.06-60.84 3.51-15.51 2.55-25.37 2.55-25.49h.25c0 .12.95 9.98-2.55 25.55-3.27 14.32-11.17 36.54-30.13 60.9z" class="st1"/><path d="M78.32 218.34l-.18-.12c18.95-24.36 28.16-46.52 32.56-60.78 4.75-15.51 5.05-25.31 5.05-25.43h.24c0 .12-.3 9.98-5.05 25.49-4.39 14.26-13.66 36.48-32.62 60.84z" class="st1"/><path d="M78.32 218.34l-.18-.12c18.95-24.36 29.65-46.35 35.35-60.49 6.12-15.33 7.78-25.01 7.84-25.13l.24.06c0 .12-1.72 9.8-7.84 25.13-5.7 14.15-16.45 36.19-35.41 60.55z" class="st1"/><path d="M78.32 218.34l-.18-.12c36.3-46.52 52.88-83.3 53-83.66l.18.12c-.11.3-16.69 37.14-53 83.66z" class="st1"/><path d="M78.32 218.34l-.18-.12c18.95-24.36 30.96-45.99 37.73-59.89 7.31-15.03 10.16-24.42 10.22-24.48l.24.06c0 .12-2.91 9.51-10.22 24.54-6.77 13.84-18.83 35.53-37.79 59.89z" class="st1"/><path d="M78.32 218.34l-.18-.12c18.95-24.36 23.71-46.4 24.36-60.66.71-15.39-3.09-25.19-3.09-25.31l.24-.06c.06.12 3.86 9.92 3.09 25.37-.42 9.09-2.32 18.3-5.59 27.39-4.09 11.41-10.45 22.64-18.83 33.39z" class="st1"/><path d="M77.97 157.5h-.24c0-.12.89-13.67 12.24-21.21 10.4-6.89 25.97-6.71 46.35.48l-.06.24c-20.26-7.25-35.77-7.43-46.11-.53-11.29 7.47-12.18 20.9-12.18 21.02z" class="st1"/><path d="M72.26 154.05l-.24-.06c0-.12 2.44-11.35 14.08-18 11.88-6.77 28.76-6.54 50.15.77l-.05.24c-21.33-7.25-38.15-7.55-49.97-.77-11.53 6.59-13.91 17.7-13.97 17.82z" class="st1"/><path d="M61.27 144.73l-.18-.12c.06-.06 4.75-6.83 16.34-11.17 6.77-2.55 14.62-3.74 23.17-3.57 10.75.18 22.7 2.5 35.65 6.95l-.06.24c-29.17-9.98-48.01-7.31-58.64-3.33-11.53 4.22-16.22 10.94-16.28 11z" class="st1"/><path d="M56.52 139.56l-.18-.18c.06-.06 6-5.53 18.72-8.56 7.49-1.78 15.86-2.38 24.84-1.78 11.23.71 23.47 3.33 36.36 7.72l-.06.24c-29.17-9.98-49.32-8.73-61.08-5.94-12.66 2.97-18.54 8.44-18.6 8.5z" class="st1"/><path d="M136.2 137c-29.17-9.98-50.27-10.46-62.8-9.15-13.61 1.43-20.38 5.29-20.44 5.35l-.12-.18c.06-.06 6.89-3.92 20.5-5.35 12.6-1.31 33.69-.83 62.92 9.15l-.06.18z" class="st1"/><path d="M136.2 137c-29.23-9.98-51.46-12.48-64.94-12.83-14.62-.36-22.46 1.66-22.52 1.66l-.06-.24c.06 0 7.96-2.02 22.64-1.66 13.55.36 35.83 2.85 65.06 12.83l-.18.24z" class="st1"/><path d="M136.2 137c-55.91-19.07-92.33-24-92.69-24v-.24c.36.06 36.84 4.93 92.75 24l-.06.24z" class="st1"/><path d="M136.55 136.7c-29.23-9.98-52.29-14.02-66.49-15.69-15.39-1.78-24-1.25-24.06-1.25v-.24c.06 0 8.67-.59 24.12 1.25 14.2 1.66 37.31 5.7 66.55 15.69l-.12.24z" class="st1"/><path d="M66.74 150.13l-.24-.06c.06-.06 3.51-8.32 13.84-14.02 6.06-3.39 13.31-5.23 21.45-5.59 10.22-.42 21.92 1.6 34.82 6.06l-.06.18c-29.17-9.98-46.64-5.76-56.09-.48-10.28 5.71-13.66 13.85-13.72 13.91z" class="st1"/><path d="M96.62 163.2c-.12 0-10.34-.18-22.28-7.37-7.01-4.22-13.19-10.04-18.42-17.29-6.48-8.97-11.53-20.26-14.91-33.45l.24-.06c7.61 29.77 22.28 43.97 33.21 50.62 11.88 7.19 22.04 7.37 22.16 7.37v.18z" class="st1"/><path d="M97.22 169.68c-.12 0-10.28-1.78-22.28-10.64-7.01-5.17-13.31-11.76-18.6-19.49-6.65-9.68-11.82-21.27-15.33-34.46l.24-.06c8.02 29.77 22.82 45.69 33.87 53.83 11.94 8.79 22.1 10.58 22.16 10.58l-.06.24z" class="st1"/><path d="M96.27 181.39c-.12-.06-10.04-4.75-21.81-16.46-6.89-6.89-13.01-14.79-18.24-23.53-6.54-10.87-11.65-23.11-15.21-36.3l.24-.06c8.02 29.77 22.64 48.9 33.39 59.65 11.71 11.71 21.63 16.4 21.75 16.4l-.12.3z" class="st1"/><path d="M94.37 188.1c-.12-.06-9.57-6.48-20.86-19.85-10.4-12.36-24.48-33.33-32.5-63.16l.24-.06c8.02 29.77 22.1 50.74 32.5 63.04 11.23 13.37 20.68 19.73 20.8 19.79l-.18.24z" class="st1"/><path d="M92.29 193.74c-.06-.06-9.03-7.9-19.79-22.64-9.92-13.61-23.41-36.13-31.43-65.95l.24-.06c8.02 29.77 21.51 52.29 31.43 65.89 10.7 14.74 19.67 22.52 19.73 22.64l-.18.12z" class="st1"/><path d="M89.08 200.52c-.06-.12-8.2-9.63-18.18-26.02-9.21-15.21-21.81-39.57-29.89-69.4l.24-.06c8.02 29.77 20.68 54.13 29.83 69.28 9.92 16.4 18.06 25.91 18.12 26.02l-.12.18z" class="st1"/><path d="M81.83 212.28c-.24-.48-25.37-50.09-40.76-107.13l.24-.06c15.39 57.04 40.52 106.59 40.76 107.13l-.24.06z" class="st1"/><path d="M85.39 205.75c-.06-.12-7.43-10.99-16.58-28.76-8.44-16.4-20.2-42.19-28.22-72.01l.24-.06c8.02 29.83 19.79 55.61 28.22 72.01 9.15 17.77 16.46 28.64 16.52 28.7l-.18.12z" class="st1"/><path d="M96.56 175.38c-.12-.06-10.22-3.27-22.16-13.55-7.01-6.06-13.25-13.25-18.54-21.51-6.6-10.28-11.76-22.22-15.33-35.35l.24-.06c8.02 29.77 22.82 47.3 33.75 56.74 11.88 10.22 21.98 13.49 22.1 13.49l-.06.24z" class="st1"/><path d="M81.29 159.34l.59-14.44 12.24 7.72-12.83 6.72zm.84-14.02l-.53 13.67 12.12-6.36-11.59-7.31z" class="st1"/><path d="M87.53 155.66l-5.29-3.62 5.76-2.73-.47 6.35zm-4.81-3.57l4.63 3.15.42-5.59-5.05 2.44z" class="st1"/><path fill="#121212" d="M400.54 60.65c11.65 7.19 20.8 17.17 27.45 30.01 6.6 12.77 9.92 27.21 9.92 43.31v6.6c0 16.1-3.27 30.48-9.86 43.26-6.6 12.77-15.63 22.76-27.21 29.95s-24.54 10.81-38.98 10.81h-55.08V49.9h54.01c14.8-.06 28.05 3.56 39.75 10.75zm-5.94 73.08c0-15.69-2.85-27.51-8.62-35.59-5.76-8.02-14.14-12.06-25.13-12.06h-11.76V188.4h12.77c10.52 0 18.6-3.98 24.24-12 5.64-8.02 8.5-19.96 8.5-35.89v-6.78zm90.08 7.37c-8.08-4.69-14.74-10.64-19.9-17.94-5.17-7.25-7.78-16.04-7.78-26.26 0-10.1 2.79-18.84 8.32-26.26 5.53-7.43 13.25-13.13 23.05-17.17 9.8-3.98 20.91-6 33.21-6 12 0 22.7 2.14 32.09 6.48s16.7 10.58 22.04 18.78c5.35 8.2 7.96 18 7.96 29.35h-42.13c0-5.94-1.78-10.64-5.41-14.08-3.57-3.51-8.79-5.23-15.57-5.23-4.52 0-8.44.65-11.65 2.02-3.27 1.37-5.7 3.15-7.37 5.35-1.66 2.2-2.5 4.63-2.5 7.25 0 4.4 2.38 8.14 7.19 11.29 4.81 3.15 12.12 6.42 22.04 9.86 18.18 6.24 31.97 14.02 41.29 23.29 9.33 9.27 14.02 21.09 14.02 35.53 0 10.58-2.55 19.55-7.61 26.98-5.05 7.43-12.18 13.07-21.39 16.93-9.21 3.86-20.08 5.76-32.5 5.76-12.18 0-23.53-2.14-34.16-6.42-10.64-4.28-19.25-10.99-25.91-20.08-6.65-9.09-9.98-20.56-9.98-34.28h42.48c0 6.48 1.01 11.59 3.03 15.33 2.02 3.74 4.99 6.42 9.03 7.96 3.98 1.54 9.15 2.32 15.51 2.32 6.6 0 11.41-1.37 14.56-4.16 3.15-2.73 4.69-6.12 4.69-10.16 0-3.45-.65-6.36-2.02-8.67-1.37-2.38-4.04-4.69-7.96-7.01-3.98-2.32-9.86-4.87-17.71-7.66-11.26-4.07-20.88-8.41-28.96-13.1zm244.26 56.15c-5.82 9.51-13.84 16.81-24.12 21.98-10.28 5.17-22.16 7.72-35.59 7.72-14.79 0-27.51-3.45-38.15-10.34-10.64-6.89-18.72-16.76-24.24-29.71-5.53-12.89-8.32-28.28-8.32-45.99v-7.31c0-17.59 2.91-32.92 8.67-45.87 5.76-13.01 13.96-22.99 24.48-29.95s22.76-10.46 36.66-10.46c14.2 0 26.38 2.73 36.6 8.14 10.22 5.47 18.12 12.95 23.77 22.64 5.64 9.63 8.91 20.74 9.92 33.27H696.5c-.06-9.45-2.26-16.34-6.6-20.68-4.28-4.34-11.47-6.54-21.51-6.54-6.3 0-11.35 1.54-15.21 4.63-3.86 3.09-6.71 8.2-8.67 15.33-1.9 7.13-2.91 16.87-2.91 29.23v7.55c0 12.77.89 22.7 2.67 29.77 1.78 7.01 4.63 12 8.56 14.91 3.92 2.91 9.39 4.4 16.46 4.4 8.67 0 15.33-2.02 19.96-6.12 4.63-4.1 6.95-10.58 7.01-19.55h42.07c-.48 12.51-3.57 23.44-9.39 32.95zm27.27-73.02c4.58-9.98 11.35-17.83 20.26-23.47 8.91-5.64 19.73-8.44 32.32-8.44 12.77 0 23.65 2.79 32.56 8.44 8.97 5.64 15.69 13.43 20.26 23.41s6.83 21.39 6.83 34.22v2.5c0 12.89-2.26 24.3-6.83 34.16-4.58 9.92-11.29 17.71-20.2 23.35-8.91 5.64-19.73 8.44-32.38 8.44-12.72 0-23.53-2.79-32.5-8.44s-15.75-13.43-20.32-23.35c-4.58-9.92-6.83-21.33-6.83-34.16v-2.5c0-12.77 2.26-24.18 6.83-34.16zm37.85 59.83c2.73 5.41 7.78 8.08 15.03 8.08 7.01 0 11.94-2.73 14.74-8.14 2.79-5.47 4.22-13.13 4.22-23.05v-2.5c0-9.74-1.43-17.41-4.22-22.99-2.79-5.59-7.78-8.32-14.97-8.32-7.01 0-11.94 2.79-14.74 8.38-2.79 5.59-4.22 13.25-4.22 22.93v2.5c0 9.98 1.37 17.7 4.16 23.11zm191.56-79.74c6.71 8.02 10.1 21.21 10.1 39.57v80.63H954.9v-80.75c0-4.63-.59-8.2-1.84-10.7s-3.03-4.16-5.35-4.99c-2.32-.83-5.35-1.25-9.15-1.25-6.65 0-11.59 2.38-14.74 7.19v90.43h-40.7V94.7h38.09l1.37 14.97c4.16-5.7 9.15-9.98 15.09-12.95 5.88-2.97 12.48-4.46 19.73-4.46 12.06.06 21.51 4.04 28.22 12.06zm78.61-9.62h23.59v31.08h-23.59v98.75h-40.82v-98.75h-17.59V94.7h17.59v-9.68c0-10.1 1.96-18.66 5.82-25.73 3.86-7.07 9.45-12.42 16.58-16.1 7.19-3.62 15.69-5.47 25.49-5.47 5.35 0 11.53.89 18.48 2.61l.36 32.98c-2.67-.71-5.7-1.07-9.15-1.07-5.35 0-9.51 1.07-12.42 3.27-2.91 2.14-4.34 5.35-4.34 9.51v9.68z"/><path d="M1169.72 223.38h-9.99l-19.69-19.07c-2.48-2.27-4.73-3.96-6.75-5.1-2.02-1.13-3.71-1.7-5.08-1.7-2.43 0-4.22.51-5.36 1.53-1.15 1.02-1.72 2.53-1.72 4.52 0 1.23.38 2.32 1.15 3.27.76.96 1.8 1.71 3.11 2.25 1.31.55 2.76.82 4.34.82v14.74c-3.71 0-7.13-.92-10.25-2.76-3.12-1.84-5.61-4.4-7.45-7.67s-2.76-6.96-2.76-11.05c0-6.69 1.52-11.75 4.56-15.19 3.04-3.44 7.42-5.16 13.12-5.16 2.78 0 5.42.56 7.92 1.68 2.5 1.12 4.97 2.69 7.43 4.71s5.5 4.82 9.13 8.39l6.43 6.39v-22.51h11.87v41.91zM1159.3 135.27c3.73 1.76 6.53 4.22 8.41 7.39s2.82 6.82 2.82 10.97c0 4.2-.94 7.89-2.82 11.07-1.88 3.18-4.68 5.65-8.39 7.41-3.71 1.76-8.24 2.64-13.59 2.64h-11.5c-5.35 0-9.89-.88-13.63-2.64-3.74-1.76-6.56-4.22-8.45-7.37s-2.84-6.83-2.84-11.03c0-4.15.96-7.81 2.87-10.99 1.91-3.18 4.73-5.66 8.47-7.43 3.74-1.77 8.27-2.66 13.59-2.66h11.5c5.31 0 9.83.88 13.56 2.64zm-35.51 13.72c-1.75 1.11-2.62 2.68-2.62 4.73 0 2.1.87 3.69 2.6 4.77 1.73 1.08 4.6 1.62 8.62 1.62h15.1c4.09 0 6.98-.55 8.66-1.64 1.68-1.09 2.52-2.7 2.52-4.83 0-2.05-.85-3.61-2.54-4.69-1.69-1.08-4.57-1.62-8.64-1.62h-15.1c-3.99 0-6.85.55-8.6 1.66zM1169.72 125.8h-9.99l-19.69-19.08c-2.48-2.26-4.73-3.96-6.75-5.1-2.02-1.13-3.71-1.7-5.08-1.7-2.43 0-4.22.51-5.36 1.54-1.15 1.02-1.72 2.53-1.72 4.52 0 1.23.38 2.32 1.15 3.27.76.96 1.8 1.71 3.11 2.25 1.31.55 2.76.82 4.34.82v14.74c-3.71 0-7.13-.92-10.25-2.76-3.12-1.84-5.61-4.4-7.45-7.68-1.84-3.27-2.76-6.96-2.76-11.05 0-6.69 1.52-11.75 4.56-15.19 3.04-3.44 7.42-5.16 13.12-5.16 2.78 0 5.42.56 7.92 1.68 2.5 1.12 4.97 2.69 7.43 4.71s5.5 4.82 9.13 8.39l6.43 6.39V83.88h11.87v41.92zM1159.3 37.69c3.73 1.76 6.53 4.22 8.41 7.39s2.82 6.82 2.82 10.97c0 4.2-.94 7.89-2.82 11.07-1.88 3.18-4.68 5.65-8.39 7.41-3.71 1.76-8.24 2.64-13.59 2.64h-11.5c-5.35 0-9.89-.88-13.63-2.64-3.74-1.76-6.56-4.22-8.45-7.37s-2.84-6.83-2.84-11.03c0-4.15.96-7.81 2.87-10.99 1.91-3.18 4.73-5.66 8.47-7.43 3.74-1.77 8.27-2.66 13.59-2.66h11.5c5.31 0 9.83.88 13.56 2.64zm-35.51 13.71c-1.75 1.11-2.62 2.68-2.62 4.73 0 2.1.87 3.69 2.6 4.77 1.73 1.08 4.6 1.62 8.62 1.62h15.1c4.09 0 6.98-.55 8.66-1.64 1.68-1.09 2.52-2.7 2.52-4.83 0-2.05-.85-3.61-2.54-4.69-1.69-1.08-4.57-1.62-8.64-1.62h-15.1c-3.99 0-6.85.56-8.6 1.66z" class="st0"/></svg>