<svg xmlns="http://www.w3.org/2000/svg" width="63" height="53"><rect width="100%" height="100%" fill="none"/><g class="currentLayer"><path fill="#efefef" d="M62.68 50.555c-.74.802-1.917 1.41-3.104 1.721-3.226.844-7.038-.03-10.038-1.35-9.568-4.21-7.455-14.873-3.259-22.226 1.26-2.208 2.503-4.43 3.754-6.666.984-1.76 3.114-4.724 2.28-6.875-.875-2.256-3.216-2.27-4.753-.369-1.479 1.83-2.726 4.454-3.746 6.584-1.11 2.32-6.656 14.507-6.656 14.507-1.024 1.985-2.75 4.84-4.624 6.416-1.397 1.177-3.95 1.522-5.629.303-1.275-.927-1.527-2.159-1.277-3.594 1.156-6.625 11.204-22.04 4.274-23.125-2.656-.416-3.377 2.54-4.196 4.426-1.354 3.116-2.386 6.361-3.834 9.441a54.555 54.555 0 0 0-3.813 11.02c-.698 3.037-1.602 6.907-5.06 7.832C3.534 51.131.66 44.882.66 44.881c-1.546-4.916-.08-9.338 1.407-14.066 1.15-3.652 1.837-7.419 3.293-10.973C7.957 13.506 10.546.286 19.91 1.132c2.39.215 5.062 1.423 7.127 2.627 1.877 1.095 3.305 1.68 5.49.5C34.652 3.111 35.626.98 38.158.25c2.715-.783 4.5.376 6.53 2.01 2.846 2.287 3.156 1.253 5.504.652 1.947-.499 4.208-.73 6.342-.365 10.982 1.882 3.988 15.901 1.368 21.535-1.705 3.665-9.844 18.404-2.633 20.385 2.175.597 4.98.325 6.79 1.885 1.841 1.585 1.658 3.082.621 4.203z"/></g></svg>