<?xml version="1.0" encoding="utf-8"?>
<!-- Generator: Adobe Illustrator 24.2.1, SVG Export Plug-In . SVG Version: 6.00 Build 0)  -->
<svg version="1.1" id="Layer_1" xmlns="http://www.w3.org/2000/svg" xmlns:xlink="http://www.w3.org/1999/xlink" x="0px" y="0px"
	 viewBox="0 0 1200 250.7" style="enable-background:new 0 0 1200 250.7;" xml:space="preserve">
<style type="text/css">
	.st0{fill:#F48220;}
	.st1{fill:#D46627;}
	.st2{fill:#FFFFFF;}
</style>
<g>
	<g>
		<path class="st0" d="M153.3,126.7l-0.4-103.1l98.4,70.9L153.3,126.7z M141.6,126.4L43.4,94.9L141.4,24L141.6,126.4z M137.4,136
			l-59,83.3L40,104.6L137.4,136z M146.8,140.1l61,83.2l-120.9-0.2L146.8,140.1z M157.6,136.8l97.9-32.3l-37.6,115L157.6,136.8z"/>
		<path class="st1" d="M206.7,223.2c-16.9-25.7-35.8-33.8-48.7-36.1c-14-2.5-24.1,1.1-24.2,1.1l-0.1-0.2c0.1-0.1,10.3-3.7,24.3-1.1
			c8.3,1.5,16.2,4.8,23.6,9.7c9.3,6.2,17.8,15.2,25.3,26.5L206.7,223.2L206.7,223.2z"/>
		<path class="st1" d="M206.7,223.2c-17.3-25.5-36.8-35.5-50.1-39.3c-14.4-4.2-24.9-2.3-25-2.3l-0.1-0.2c0.1,0,10.6-1.9,25.1,2.3
			c8.5,2.4,16.7,6.5,24.4,12c9.6,6.9,18.3,16.1,26,27.4L206.7,223.2z"/>
		<path class="st1" d="M206.7,223.2c-17.3-25.5-36.6-38.6-49.7-45c-14.3-7-24.5-7.8-24.6-7.9V170c0.1,0,10.4,1,24.7,7.9
			c8.4,4.1,16.5,9.4,24.1,15.9c9.4,8.1,18.1,17.9,25.8,29.2L206.7,223.2z"/>
		<path class="st1" d="M206.7,223.2c-17.3-25.5-36-40.2-48.6-48c-13.7-8.4-23.4-10.9-23.5-10.9l0.1-0.2c0.1,0,9.8,2.5,23.5,10.9
			c12.7,7.8,31.4,22.5,48.7,48.1L206.7,223.2z"/>
		<path class="st1" d="M206.7,223.2c-17.3-25.5-35.5-41.5-47.8-50.4c-13.2-9.6-22.5-13.2-22.6-13.3l0.1-0.2
			c0.1,0.1,9.4,3.7,22.7,13.3c12.2,8.9,30.5,24.9,47.8,50.4L206.7,223.2z"/>
		<path class="st1" d="M206.7,223.2c-17.3-25.5-34.9-42.9-46.6-52.9c-12.7-10.9-21.4-15.8-21.5-15.8l0.1-0.2
			c0.1,0.1,8.8,4.9,21.5,15.9c11.7,10,29.4,27.4,46.7,52.9L206.7,223.2z"/>
		<path class="st1" d="M206.7,223.2c-33-48.9-62.9-77.2-63.2-77.5l0.2-0.2c0.3,0.3,30.2,28.6,63.3,77.5L206.7,223.2L206.7,223.2z"/>
		<path class="st1" d="M207.1,223.2c-17.3-25.5-34.3-44-45.6-55c-12.2-11.9-20.3-17.8-20.4-17.9l0.1-0.2c0.1,0.1,8.3,6,20.4,17.9
			c11.2,11,28.2,29.5,45.6,55L207.1,223.2z"/>
		<path class="st1" d="M207.1,223.2c-17.3-25.5-37-37.3-50.4-42.5c-14.6-5.8-25.2-5.5-25.3-5.5v-0.2c0.1,0,10.8-0.3,25.4,5.5
			c8.6,3.4,16.8,8.2,24.5,14.3c9.6,7.5,18.4,17.1,26,28.4L207.1,223.2L207.1,223.2z"/>
		<path class="st1" d="M148.8,203.5c-0.1-0.1-12.7-5.1-16.4-18.2c-3.4-12,1.6-26.8,14.8-43.9l0.2,0.1
			c-13.1,17.1-18.1,31.7-14.7,43.7c3.6,13,16.2,18,16.3,18.1L148.8,203.5L148.8,203.5z"/>
		<path class="st1" d="M143.7,207.9c-0.1-0.1-10-5.8-12.8-19c-2.8-13.4,2.7-29.4,16.2-47.5l0.2,0.1c-13.5,18-19,33.9-16.2,47.3
			c2.7,13,12.5,18.7,12.7,18.8L143.7,207.9L143.7,207.9z"/>
		<path class="st1" d="M131.4,215.4c-0.1-0.1-5.1-6.7-5.6-19c-0.3-7.2,1-15,3.7-23.2c3.5-10.2,9.4-20.8,17.6-31.7l0.2,0.1
			c-18.5,24.7-21.8,43.4-21.3,54.8c0.5,12.3,5.5,18.8,5.5,18.9L131.4,215.4L131.4,215.4z"/>
		<path class="st1" d="M125,218.3c-0.1-0.1-3.4-7.4-2.4-20.4c0.6-7.7,2.6-15.8,5.9-24.2c4.2-10.5,10.4-21.3,18.6-32.2l0.2,0.1
			c-18.5,24.7-23.5,44.2-24.5,56.2c-1.1,13,2.3,20.3,2.3,20.4L125,218.3z"/>
		<path class="st1" d="M117.8,219.6c0-0.1-1.6-7.7,1.2-21.2c2.6-12.4,9.6-32.3,28.2-57l0.2,0.1c-18.5,24.7-25.5,44.6-28.1,56.9
			c-2.9,13.4-1.2,21-1.2,21.1L117.8,219.6z"/>
		<path class="st1" d="M109.7,221.4h-0.2c0-0.1,0.5-8.2,5.4-22c4.5-12.8,13.8-33.2,32.3-57.9l0.2,0.1
			c-18.5,24.7-27.7,45.1-32.3,57.8C110.2,213.2,109.7,221.3,109.7,221.4z"/>
		<path class="st1" d="M95.9,222.4l-0.2-0.1c0.2-0.4,16.1-33.5,51.5-80.8l0.2,0.1C111.9,188.9,96,222,95.9,222.4z"/>
		<path class="st1" d="M103.1,222.1l-0.2-0.1c0-0.1,2.1-8.4,8.6-22.6c6-13,17-33.7,35.5-58.4l0.2,0.1
			c-18.5,24.7-29.5,45.4-35.5,58.4C105.2,213.6,103.2,222,103.1,222.1L103.1,222.1z"/>
		<path class="st1" d="M138.3,211.9c-0.1-0.1-6.8-5.9-9.1-17.5c-1.3-6.8-0.9-14.3,1.4-22.1c2.8-9.8,8.3-20.3,16.5-31.3l0.2,0.1
			c-18.5,24.7-19.9,42.5-17.8,53.2c2.3,11.5,9,17.3,9,17.3L138.3,211.9z"/>
		<path class="st1" d="M95.7,222.5c-2.6,0-5.3-0.1-8-0.2V222c30.7,2,48.7-7.6,58.4-16c10.5-9.1,13.8-18.7,13.8-18.8l0.2,0.1
			c-0.1,0.1-3.3,9.8-13.9,18.9c-6.2,5.3-13.7,9.4-22.1,12.2C115.6,221.1,106.1,222.5,95.7,222.5z"/>
		<path class="st1" d="M94.5,222.4c-2.3,0-4.6-0.1-6.9-0.2V222c30.8,1.5,50.5-7.6,61.6-15.6c12.1-8.6,16.9-17.7,16.9-17.8l0.2,0.1
			c-0.1,0.1-4.9,9.3-17,17.9c-7.1,5.1-15.3,9-24.3,11.6C115.8,221.1,105.5,222.4,94.5,222.4L94.5,222.4z"/>
		<path class="st1" d="M95.5,222.4c-2.6,0-5.2-0.1-7.8-0.2V222c30.8,1.5,53.5-6.4,67.1-13.3c14.7-7.5,22.3-15.5,22.3-15.6l0.2,0.2
			c-0.1,0.1-7.7,8.1-22.4,15.6c-8.7,4.5-18.1,7.8-28,10.1C116.8,221.3,106.3,222.4,95.5,222.4z"/>
		<path class="st1" d="M96.4,222.5c-2.9,0-5.8-0.1-8.8-0.2V222c30.8,1.5,55.1-5.3,70-11.4c16.2-6.6,25.2-13.6,25.3-13.7l0.1,0.2
			c-0.1,0.1-9.1,7.1-25.3,13.7C144.2,216.3,123.1,222.5,96.4,222.5z"/>
		<path class="st1" d="M97.8,222.5c-3.3,0-6.7-0.1-10.1-0.2V222c30.8,1.5,56.3-4.3,72.4-9.5c17.3-5.6,27.5-11.7,27.6-11.8l0.1,0.2
			c-0.1,0.1-10.3,6.2-27.6,11.8C145.8,217.3,124.1,222.5,97.8,222.5z"/>
		<path class="st1" d="M100.3,222.6c-4.2,0-8.4-0.1-12.7-0.3V222c30.8,1.5,57.9-2.9,75.1-7c18.7-4.4,30.2-9.2,30.4-9.2l0.1,0.2
			c-0.1,0.1-11.6,4.9-30.4,9.2C148,218.8,125.9,222.6,100.3,222.6L100.3,222.6z"/>
		<path class="st1" d="M113.4,222.9c-8.4,0-17.1-0.2-25.8-0.7V222c59,3,113.9-5.6,114.4-5.6l0.1,0.2
			C201.7,216.7,161.7,222.9,113.4,222.9L113.4,222.9z"/>
		<path class="st1" d="M103.8,223c-5.3,0-10.9-0.1-16.5-0.4v-0.2c30.8,1.5,59-1.7,77.2-4.6c19.7-3.2,32.3-6.8,32.4-6.8l0.1,0.2
			c-0.1,0.1-12.7,3.7-32.4,6.8C149.7,220.5,128.1,223,103.8,223L103.8,223z"/>
		<path class="st1" d="M94.7,222.8c-2.4,0-4.8-0.1-7.3-0.2v-0.2c30.8,1.5,52-7.1,64.4-14.6c13.4-8.1,19.6-16.8,19.7-16.8l0.2,0.1
			c-0.1,0.1-6.3,8.7-19.7,16.9c-7.9,4.8-16.7,8.5-26.1,10.9C116,221.6,105.6,222.8,94.7,222.8L94.7,222.8z"/>
		<path class="st1" d="M151.6,200.7l-13.5-5l11.1-9.3L151.6,200.7z M138.5,195.6l12.8,4.8l-2.3-13.5L138.5,195.6L138.5,195.6z"/>
		<path class="st1" d="M145,197.5l-0.8-6.3l5.9,2.4L145,197.5z M144.5,191.6l0.7,5.5l4.5-3.4L144.5,191.6z M199,164
			c0-0.1-0.3-10.9,6.4-23.5c4-7.4,9.5-13.9,16.6-19.4c8.8-6.9,19.9-12.2,33-15.9l0.1,0.2c-29.6,8.1-43.3,23.6-49.4,35.2
			c-6.7,12.5-6.4,23.2-6.4,23.4H199z"/>
		<path class="st1" d="M192.3,164.1H192c0-0.1,1.5-10.7,9.9-23.2c5-7.3,11.3-13.9,19-19.4c9.5-7,21-12.4,34.1-16.2l0.1,0.2
			c-29.6,8.6-45.1,24.1-52.9,35.5C193.8,153.5,192.3,164,192.3,164.1z"/>
		<path class="st1" d="M181.8,159.8l-0.2-0.1c0.1-0.1,4.1-9.6,15.2-21c6.5-6.7,14.1-12.8,22.5-17.9c10.6-6.5,22.6-11.8,35.7-15.5
			l0.1,0.2c-29.6,8.6-47.9,22.9-58.1,33.5C185.9,150.3,181.9,159.8,181.8,159.8L181.8,159.8z"/>
		<path class="st1" d="M176.8,155.8l-0.2-0.1c0.1-0.1,5.4-8.6,17.7-19c11.3-9.6,31.1-22.9,60.8-31.4l0.1,0.2
			c-29.6,8.6-49.4,21.8-60.7,31.4C182.1,147.2,176.8,155.7,176.8,155.8L176.8,155.8z"/>
		<path class="st1" d="M172.7,152.7l-0.2-0.1c0.1-0.1,6.4-7.8,19.7-17.5c12.2-8.9,33.1-21.3,62.7-29.9l0.1,0.2
			c-29.6,8.6-50.4,21-62.7,29.9C179.2,145,172.8,152.7,172.7,152.7z"/>
		<path class="st1" d="M168.6,149l-0.2-0.2c0.1-0.1,7.4-6.8,21.7-15.6c13.2-8,35.1-19.4,64.8-28l0.1,0.2c-29.6,8.6-51.6,20-64.8,28
			C176.1,142.2,168.7,148.9,168.6,149z"/>
		<path class="st1" d="M161.8,141.6l-0.1-0.2c0.4-0.2,36.6-19.9,93.3-36.2l0.1,0.2C198.4,121.7,162.2,141.4,161.8,141.6L161.8,141.6
			z"/>
		<path class="st1" d="M165.5,145.2l-0.1-0.2c0.1-0.1,8.3-6,23.4-13.9c13.9-7.3,36.8-17.8,66.4-26.3l0.1,0.2
			c-29.6,8.6-52.5,19.1-66.4,26.3C173.7,139.2,165.6,145.1,165.5,145.2L165.5,145.2z"/>
		<path class="st1" d="M186.2,162.1l-0.2-0.1c0-0.1,3-10.3,13.1-22.4c5.9-7.1,13-13.5,21.1-18.9c10.2-6.8,21.9-12.2,35.1-16l0.1,0.2
			c-29.6,8.6-46.8,23.6-56,34.8C189.2,151.9,186.2,162,186.2,162.1L186.2,162.1z"/>
		<path class="st1" d="M197.2,164.5h-1.1c-12.5-0.5-25-9.8-37.2-27.6l0.2-0.1c12.1,17.8,24.6,27,37,27.5c13.5,0.6,22.1-9.8,22.2-9.9
			l0.2,0.1C218.4,154.6,210.2,164.5,197.2,164.5z"/>
		<path class="st1" d="M202.4,167.1c-1.1,0-2.2-0.1-3.3-0.2c-13.6-1.5-27.1-11.6-40.1-30.1l0.2-0.1c13,18.4,26.4,28.5,40,30
			c13.2,1.4,21.7-6.1,21.8-6.2l0.2,0.2C221,160.7,213.9,167.1,202.4,167.1L202.4,167.1z"/>
		<path class="st1" d="M216.2,175.7c-3.1,0-7.1-0.4-11.6-1.7c-7-2-14-5.5-20.9-10.7c-8.6-6.5-16.9-15.4-24.7-26.6l0.2-0.1
			c17.8,25.2,34.5,34.1,45.5,37.2c11.8,3.3,19.6,0.6,19.7,0.6l0.1,0.2C224.4,174.7,221.3,175.7,216.2,175.7L216.2,175.7z"/>
		<path class="st1" d="M223.4,181.7c-3,0-9.6-0.5-18.4-4.2c-7.1-3-14.2-7.4-21.2-13.1c-8.6-7.2-17-16.5-24.8-27.6l0.2-0.1
			c17.8,25.2,34.8,36.1,45.9,40.7c12.1,5.1,20,4.1,20.1,4.1v0.2C225.1,181.7,224.5,181.7,223.4,181.7z"/>
		<path class="st1" d="M224.3,188.9c-0.1,0-7.8-0.9-19.7-7.7c-10.9-6.3-27.7-19.1-45.6-44.4l0.2-0.1c17.8,25.3,34.5,38,45.5,44.3
			c11.8,6.8,19.6,7.7,19.7,7.7V188.9z"/>
		<path class="st1" d="M223.4,197.4c-0.1,0-7.6-3-19.3-11.9c-10.8-8.3-27.3-23.4-45.1-48.6l0.2-0.1c17.8,25.3,34.3,40.3,45,48.5
			c11.6,8.9,19.1,11.9,19.3,11.9L223.4,197.4z"/>
		<path class="st1" d="M219.9,210.8c-0.2-0.2-26.9-25.7-61-74l0.2-0.1c34,48.3,60.7,73.7,60.9,73.9L219.9,210.8z"/>
		<path class="st1" d="M221.9,203.8c-0.1-0.1-7.4-4.6-18.8-15.2c-10.5-9.7-26.8-26.6-44.6-51.8l0.2-0.1c17.8,25.3,34,42.1,44.6,51.8
			c11.4,10.5,18.7,15.1,18.8,15.2L221.9,203.8L221.9,203.8z"/>
		<path class="st1" d="M208.3,170.6c-1.4,0-2.9-0.1-4.5-0.3c-6.9-0.8-13.8-3.6-20.6-8.1c-8.5-5.6-16.8-14.2-24.7-25.4l0.2-0.1
			c17.8,25.2,34.3,32.1,45.1,33.4c11.6,1.4,19.3-3.1,19.3-3.2l0.1,0.2C223.2,167.1,217.4,170.6,208.3,170.6L208.3,170.6z"/>
		<path class="st1" d="M217.4,218.4l-0.2-0.1c11.3-28.6,7.8-48.7,2.9-60.5c-5.3-12.8-13.5-18.9-13.6-19l0.1-0.2
			c0.1,0.1,8.3,6.2,13.7,19.1c3.1,7.5,4.8,15.9,4.8,24.8C225,193.7,222.5,205.7,217.4,218.4z"/>
		<path class="st1" d="M217.4,218.4l-0.2-0.1c11-28.8,8.4-50.4,4.2-63.5c-4.5-14.1-11.6-21.5-11.7-21.6l0.2-0.2
			c0.1,0.1,7.2,7.5,11.8,21.7c2.6,8.3,3.9,17.3,3.6,26.7C225,193.2,222.3,205.6,217.4,218.4L217.4,218.4z"/>
		<path class="st1" d="M217.4,218.4l-0.2-0.1c11-28.8,10.5-52.8,8-67.9c-2.6-16.3-7.9-26-7.9-26.1l0.2-0.1c0.1,0.1,5.3,9.7,8,26.1
			c1.5,9.6,1.8,19.6,1,29.8C225.3,192.8,222.3,205.6,217.4,218.4L217.4,218.4z"/>
		<path class="st1" d="M217.4,218.4l-0.2-0.1c11-28.8,11.9-54,10.8-70.1c-1.2-17.4-5.2-28.1-5.2-28.2l0.2-0.1
			c0.1,0.1,3.9,10.9,5.2,28.3C229.4,164.3,228.5,189.5,217.4,218.4z"/>
		<path class="st1" d="M217.4,218.4l-0.2-0.1c11-28.8,13.3-55,13.3-71.8c0-18.2-2.7-29.8-2.7-29.9l0.2-0.1c0,0.1,2.7,11.7,2.7,29.9
			C230.8,163.4,228.5,189.5,217.4,218.4L217.4,218.4z"/>
		<path class="st1" d="M217.4,218.4l-0.2-0.1c11-28.8,15.1-55.9,16.6-73.6c1.6-19.1,0.6-31.6,0.6-31.7h0.2c0,0.1,1,12.6-0.6,31.7
			C232.6,162.4,228.5,189.5,217.4,218.4L217.4,218.4z"/>
		<path class="st1" d="M217.4,218.4l-0.2-0.1c21.1-55.2,29.9-110,30-110.6l0.2,0.1C247.4,108.3,238.5,163.2,217.4,218.4z"/>
		<path class="st1" d="M217.7,218.8l-0.2-0.1c11-28.8,16.7-56.6,19.5-74.8c3-19.7,3.5-32.9,3.5-33h0.2c0,0.1-0.5,13.2-3.5,33
			C234.4,162.1,228.7,189.9,217.7,218.8z"/>
		<path class="st1" d="M217.7,218.8l-0.2-0.1c11-28.8,9.4-51.6,6.1-65.8c-3.6-15.3-9.9-23.8-9.9-23.9l0.2-0.1c0.1,0.1,6.4,8.7,10,24
			c2.1,9,2.9,18.5,2.3,28.3C225.4,193.4,222.6,206,217.7,218.8L217.7,218.8z"/>
		<path class="st1" d="M207.8,162.2l-5.3-13.4l14.3,2.1L207.8,162.2z M202.8,149.1l5.1,12.7l8.5-10.8L202.8,149.1L202.8,149.1z"/>
		<path class="st1" d="M211.7,156.2l-6.3-1.1l4.2-4.9L211.7,156.2L211.7,156.2z M205.8,154.9l5.5,1l-1.9-5.3L205.8,154.9
			L205.8,154.9z M192,95.7c-0.1,0-10.5-3.1-20.3-13.4c-5.8-6.1-10.3-13.4-13.4-21.7c-3.9-10.5-5.5-22.7-4.9-36.3h0.2
			c-1.4,30.7,9.1,48.4,18.2,57.9c9.8,10.2,20.1,13.2,20.2,13.3L192,95.7z"/>
		<path class="st1" d="M190,102.4c-0.1-0.1-9.7-4.7-19-16.6c-5.5-7-9.7-15.1-12.7-24c-3.7-11.2-5.3-23.8-4.9-37.4h0.2
			c-1,30.8,8.9,50.3,17.5,61.3c9.2,11.9,18.8,16.5,18.9,16.6L190,102.4L190,102.4z"/>
		<path class="st1" d="M182.7,111c-0.1-0.1-7.9-6.9-15.3-20.9c-4.4-8.3-7.8-17.3-10.1-27c-2.9-12.1-4.2-25.1-3.7-38.7h0.2
			c-1,30.8,7,52.7,13.8,65.6c7.4,14,15.2,20.8,15.3,20.9L182.7,111L182.7,111z"/>
		<path class="st1" d="M177.2,114.5c-0.1-0.1-6.5-7.8-12.6-22.7c-5.6-13.7-12.1-36.7-11.1-67.5h0.2c-1,30.8,5.5,53.7,11.1,67.4
			c6.1,14.9,12.5,22.6,12.6,22.6L177.2,114.5z"/>
		<path class="st1" d="M173,117.4c-0.1-0.1-5.5-8.5-10.5-24.1c-4.7-14.4-10-38-9-68.9h0.2c-1,30.8,4.3,54.5,9,68.9
			c5.1,15.6,10.5,24,10.5,24.1L173,117.4z"/>
		<path class="st1" d="M168.2,120.1c-0.1-0.1-4.2-9.2-8.1-25.5c-3.6-15-7.7-39.4-6.7-70.3h0.2c-1,30.8,3,55.2,6.7,70.2
			c3.9,16.3,8,25.4,8.1,25.4L168.2,120.1L168.2,120.1z"/>
		<path class="st1" d="M159.1,124.2c-0.1-0.4-7.6-40.9-5.6-99.9h0.2c-2,58.9,5.5,99.5,5.6,99.9L159.1,124.2L159.1,124.2z"/>
		<path class="st1" d="M163.6,121.8c-0.1-0.1-3.1-9.7-6-26.5c-2.6-15.5-5.5-40.5-4.5-71.3h0.2c-1.9,59.1,10.4,97.3,10.5,97.7
			L163.6,121.8L163.6,121.8z"/>
		<path class="st1" d="M186.2,107.6c-0.1-0.1-8.9-6.1-17.3-19.4c-4.9-7.8-8.8-16.5-11.5-25.9c-3.3-11.8-4.8-24.7-4.3-38.3h0.2
			c-1,30.8,8,51.9,15.7,64.1c8.4,13.2,17.1,19.3,17.2,19.3L186.2,107.6L186.2,107.6z"/>
		<path class="st1" d="M153.8,125.4l-0.1-0.2c20.6-6.1,33.3-15,37.6-26.7c4.7-12.7-2.5-24.1-2.6-24.1l0.2-0.1
			c0.1,0.1,7.3,11.6,2.6,24.4C187.2,110.3,174.5,119.4,153.8,125.4L153.8,125.4z"/>
		<path class="st1" d="M153.8,125.4l-0.1-0.2c21.5-6.7,35.3-16.3,40.9-28.8c5.5-12.1,0.9-22.5,0.8-22.6l0.2-0.1
			c0.1,0.1,4.7,10.6-0.8,22.8C189.2,109,175.4,118.8,153.8,125.4L153.8,125.4z"/>
		<path class="st1" d="M153.8,125.4l-0.1-0.2c29.5-9.1,43.1-22.3,49.4-31.8c6.8-10.3,6.7-18.5,6.7-18.5h0.2c0,0.1,0.2,8.4-6.7,18.7
			c-4,6.1-9.6,11.6-16.6,16.5C177.9,116.2,166.9,121.4,153.8,125.4z"/>
		<path class="st1" d="M153.8,125.4l-0.1-0.2c29.5-9.1,45-21.9,52.9-31.1c8.5-9.9,10.1-17.8,10.1-17.8l0.2,0.1
			c0,0.1-1.6,8-10.1,17.9c-5,5.8-11.4,11.2-19,16C178.3,116.3,166.9,121.4,153.8,125.4L153.8,125.4z"/>
		<path class="st1" d="M153.8,125.4l-0.1-0.2c29.5-9.1,46.8-21.1,56.2-29.5c10.2-9.2,13.4-16.3,13.4-16.3l0.2,0.1
			c-0.1,0.1-3.3,7.2-13.4,16.4C200.7,104.3,183.4,116.3,153.8,125.4L153.8,125.4z"/>
		<path class="st1" d="M153.8,125.4l-0.1-0.2c29.5-9.1,49-20.1,60.1-27.8c12.1-8.3,17.2-14.6,17.3-14.6l0.2,0.1
			c-0.1,0.1-5.2,6.3-17.3,14.6C202.8,105.2,183.3,116.3,153.8,125.4L153.8,125.4z"/>
		<path class="st1" d="M153.8,125.4l-0.1-0.2c56.4-17.4,88.8-34.9,89.1-35.1l0.1,0.2C242.7,90.5,210.3,108,153.8,125.4z"/>
		<path class="st1" d="M153.7,125.8l-0.1-0.2c29.5-9.1,50.6-19.4,63-26.4c13.5-7.6,20.1-13.1,20.2-13.2l0.1,0.2
			c-0.1,0.1-6.7,5.6-20.2,13.2C204.3,106.5,183.2,116.7,153.7,125.8z"/>
		<path class="st1" d="M153.7,125.8l-0.1-0.2c29.5-9.1,41.1-22.8,45.7-32.6c4.9-10.6,2.9-19.3,2.9-19.4l0.2-0.1
			c0,0.1,2.1,8.8-2.9,19.5c-2.9,6.3-7.7,12.1-14.1,17.1C177.4,116.6,166.7,121.8,153.7,125.8L153.7,125.8z"/>
		<path class="st1" d="M249.3,95.2c-23.6-19.6-43.8-22.5-56.6-21.4c-13.8,1.1-22.2,7-22.3,7.1l-0.1-0.2c0.1-0.1,8.5-5.9,22.3-7.1
			c8.1-0.7,16.6,0.4,25.1,3.1c10.6,3.4,21.3,9.6,31.7,18.3L249.3,95.2z"/>
		<path class="st1" d="M249.3,95.2c-24-19.4-45.3-23.5-59-23.6h-0.5c-14.5,0-23.6,4.5-23.6,4.5l-0.1-0.2c0.1-0.1,9.2-4.5,23.8-4.5
			h0.5c8.7,0.1,17.6,1.7,26.5,4.8c11.1,3.9,22,10.3,32.7,18.8C249.4,95,249.3,95.2,249.3,95.2z"/>
		<path class="st1" d="M249.3,95.2c-24-19.4-47-26.3-62.1-28.6c-16.3-2.6-27.2-0.5-27.2-0.5l-0.1-0.2c0.1,0,10.9-2.1,27.3,0.5
			c9.6,1.5,19.3,4.3,28.6,8.3c11.7,5,23,11.8,33.6,20.4L249.3,95.2L249.3,95.2z"/>
		<path class="st1" d="M249.3,95.2c-24-19.4-47.7-28-63.3-31.9c-16.9-4.2-28.3-3.8-28.5-3.8v-0.2c0.1,0,11.5-0.4,28.5,3.8
			c15.7,3.9,39.4,12.6,63.4,32L249.3,95.2z"/>
		<path class="st1" d="M249.3,95.2c-24-19.4-48.1-29.6-64.1-34.8c-17.3-5.6-29.2-6.7-29.3-6.7v-0.2c0.1,0,11.9,1.1,29.3,6.7
			c16,5.2,40.2,15.4,64.2,34.9L249.3,95.2z"/>
		<path class="st1" d="M249.3,95.2c-24-19.4-48.5-31.6-64.8-38.5c-17.7-7.4-29.8-10.3-29.9-10.4l0.1-0.2c0.1,0,12.3,2.9,30,10.4
			c16.3,6.9,40.9,19.1,64.9,38.6C249.5,95.1,249.3,95.2,249.3,95.2z"/>
		<path class="st1" d="M249.3,95.2c-46-37.1-95.4-62.4-95.9-62.7l0.1-0.2c0.5,0.2,50,25.6,96,62.7L249.3,95.2z"/>
		<path class="st1" d="M249.8,95.1c-24-19.4-48.7-33.3-65.1-41.7c-17.8-9-30.1-13.5-30.2-13.5l0.1-0.2c0.1,0.1,12.4,4.5,30.3,13.5
			c16.5,8.3,41.1,22.3,65.2,41.7L249.8,95.1L249.8,95.1z"/>
		<path class="st1" d="M249.8,95.1c-24-19.4-46.2-24.8-60.7-26.1c-15.6-1.3-25.7,2-25.8,2l-0.1-0.2c0.1-0.1,10.2-3.4,25.9-2.1
			c9.2,0.8,18.5,3,27.6,6.5c11.4,4.5,22.6,11.1,33.2,19.6L249.8,95.1z"/>
		<path class="st1" d="M178.6,87.8l6.4-13l8,12C193.1,86.9,178.6,87.8,178.6,87.8z M185,75.3L179,87.5l13.7-0.9L185,75.3L185,75.3z"
			/>
		<path class="st1" d="M185.5,86.9l-3.3-5.5l6.4-0.2L185.5,86.9L185.5,86.9z M182.5,81.7l2.9,4.8l2.7-4.9L182.5,81.7z M77.6,101.2
			c-10.4,0-21.6-2.3-33.3-6.7l0.1-0.2c28.8,10.8,48.8,6.3,60.7,0.6c12.8-6.2,18.8-15,18.9-15.2l0.2,0.1c-0.1,0.1-6.1,9-19,15.2
			c-7.5,3.6-15.9,5.6-24.8,6C79.4,101.2,78.5,101.2,77.6,101.2z"/>
		<path class="st1" d="M81.1,101.5c-11.7,0-24.1-2.3-36.8-7l0.1-0.2c29,10.5,50.7,7.1,63.7,2.3c14.1-5.1,21.5-12.8,21.6-12.9
			l0.2,0.2c-0.1,0.1-7.5,7.8-21.7,13c-8.3,3-17.3,4.6-26.7,4.6C81.2,101.5,81.2,101.5,81.1,101.5L81.1,101.5z"/>
		<path class="st1" d="M91.7,103.4c-3.1,0-6.2-0.1-9.4-0.4c-12.4-1-25.2-3.8-38-8.4l0.1-0.2c29,10.5,52.3,9.7,66.7,7.1
			c15.6-2.7,24.5-8,24.5-8.1l0.1,0.2c-0.1,0.1-9,5.3-24.6,8.1C104.8,102.8,98.3,103.4,91.7,103.4z"/>
		<path class="st1" d="M101.9,105.2c-14.6,0-34.5-2.3-57.6-10.6l0.1-0.2c29,10.5,52.8,11.3,67.6,10.3c16-1.2,25.3-4.9,25.4-4.9
			l0.1,0.2c-0.1,0.1-9.4,3.8-25.5,5C108.9,105.1,105.6,105.2,101.9,105.2L101.9,105.2z"/>
		<path class="st1" d="M112.5,107.3c-15.2,0-39.3-2.2-68.3-12.7l0.1-0.2c29,10.5,53.1,12.7,68.2,12.7h0.1c16.4,0,26-2.5,26.1-2.6
			l0.1,0.2C138.7,104.7,129.1,107.3,112.5,107.3C112.6,107.3,112.6,107.3,112.5,107.3L112.5,107.3z"/>
		<path class="st1" d="M128.7,110.7c-4.2,0-9.3-0.2-15.4-0.7c-15.4-1.2-39.9-4.9-68.9-15.4l0.1-0.2c29,10.5,53.5,14.1,68.9,15.4
			c16.7,1.4,26.6,0.2,26.7,0.2v0.2C139.8,110.2,135.8,110.7,128.7,110.7L128.7,110.7z"/>
		<path class="st1" d="M141.1,120.2c-0.4-0.1-41.3-5.4-96.8-25.5l0.1-0.2c55.4,20.1,96.3,25.5,96.7,25.5V120.2L141.1,120.2z"/>
		<path class="st1" d="M140.2,115.1c-0.2,0-10.3,0-27-2.5c-15.6-2.3-40.2-7.2-69.2-17.7l0.1-0.2c29,10.5,53.7,15.4,69.2,17.7
			c16.8,2.5,26.9,2.5,27,2.5V115.1L140.2,115.1z"/>
		<path class="st1" d="M85.8,102.7c-1.4,0-2.7,0-4.1-0.1c-12.2-0.5-24.9-3.1-37.7-7.7l0.1-0.2c29,10.5,51.8,8.4,65.8,4.8
			c15.2-3.9,23.6-10.3,23.6-10.4l0.1,0.2c-0.1,0.1-8.6,6.5-23.8,10.5C102.2,101.6,94.1,102.7,85.8,102.7z"/>
		<path class="st1" d="M140.5,125.5h-0.2c0.6-21.5-4-36.3-13.7-44c-10.6-8.4-23.6-5.1-23.8-5.1l-0.1-0.2c0.1-0.1,13.2-3.4,23.9,5.1
			C136.5,89.1,141.1,103.9,140.5,125.5z"/>
		<path class="st1" d="M140.5,125.5h-0.2c0.4-22.5-4.6-38.6-14.7-47.8c-9.9-8.9-21.2-7.8-21.3-7.8v-0.2c0.1,0,11.5-1.2,21.4,7.8
			C135.9,86.8,140.9,102.9,140.5,125.5L140.5,125.5z"/>
		<path class="st1" d="M140.5,125.5h-0.2c0.5-30.8-7.9-47.9-14.9-56.8c-7.7-9.6-15.5-12-15.6-12.1l0.1-0.2c0.1,0,8,2.4,15.7,12.1
			c4.5,5.7,8.1,12.7,10.6,20.9C139.2,99.7,140.7,111.9,140.5,125.5z"/>
		<path class="st1" d="M140.5,125.5h-0.2c0.5-30.8-7-49.6-13.2-59.9c-6.8-11.2-13.8-15.1-13.8-15.1l0.1-0.2c0.1,0.1,7.1,4,13.9,15.2
			c4,6.6,7.2,14.3,9.4,23.1C139.4,99.4,140.7,111.9,140.5,125.5z"/>
		<path class="st1" d="M140.5,125.5h-0.2c0.5-30.8-5.6-51-10.8-62.6c-5.6-12.5-11.3-17.7-11.3-17.8l0.2-0.2
			c0.1,0.1,5.8,5.3,11.4,17.9C134.9,74.3,141,94.6,140.5,125.5z"/>
		<path class="st1" d="M140.5,125.5h-0.2c0.5-30.8-4-52.8-7.9-65.7c-4.2-14-8.5-20.9-8.6-20.9l0.2-0.2c0.1,0.1,4.4,6.9,8.6,21
			C136.5,72.7,141,94.6,140.5,125.5z"/>
		<path class="st1" d="M140.5,125.5h-0.2c0.9-59.1-5.8-95.2-5.8-95.6l0.2-0.1C134.8,30.2,141.4,66.4,140.5,125.5z"/>
		<path class="st1" d="M140.9,125.8h-0.2c0.5-30.8-2.8-54.1-5.6-68.1c-3-15.2-6.2-23.2-6.3-23.3l0.2-0.1c0.1,0.1,3.2,8.1,6.3,23.3
			C138.1,71.6,141.4,94.9,140.9,125.8z"/>
		<path class="st1" d="M140.9,125.8h-0.2c0.5-30.8-8.9-46.1-16.9-53.5c-8.6-8-17.4-8.7-17.5-8.7v-0.2c0.1,0,9,0.8,17.6,8.8
			c5.1,4.8,9.1,11,11.9,18.7C139.4,100.3,141.1,112.1,140.9,125.8z"/>
		<path class="st1" d="M103.1,95.9c-0.1-0.1-3-9.9,0.1-23.5c1.8-8,5.5-15.7,10.8-22.9c6.5-9,15.7-17.2,27.2-24.5l0.1,0.2
			c-26,16.5-34.9,34.8-37.8,47.3c-3.1,13.5-0.2,23.3-0.1,23.4L103.1,95.9L103.1,95.9z"/>
		<path class="st1" d="M97.2,98.6c0-0.1-1.5-10.3,3.2-24.5c2.7-8.3,7.1-16.3,12.8-23.7c7.2-9.3,16.6-17.8,28-25.3l0.1,0.2
			c-25.8,16.8-36.4,35.8-40.7,48.8c-4.7,14.1-3.2,24.2-3.2,24.4L97.2,98.6L97.2,98.6z"/>
		<path class="st1" d="M86,101.3h-0.2c0-0.1,1.4-11.1,8.9-25.8c4.4-8.7,10-17,16.7-24.7c8.3-9.6,18.4-18.2,29.8-25.7l0.1,0.2
			c-25.8,16.8-39.5,36.5-46.4,50.1C87.4,90.2,86,101.2,86,101.3z"/>
		<path class="st1" d="M79,101.6l-0.2-0.1c0.1-0.1,3.2-11.1,12.4-26c8.6-13.7,24.2-33.6,50-50.4l0.1,0.2
			C115.5,42.2,99.9,62,91.4,75.7C82.2,90.5,79,101.5,79,101.6z"/>
		<path class="st1" d="M73,101.3l-0.2-0.1c0.1-0.1,4.7-11.1,15.4-25.8c9.9-13.6,27.1-33.5,53-50.3l0.1,0.2
			c-25.8,16.9-43.1,36.6-52.9,50.2C77.7,90.3,73,101.2,73,101.3z"/>
		<path class="st1" d="M65.5,100.4l-0.2-0.1c0.1-0.1,6.6-10.8,19.1-25.3c11.6-13.4,30.8-32.9,56.7-49.8l0.1,0.2
			c-25.8,16.9-45.1,36.4-56.7,49.8C72.1,89.6,65.6,100.3,65.5,100.4z"/>
		<path class="st1" d="M52.1,97.2L51.9,97c0.4-0.4,39.8-39.6,89.3-71.9l0.1,0.2C91.8,57.6,52.4,96.8,52.1,97.2z"/>
		<path class="st1" d="M59.4,98.6l-0.2-0.1c0.1-0.1,8.1-10.5,22.2-24.6c13-13.1,33.9-32.3,59.8-49.1l0.1,0.2
			c-25.8,16.8-46.8,35.9-59.7,49C67.5,88.1,59.4,98.4,59.4,98.6z"/>
		<path class="st1" d="M91.5,99.7c0-0.1-0.1-10.8,6.1-25.3c3.6-8.5,8.6-16.7,14.7-24.2c7.7-9.4,17.5-18.1,28.9-25.5l0.1,0.2
			c-25.8,16.9-38,36.3-43.6,49.6c-6.1,14.4-6.1,25.1-6.1,25.2H91.5L91.5,99.7z"/>
		<path class="st1" d="M112.4,90.3l-10.3-10.1l13.9-3.9L112.4,90.3z M102.5,80.3l9.8,9.6l3.4-13.2L102.5,80.3z"/>
		<path class="st1" d="M107.5,85l1.8-6.1l4.4,4.6L107.5,85z M109.4,79.3l-1.6,5.3l5.5-1.3L109.4,79.3z M77.8,217.9l-0.2-0.1
			c18.7-23.8,20.4-44,18.6-56.9c-2-14-8.4-22.3-8.5-22.4l0.2-0.1c0.1,0.1,6.5,8.5,8.6,22.5c1.2,8.2,0.6,16.6-1.8,25.2
			C91.8,196.6,86.1,207.4,77.8,217.9z"/>
		<path class="st1" d="M78.3,218.3l-0.2-0.1c19-24.4,22-45.9,21.3-59.7c-0.8-14.9-6.1-24.2-6.2-24.3l0.2-0.1
			c0.1,0.1,5.4,9.4,6.2,24.4c0.5,8.8-0.7,17.8-3.5,26.7C92.7,196.4,86.7,207.6,78.3,218.3L78.3,218.3z"/>
		<path class="st1" d="M78.3,218.3l-0.2-0.1c19-24.4,25-46.6,26.8-61c1.9-15.6-0.7-25.5-0.7-25.6l0.2-0.1c0,0.1,2.6,10.1,0.7,25.7
			c-1.1,9.2-3.6,18.5-7.2,27.6C93.3,196.3,86.7,207.6,78.3,218.3L78.3,218.3z"/>
		<path class="st1" d="M78.3,218.3l-0.2-0.1c19-24.4,26.8-46.5,30.1-60.8c3.5-15.5,2.6-25.4,2.6-25.5h0.2c0,0.1,1,10-2.6,25.5
			C105.2,171.8,97.3,194,78.3,218.3z"/>
		<path class="st1" d="M78.3,218.3l-0.2-0.1c19-24.4,28.2-46.5,32.6-60.8c4.8-15.5,5.1-25.3,5.1-25.4h0.2c0,0.1-0.3,10-5.1,25.5
			C106.5,171.8,97.3,194,78.3,218.3L78.3,218.3z"/>
		<path class="st1" d="M78.3,218.3l-0.2-0.1c19-24.4,29.6-46.3,35.4-60.5c6.1-15.3,7.8-25,7.8-25.1l0.2,0.1c0,0.1-1.7,9.8-7.8,25.1
			C108,171.9,97.3,194,78.3,218.3z"/>
		<path class="st1" d="M78.3,218.3l-0.2-0.1c36.3-46.5,52.9-83.3,53-83.7l0.2,0.1C131.2,135,114.6,171.8,78.3,218.3L78.3,218.3z"/>
		<path class="st1" d="M78.3,218.3l-0.2-0.1c19-24.4,31-46,37.7-59.9c7.3-15,10.2-24.4,10.2-24.5l0.2,0.1c0,0.1-2.9,9.5-10.2,24.5
			C109.3,172.3,97.3,194,78.3,218.3z"/>
		<path class="st1" d="M78.3,218.3l-0.2-0.1c19-24.4,23.7-46.4,24.4-60.7c0.7-15.4-3.1-25.2-3.1-25.3l0.2-0.1
			c0.1,0.1,3.9,9.9,3.1,25.4c-0.4,9.1-2.3,18.3-5.6,27.4C93.1,196.4,86.7,207.6,78.3,218.3L78.3,218.3z"/>
		<path class="st1" d="M78,157.5h-0.2c0-0.1,0.9-13.7,12.2-21.2c10.4-6.9,26-6.7,46.3,0.5l-0.1,0.2c-20.3-7.2-35.8-7.4-46.1-0.5
			C78.9,144,78,157.4,78,157.5z"/>
		<path class="st1" d="M72.3,154.1L72,154c0-0.1,2.4-11.3,14.1-18c11.9-6.8,28.8-6.5,50.1,0.8l-0.1,0.2c-21.3-7.2-38.1-7.5-50-0.8
			C74.7,142.8,72.3,153.9,72.3,154.1L72.3,154.1z"/>
		<path class="st1" d="M61.3,144.7l-0.2-0.1c0.1-0.1,4.8-6.8,16.3-11.2c6.8-2.6,14.6-3.7,23.2-3.6c10.8,0.2,22.7,2.5,35.7,7
			l-0.1,0.2c-29.2-10-48-7.3-58.6-3.3C66,138,61.3,144.7,61.3,144.7L61.3,144.7z"/>
		<path class="st1" d="M56.5,139.6l-0.2-0.2c0.1-0.1,6-5.5,18.7-8.6c7.5-1.8,15.9-2.4,24.8-1.8c11.2,0.7,23.5,3.3,36.4,7.7l-0.1,0.2
			c-29.2-10-49.3-8.7-61.1-5.9C62.5,134,56.6,139.5,56.5,139.6z"/>
		<path class="st1" d="M136.2,137c-29.2-10-50.3-10.5-62.8-9.2c-13.6,1.4-20.4,5.3-20.4,5.3l-0.1-0.2c0.1-0.1,6.9-3.9,20.5-5.3
			c12.6-1.3,33.7-0.8,62.9,9.2L136.2,137z"/>
		<path class="st1" d="M136.2,137c-29.2-10-51.5-12.5-64.9-12.8c-14.6-0.4-22.5,1.7-22.5,1.7l-0.1-0.2c0.1,0,8-2,22.6-1.7
			c13.5,0.4,35.8,2.9,65.1,12.8L136.2,137L136.2,137z"/>
		<path class="st1" d="M136.2,137c-55.9-19.1-92.3-24-92.7-24v-0.2c0.4,0.1,36.8,4.9,92.7,24L136.2,137z"/>
		<path class="st1" d="M136.6,136.7c-29.2-10-52.3-14-66.5-15.7c-15.4-1.8-24-1.2-24.1-1.2v-0.2c0.1,0,8.7-0.6,24.1,1.2
			c14.2,1.7,37.3,5.7,66.5,15.7L136.6,136.7z"/>
		<path class="st1" d="M66.7,150.1l-0.2-0.1c0.1-0.1,3.5-8.3,13.8-14c6.1-3.4,13.3-5.2,21.4-5.6c10.2-0.4,21.9,1.6,34.8,6.1
			l-0.1,0.2c-29.2-10-46.6-5.8-56.1-0.5C70.2,141.9,66.8,150.1,66.7,150.1L66.7,150.1z"/>
		<path class="st1" d="M96.6,163.2c-0.1,0-10.3-0.2-22.3-7.4c-7-4.2-13.2-10-18.4-17.3c-6.5-9-11.5-20.3-14.9-33.5l0.2-0.1
			c7.6,29.8,22.3,44,33.2,50.6c11.9,7.2,22,7.4,22.2,7.4V163.2L96.6,163.2z"/>
		<path class="st1" d="M97.2,169.7c-0.1,0-10.3-1.8-22.3-10.6c-7-5.2-13.3-11.8-18.6-19.5c-6.7-9.7-11.8-21.3-15.3-34.5l0.2-0.1
			c8,29.8,22.8,45.7,33.9,53.8c11.9,8.8,22.1,10.6,22.2,10.6L97.2,169.7L97.2,169.7z"/>
		<path class="st1" d="M96.3,181.4c-0.1-0.1-10-4.8-21.8-16.5c-6.9-6.9-13-14.8-18.2-23.5c-6.5-10.9-11.6-23.1-15.2-36.3l0.2-0.1
			c8,29.8,22.6,48.9,33.4,59.7c11.7,11.7,21.6,16.4,21.7,16.4L96.3,181.4z"/>
		<path class="st1" d="M94.4,188.1c-0.1-0.1-9.6-6.5-20.9-19.8C63.1,155.9,49,134.9,41,105.1l0.2-0.1c8,29.8,22.1,50.7,32.5,63
			c11.2,13.4,20.7,19.7,20.8,19.8L94.4,188.1L94.4,188.1z"/>
		<path class="st1" d="M92.3,193.7c-0.1-0.1-9-7.9-19.8-22.6c-9.9-13.6-23.4-36.1-31.4-66l0.2-0.1c8,29.8,21.5,52.3,31.4,65.9
			c10.7,14.7,19.7,22.5,19.7,22.6L92.3,193.7z"/>
		<path class="st1" d="M89.1,200.5c-0.1-0.1-8.2-9.6-18.2-26c-9.2-15.2-21.8-39.6-29.9-69.4l0.2-0.1c8,29.8,20.7,54.1,29.8,69.3
			c9.9,16.4,18.1,25.9,18.1,26L89.1,200.5L89.1,200.5z"/>
		<path class="st1" d="M81.8,212.3c-0.2-0.5-25.4-50.1-40.8-107.1l0.2-0.1c15.4,57,40.5,106.6,40.8,107.1L81.8,212.3z"/>
		<path class="st1" d="M85.4,205.7c-0.1-0.1-7.4-11-16.6-28.8c-8.4-16.4-20.2-42.2-28.2-72l0.2-0.1c8,29.8,19.8,55.6,28.2,72
			c9.2,17.8,16.5,28.6,16.5,28.7L85.4,205.7z"/>
		<path class="st1" d="M96.6,175.4c-0.1-0.1-10.2-3.3-22.2-13.5c-7-6.1-13.2-13.2-18.5-21.5C49.3,130,44.1,118.1,40.5,105l0.2-0.1
			c8,29.8,22.8,47.3,33.7,56.7c11.9,10.2,22,13.5,22.1,13.5L96.6,175.4z"/>
		<path class="st1" d="M81.3,159.3l0.6-14.4l12.2,7.7L81.3,159.3z M82.1,145.3L81.6,159l12.1-6.4L82.1,145.3z"/>
		<path class="st1" d="M87.5,155.7l-5.3-3.6l5.8-2.7L87.5,155.7L87.5,155.7z M82.7,152.1l4.6,3.1l0.4-5.6L82.7,152.1L82.7,152.1z"/>
		<g>
			<path class="st2" d="M400.5,60.7c11.6,7.2,20.8,17.2,27.5,30c6.6,12.8,9.9,27.2,9.9,43.3v6.6c0,16.1-3.3,30.5-9.9,43.3
				c-6.6,12.8-15.6,22.8-27.2,29.9s-24.5,10.8-39,10.8h-55.1V49.9h54C375.6,49.8,388.8,53.5,400.5,60.7L400.5,60.7z M394.6,133.7
				c0-15.7-2.9-27.5-8.6-35.6c-5.8-8-14.1-12.1-25.1-12.1h-11.8v102.3h12.8c10.5,0,18.6-4,24.2-12c5.6-8,8.5-20,8.5-35.9V133.7z
				 M484.7,141.1c-8.1-4.7-14.7-10.6-19.9-17.9c-5.2-7.2-7.8-16-7.8-26.3c0-10.1,2.8-18.8,8.3-26.3c5.5-7.4,13.2-13.1,23.1-17.2
				c9.8-4,20.9-6,33.2-6c12,0,22.7,2.1,32.1,6.5s16.7,10.6,22,18.8c5.3,8.2,8,18,8,29.4h-42.1c0-5.9-1.8-10.6-5.4-14.1
				c-3.6-3.5-8.8-5.2-15.6-5.2c-4.5,0-8.4,0.7-11.6,2c-3.3,1.4-5.7,3.1-7.4,5.3c-1.7,2.2-2.5,4.6-2.5,7.2c0,4.4,2.4,8.1,7.2,11.3
				c4.8,3.1,12.1,6.4,22,9.9c18.2,6.2,32,14,41.3,23.3c9.3,9.3,14,21.1,14,35.5c0,10.6-2.6,19.5-7.6,27
				c-5.1,7.4-12.2,13.1-21.4,16.9c-9.2,3.9-20.1,5.8-32.5,5.8c-12.2,0-23.5-2.1-34.2-6.4c-10.6-4.3-19.3-11-25.9-20.1
				c-6.7-9.1-10-20.6-10-34.3h42.5c0,6.5,1,11.6,3,15.3c2,3.7,5,6.4,9,8c4,1.5,9.2,2.3,15.5,2.3c6.6,0,11.4-1.4,14.6-4.2
				c3.1-2.7,4.7-6.1,4.7-10.2c0-3.4-0.7-6.4-2-8.7c-1.4-2.4-4-4.7-8-7c-4-2.3-9.9-4.9-17.7-7.7C502.4,150.1,492.8,145.8,484.7,141.1
				L484.7,141.1z M728.9,197.2c-5.8,9.5-13.8,16.8-24.1,22c-10.3,5.2-22.2,7.7-35.6,7.7c-14.8,0-27.5-3.4-38.1-10.3
				c-10.6-6.9-18.7-16.8-24.2-29.7c-5.5-12.9-8.3-28.3-8.3-46v-7.3c0-17.6,2.9-32.9,8.7-45.9c5.8-13,14-23,24.5-29.9
				s22.8-10.5,36.7-10.5c14.2,0,26.4,2.7,36.6,8.1c10.2,5.5,18.1,13,23.8,22.6c5.6,9.6,8.9,20.7,9.9,33.3h-42.1
				c-0.1-9.4-2.3-16.3-6.6-20.7c-4.3-4.3-11.5-6.5-21.5-6.5c-6.3,0-11.3,1.5-15.2,4.6c-3.9,3.1-6.7,8.2-8.7,15.3
				c-1.9,7.1-2.9,16.9-2.9,29.2v7.5c0,12.8,0.9,22.7,2.7,29.8c1.8,7,4.6,12,8.6,14.9c3.9,2.9,9.4,4.4,16.5,4.4c8.7,0,15.3-2,20-6.1
				c4.6-4.1,7-10.6,7-19.5h42.1C737.9,176.8,734.8,187.7,728.9,197.2L728.9,197.2z M756.2,124.2c4.6-10,11.3-17.8,20.3-23.5
				c8.9-5.6,19.7-8.4,32.3-8.4c12.8,0,23.6,2.8,32.6,8.4c9,5.6,15.7,13.4,20.3,23.4s6.8,21.4,6.8,34.2v2.5c0,12.9-2.3,24.3-6.8,34.2
				c-4.6,9.9-11.3,17.7-20.2,23.4c-8.9,5.6-19.7,8.4-32.4,8.4c-12.7,0-23.5-2.8-32.5-8.4s-15.7-13.4-20.3-23.4
				c-4.6-9.9-6.8-21.3-6.8-34.2v-2.5C749.4,145.6,751.6,134.2,756.2,124.2L756.2,124.2z M794.1,184.1c2.7,5.4,7.8,8.1,15,8.1
				c7,0,11.9-2.7,14.7-8.1c2.8-5.5,4.2-13.1,4.2-23.1v-2.5c0-9.7-1.4-17.4-4.2-23c-2.8-5.6-7.8-8.3-15-8.3c-7,0-11.9,2.8-14.7,8.4
				c-2.8,5.6-4.2,13.2-4.2,22.9v2.5C789.9,170.9,791.3,178.7,794.1,184.1L794.1,184.1z M985.6,104.3c6.7,8,10.1,21.2,10.1,39.6v80.6
				h-40.8v-80.7c0-4.6-0.6-8.2-1.8-10.7c-1.2-2.5-3-4.2-5.3-5c-2.3-0.8-5.3-1.2-9.2-1.2c-6.7,0-11.6,2.4-14.7,7.2v90.4h-40.7V94.7
				h38.1l1.4,15c4.2-5.7,9.2-10,15.1-13c5.9-3,12.5-4.5,19.7-4.5C969.5,92.3,978.9,96.3,985.6,104.3z M1064.2,94.7h23.6v31.1h-23.6
				v98.8h-40.8v-98.8h-17.6V94.7h17.6V85c0-10.1,2-18.7,5.8-25.7c3.9-7.1,9.4-12.4,16.6-16.1c7.2-3.6,15.7-5.5,25.5-5.5
				c5.3,0,11.5,0.9,18.5,2.6l0.4,33c-2.7-0.7-5.7-1.1-9.2-1.1c-5.3,0-9.5,1.1-12.4,3.3c-2.9,2.1-4.3,5.3-4.3,9.5L1064.2,94.7
				L1064.2,94.7z"/>
		</g>
		<g>
			<path class="st0" d="M1169.6,180.2v43.6h-10.4l-20.5-19.8c-1.8-1.7-3.5-3-5-4.1c-1.5-1-2.8-1.8-4-2.3c-1.2-0.5-2.3-0.7-3.2-0.7
				c-2.5,0-4.3,0.5-5.5,1.6s-1.8,2.6-1.8,4.5c0,1.4,0.4,2.5,1.2,3.5s1.9,1.8,3.2,2.3c1.3,0.6,2.8,0.8,4.5,0.8v15.3
				c-3.9,0-7.4-0.9-10.6-2.8c-3.2-1.9-5.8-4.5-7.7-7.9c-1.9-3.4-2.9-7.3-2.9-11.7c0-7,1.6-12.2,4.8-15.8c3.2-3.6,7.7-5.3,13.4-5.3
				c3,0,5.8,0.6,8.3,1.8c2.6,1.2,5.2,2.9,7.9,5.1c2.7,2.2,5.6,4.9,8.9,8.1l7.1,7.1v-23.5H1169.6z"/>
			<path class="st0" d="M1144.5,129.7c5.9,0,10.7,0.9,14.5,2.8c3.8,1.9,6.7,4.4,8.6,7.7c1.9,3.3,2.8,7,2.8,11.3
				c0,4.3-0.9,8.1-2.8,11.4c-1.9,3.3-4.7,5.9-8.6,7.7c-3.8,1.9-8.7,2.8-14.5,2.8h-11.6c-5.9,0-10.7-0.9-14.5-2.8
				c-3.8-1.8-6.7-4.4-8.6-7.7c-1.9-3.3-2.8-7.1-2.8-11.3c0-4.2,0.9-8,2.8-11.3c1.9-3.3,4.8-5.9,8.6-7.7c3.8-1.9,8.7-2.8,14.5-2.8
				H1144.5z M1130.9,145c-3,0-5.3,0.3-7,0.8s-2.9,1.3-3.6,2.3c-0.7,1-1.1,2.1-1.1,3.4s0.4,2.5,1.1,3.5c0.7,1,1.9,1.7,3.6,2.3
				s4,0.8,7,0.8h15.5c3,0,5.4-0.3,7.1-0.8s2.9-1.3,3.6-2.3c0.7-1,1-2.1,1-3.5c0-1.3-0.3-2.4-1-3.4s-1.9-1.7-3.6-2.2
				c-1.7-0.5-4.1-0.8-7.1-0.8H1130.9z"/>
			<path class="st0" d="M1169.6,79v43.6h-10.4l-20.5-19.8c-1.8-1.7-3.5-3-5-4.1c-1.5-1-2.8-1.8-4-2.3c-1.2-0.5-2.3-0.7-3.2-0.7
				c-2.5,0-4.3,0.5-5.5,1.6s-1.8,2.6-1.8,4.5c0,1.4,0.4,2.5,1.2,3.5s1.9,1.8,3.2,2.3c1.3,0.6,2.8,0.8,4.5,0.8v15.3
				c-3.9,0-7.4-0.9-10.6-2.8c-3.2-1.9-5.8-4.5-7.7-7.9c-1.9-3.4-2.9-7.3-2.9-11.7c0-7,1.6-12.2,4.8-15.8c3.2-3.6,7.7-5.3,13.4-5.3
				c3,0,5.8,0.6,8.3,1.8c2.6,1.2,5.2,2.9,7.9,5.1c2.7,2.2,5.6,4.9,8.9,8.1l7.1,7.1V79H1169.6z"/>
			<path class="st0" d="M1169.6,39.4v15.3h-43.8l3.7,13.8h-12l-9.7-27.7v-1.4H1169.6z"/>
		</g>
	</g>
</g>
</svg>
