<?xml version="1.0" encoding="utf-8"?>
<!-- Generator: Adobe Illustrator 22.0.1, SVG Export Plug-In . SVG Version: 6.00 Build 0)  -->
<svg version="1.1" id="Layer_1" xmlns="http://www.w3.org/2000/svg" xmlns:xlink="http://www.w3.org/1999/xlink" x="0px" y="0px"
	 viewBox="0 0 1760.4 336.3" style="enable-background:new 0 0 1760.4 336.3;" xml:space="preserve">
<style type="text/css">
	.st0{fill:#FF8308;}
	.st1{fill:#D66407;}
	.st2{fill:#353535;}
</style>
<path class="st0" d="M191.7,173.5L191,0l165.6,119.3L191.7,173.5z M172,172.9L6.8,120L171.6,0.6L172,172.9z M165,189.1L65.7,329.3
	L1,136.3L165,189.1z M180.7,196l102.6,140l-203.5-0.3L180.7,196z M198.9,190.4L363.7,136l-63.2,193.5L198.9,190.4z"/>
<path class="st1" d="M281.5,335.8c-28.5-43.2-60.3-56.9-82-60.8c-23.5-4.2-40.5,1.8-40.7,1.9l-0.1-0.4c0.2-0.1,17.3-6.2,40.9-1.9
	c13.9,2.5,27.2,8,39.7,16.4c15.6,10.5,29.9,25.5,42.5,44.6L281.5,335.8L281.5,335.8z"/>
<path class="st1" d="M281.5,335.8c-29.1-43-62-59.7-84.4-66.2c-24.3-7-41.9-3.8-42.1-3.8l-0.1-0.4c0.2,0,17.9-3.2,42.3,3.8
	c14.3,4.1,28.1,10.9,41,20.2c16.1,11.6,30.8,27.1,43.7,46.1L281.5,335.8z"/>
<path class="st1" d="M281.5,335.8c-29.1-43-61.6-64.9-83.7-75.7c-24-11.7-41.2-13.2-41.4-13.3v-0.4c0.2,0,17.5,1.6,41.5,13.3
	c14.1,6.9,27.7,15.9,40.5,26.7c15.9,13.6,30.5,30.1,43.4,49.1L281.5,335.8z"/>
<path class="st1" d="M281.5,335.8c-29.1-43-60.6-67.7-81.8-80.8c-23-14.2-39.4-18.4-39.5-18.4l0.1-0.4c0.2,0,16.5,4.2,39.6,18.4
	c21.3,13.2,52.8,37.9,81.9,80.9L281.5,335.8z"/>
<path class="st1" d="M281.5,335.8c-29.1-43-59.8-69.8-80.4-84.8c-22.3-16.2-37.9-22.3-38.1-22.4l0.1-0.4c0.2,0.1,15.8,6.2,38.2,22.4
	c20.6,15,51.3,41.9,80.5,84.9L281.5,335.8z"/>
<path class="st1" d="M281.5,335.8c-29.1-43-58.8-72.2-78.5-89.1c-21.4-18.3-36-26.6-36.2-26.6l0.2-0.3c0.1,0.1,14.8,8.3,36.2,26.7
	c19.7,16.9,49.4,46.1,78.6,89.1L281.5,335.8z"/>
<path class="st1" d="M281.5,335.8c-55.5-82.3-105.9-130-106.4-130.5l0.3-0.3c0.5,0.5,50.9,48.2,106.5,130.5L281.5,335.8L281.5,335.8
	z"/>
<path class="st1" d="M282.3,335.8c-29.1-43-57.8-74.1-76.7-92.6c-20.5-20-34.2-30-34.3-30.1l0.2-0.3c0.1,0.1,13.9,10.1,34.4,30.2
	c18.9,18.5,47.5,49.6,76.7,92.6L282.3,335.8z"/>
<path class="st1" d="M282.3,335.8c-29.1-43-62.2-62.7-84.8-71.6c-24.5-9.7-42.4-9.2-42.5-9.2v-0.4c0.2,0,18.1-0.5,42.7,9.3
	c14.4,5.7,28.3,13.8,41.2,24c16.2,12.7,30.9,28.8,43.8,47.8L282.3,335.8L282.3,335.8z"/>
<path class="st1" d="M184.1,302.8c-0.2-0.1-21.4-8.5-27.6-30.6c-5.7-20.2,2.7-45.1,24.9-73.9l0.3,0.2
	c-22.1,28.7-30.4,53.4-24.8,73.5c6.1,21.9,27.2,30.3,27.4,30.4L184.1,302.8L184.1,302.8z"/>
<path class="st1" d="M175.6,310.1c-0.2-0.1-16.9-9.8-21.5-31.9c-4.7-22.6,4.5-49.4,27.3-79.9l0.3,0.2
	c-22.7,30.3-31.9,57.1-27.2,79.6c4.6,21.9,21.1,31.5,21.3,31.6L175.6,310.1L175.6,310.1z"/>
<path class="st1" d="M154.8,322.7c-0.1-0.1-8.5-11.2-9.4-32c-0.5-12.2,1.6-25.3,6.3-39c5.9-17.1,15.9-35,29.6-53.4l0.3,0.2
	c-31.1,41.5-36.7,73-35.9,92.2c0.9,20.7,9.2,31.7,9.3,31.8L154.8,322.7L154.8,322.7z"/>
<path class="st1" d="M144,327.6c-0.1-0.1-5.7-12.4-4-34.4c1-12.9,4.4-26.6,10-40.7c7-17.6,17.5-35.8,31.3-54.2l0.3,0.2
	c-31.1,41.6-39.6,74.4-41.3,94.6c-1.8,21.9,3.9,34.1,3.9,34.3L144,327.6z"/>
<path class="st1" d="M131.9,329.9c0-0.1-2.7-13,2.1-35.6c4.4-20.8,16.2-54.4,47.4-96l0.3,0.2c-31.1,41.5-42.9,75-47.3,95.8
	c-4.8,22.5-2.1,35.4-2.1,35.5L131.9,329.9z"/>
<path class="st1" d="M118.3,332.8h-0.4c0-0.1,0.9-13.8,9.1-37.1c7.6-21.5,23.2-55.8,54.3-97.4l0.3,0.2
	c-31.1,41.6-46.7,75.9-54.3,97.3C119.2,319.1,118.3,332.7,118.3,332.8z"/>
<path class="st1" d="M95,334.5l-0.3-0.2c0.3-0.6,27.1-56.4,86.7-136l0.3,0.2C122,278.1,95.3,333.9,95,334.5z"/>
<path class="st1" d="M107.2,334l-0.4-0.1c0-0.1,3.6-14.2,14.5-38c10.1-21.9,28.6-56.7,59.7-98.3l0.3,0.2
	c-31.1,41.6-49.7,76.4-59.7,98.3C110.8,319.8,107.3,333.8,107.2,334L107.2,334z"/>
<path class="st1" d="M166.4,316.9c-0.1-0.1-11.5-9.9-15.3-29.4c-2.2-11.5-1.5-24,2.3-37.2c4.7-16.5,14-34.2,27.8-52.6l0.3,0.2
	c-31.1,41.5-33.5,71.6-30,89.6c3.8,19.4,15.1,29.1,15.2,29.2L166.4,316.9z"/>
<path class="st1" d="M94.7,334.7c-4.4,0-8.9-0.1-13.5-0.4v-0.4c51.6,3.3,81.9-12.8,98.3-26.9c17.7-15.3,23.2-31.5,23.3-31.7l0.4,0.1
	c-0.1,0.2-5.6,16.5-23.4,31.8c-10.4,9-23,15.9-37.2,20.5C128.2,332.4,112.2,334.7,94.7,334.7z"/>
<path class="st1" d="M92.8,334.6c-3.8,0-7.7-0.1-11.6-0.3v-0.4c51.8,2.6,85-12.8,103.7-26.2c20.3-14.5,28.4-29.8,28.5-30l0.3,0.2
	c-0.1,0.2-8.2,15.6-28.6,30.1c-11.9,8.6-25.7,15.2-40.9,19.6C128.6,332.3,111.3,334.6,92.8,334.6L92.8,334.6z"/>
<path class="st1" d="M94.4,334.6c-4.4,0-8.8-0.1-13.2-0.3v-0.4c51.9,2.6,90-10.8,112.9-22.4c24.8-12.7,37.5-26.1,37.6-26.2l0.3,0.3
	c-0.1,0.1-12.9,13.6-37.7,26.3c-14.6,7.5-30.4,13.2-47.1,17C130.3,332.7,112.6,334.6,94.4,334.6z"/>
<path class="st1" d="M96,334.7c-4.8,0-9.8-0.1-14.8-0.4v-0.4c51.9,2.6,92.7-9,117.8-19.2c27.2-11.1,42.4-22.9,42.5-23l0.2,0.3
	c-0.1,0.1-15.3,12-42.6,23C176.4,324.3,140.9,334.7,96,334.7z"/>
<path class="st1" d="M98.2,334.7c-5.6,0-11.2-0.1-17-0.4v-0.4c51.9,2.6,94.8-7.3,121.8-16c29.2-9.5,46.3-19.7,46.5-19.8l0.2,0.3
	c-0.2,0.1-17.3,10.4-46.5,19.9C179.1,326,142.5,334.7,98.2,334.7z"/>
<path class="st1" d="M102.5,334.8c-7,0-14.1-0.2-21.3-0.5v-0.4c51.9,2.6,97.4-4.9,126.4-11.7c31.4-7.4,50.9-15.4,51.1-15.5l0.1,0.3
	c-0.2,0.1-19.6,8.2-51.1,15.5C182.7,328.4,145.5,334.8,102.5,334.8L102.5,334.8z"/>
<path class="st1" d="M124.6,335.4c-14.1,0-28.7-0.3-43.4-1.1v-0.4c99.3,5,191.7-9.4,192.6-9.5l0.1,0.4
	C273.1,324.9,205.9,335.4,124.6,335.4L124.6,335.4z"/>
<path class="st1" d="M108.4,335.6c-9,0-18.3-0.2-27.7-0.7v-0.4c51.9,2.6,99.3-2.8,129.9-7.7c33.2-5.4,54.4-11.5,54.6-11.5l0.1,0.4
	c-0.2,0.1-21.4,6.2-54.6,11.5C185.6,331.3,149.2,335.6,108.4,335.6L108.4,335.6z"/>
<path class="st1" d="M93,335.2c-4.1,0-8.1-0.1-12.3-0.3v-0.4c51.8,2.6,87.6-11.9,108.4-24.5c22.6-13.7,33-28.2,33.1-28.3l0.3,0.2
	c-0.1,0.1-10.6,14.7-33.2,28.4c-13.3,8.1-28.1,14.3-44,18.4C128.9,333.1,111.4,335.2,93,335.2L93,335.2z"/>
<path class="st1" d="M188.9,298l-22.8-8.4l18.7-15.6L188.9,298z M166.8,289.5l21.6,8l-3.9-22.7L166.8,289.5L166.8,289.5z"/>
<path class="st1" d="M177.8,292.7l-1.4-10.6l9.9,4.1L177.8,292.7z M176.8,282.7l1.2,9.3l7.5-5.8L176.8,282.7z M268.6,236.2
	c0-0.2-0.5-18.3,10.8-39.5c6.7-12.4,16-23.4,27.9-32.7c14.8-11.6,33.5-20.6,55.6-26.7l0.1,0.4c-49.9,13.7-72.8,39.8-83.2,59.2
	C268.5,218,269,236,269,236.2H268.6z"/>
<path class="st1" d="M257.3,236.4h-0.4c0-0.2,2.5-18,16.7-39c8.4-12.3,19.1-23.4,31.9-32.7c16-11.7,35.3-20.9,57.4-27.3l0.1,0.4
	c-49.9,14.4-75.9,40.5-89,59.8C259.8,218.5,257.3,236.2,257.3,236.4z"/>
<path class="st1" d="M239.7,229.2l-0.3-0.1c0.1-0.2,6.9-16.2,25.5-35.4c10.9-11.3,23.7-21.5,37.9-30.2c17.8-11,38-19.8,60.1-26.1
	l0.1,0.4c-49.9,14.4-80.7,38.6-97.8,56.3C246.6,213.1,239.8,229.1,239.7,229.2L239.7,229.2z"/>
<path class="st1" d="M231.2,222.4l-0.3-0.2c0.1-0.1,9.1-14.4,29.8-32C279.8,174,313,151.7,363,137.3l0.1,0.4
	c-49.9,14.4-83.1,36.7-102.1,52.8C240.2,208,231.3,222.3,231.2,222.4L231.2,222.4z"/>
<path class="st1" d="M224.4,217.3l-0.3-0.2c0.1-0.1,10.8-13.1,33.1-29.4c20.6-15,55.7-35.9,105.6-50.3l0.1,0.4
	c-49.9,14.4-84.9,35.3-105.5,50.3C235.2,204.2,224.5,217.2,224.4,217.3z"/>
<path class="st1" d="M217.5,211l-0.3-0.3c0.1-0.1,12.5-11.5,36.6-26.2c22.2-13.5,59.1-32.7,109.1-47.2l0.1,0.4
	c-49.9,14.4-86.8,33.6-109,47.1C230,199.5,217.6,210.9,217.5,211z"/>
<path class="st1" d="M206,198.6l-0.2-0.3c0.6-0.3,61.6-33.5,157.1-60.9l0.1,0.4C267.6,165.1,206.6,198.2,206,198.6L206,198.6z"/>
<path class="st1" d="M212.3,204.6l-0.2-0.3c0.1-0.1,13.9-10.1,39.3-23.4c23.4-12.3,61.9-29.9,111.8-44.3l0.1,0.4
	c-49.9,14.4-88.3,32.1-111.7,44.3C226.1,194.5,212.4,204.5,212.3,204.6L212.3,204.6z"/>
<path class="st1" d="M247,233.1l-0.4-0.1c0-0.2,5.1-17.4,22-37.7c9.9-12,21.8-22.7,35.5-31.8c17.1-11.4,36.9-20.5,59-26.9l0.1,0.4
	c-49.9,14.4-78.8,39.8-94.3,58.5C252.1,215.8,247,232.9,247,233.1L247,233.1z"/>
<path class="st1" d="M265.6,237h-1.8c-21-0.9-42.1-16.5-62.6-46.5l0.3-0.2c20.4,29.9,41.4,45.5,62.3,46.3
	c22.7,1,37.2-16.5,37.3-16.6l0.3,0.2C301.3,220.4,287.5,237,265.6,237z"/>
<path class="st1" d="M274.4,241.4c-1.8,0-3.7-0.1-5.6-0.3c-22.9-2.5-45.6-19.5-67.5-50.6l0.3-0.2c21.8,31,44.5,48,67.3,50.5
	c22.2,2.4,36.5-10.3,36.7-10.5l0.3,0.3C305.6,230.7,293.6,241.4,274.4,241.4L274.4,241.4z"/>
<path class="st1" d="M297.5,256c-5.3,0-11.9-0.7-19.5-2.8c-11.8-3.3-23.6-9.3-35.1-18c-14.4-10.9-28.4-25.9-41.6-44.7l0.3-0.2
	c29.9,42.4,58.1,57.4,76.5,62.6c19.9,5.6,33,1,33.1,1l0.1,0.4C311.3,254.2,306.2,256,297.5,256L297.5,256z"/>
<path class="st1" d="M309.6,266.1c-5.1,0-16.2-0.9-31-7c-12-5-23.9-12.4-35.6-22.1c-14.5-12.1-28.6-27.7-41.8-46.5l0.3-0.2
	c29.9,42.4,58.5,60.7,77.2,68.5c20.3,8.5,33.7,6.9,33.8,6.9v0.4C312.6,266,311.6,266.1,309.6,266.1z"/>
<path class="st1" d="M311.1,278.2c-0.1,0-13.2-1.5-33.2-13c-18.4-10.6-46.7-32.2-76.7-74.7l0.3-0.2c29.9,42.5,58.1,64,76.5,74.6
	c19.9,11.5,33,12.9,33.1,13V278.2z"/>
<path class="st1" d="M309.6,292.4c-0.1,0-12.8-5.1-32.4-20.1c-18.1-13.9-45.9-39.3-75.9-81.8l0.3-0.2c29.9,42.5,57.7,67.9,75.8,81.7
	c19.6,15,32.2,20,32.4,20.1L309.6,292.4z"/>
<path class="st1" d="M303.8,315c-0.4-0.4-45.3-43.2-102.6-124.5l0.3-0.2c57.3,81.3,102.1,124,102.5,124.4L303.8,315z"/>
<path class="st1" d="M307.2,303.2c-0.1-0.1-12.4-7.8-31.6-25.5c-17.7-16.3-45.1-44.7-75.1-87.2l0.3-0.2c29.9,42.5,57.3,70.8,75,87.2
	c19.2,17.7,31.4,25.4,31.6,25.5L307.2,303.2L307.2,303.2z"/>
<path class="st1" d="M284.2,247.3c-2.4,0-4.9-0.1-7.6-0.5c-11.6-1.4-23.3-6-34.7-13.7c-14.3-9.5-28.2-23.9-41.5-42.7l0.3-0.2
	c29.9,42.4,57.8,54,75.9,56.2c19.6,2.4,32.4-5.3,32.5-5.4l0.2,0.3C309.3,241.5,299.6,247.3,284.2,247.3L284.2,247.3z"/>
<path class="st1" d="M299.6,327.8l-0.4-0.1c19.1-48.1,13.2-81.9,4.8-101.8c-9-21.5-22.8-31.8-22.9-31.9l0.2-0.3
	c0.1,0.1,14,10.5,23,32.1c5.3,12.7,8,26.7,8,41.7C312.4,286.2,308.1,306.5,299.6,327.8z"/>
<path class="st1" d="M299.6,327.8l-0.4-0.1c18.5-48.5,14.1-84.8,7.1-106.8c-7.5-23.8-19.6-36.2-19.7-36.3l0.3-0.3
	c0.1,0.1,12.2,12.6,19.8,36.5c4.4,14,6.5,29.1,6,44.9C312.3,285.4,307.8,306.3,299.6,327.8L299.6,327.8z"/>
<path class="st1" d="M299.6,327.8l-0.4-0.1c18.5-48.5,17.6-88.9,13.5-114.3c-4.4-27.5-13.3-43.7-13.3-43.9l0.3-0.2
	c0.1,0.2,9,16.4,13.4,44c2.6,16.2,3.1,33,1.6,50.1C312.9,284.7,307.8,306.3,299.6,327.8L299.6,327.8z"/>
<path class="st1" d="M299.6,327.8l-0.4-0.1c18.5-48.5,20.1-90.9,18.2-118c-2.1-29.3-8.7-47.3-8.7-47.5l0.4-0.1
	c0.1,0.2,6.6,18.3,8.7,47.6C319.8,236.7,318.2,279.2,299.6,327.8z"/>
<path class="st1" d="M299.6,327.8l-0.4-0.1c18.5-48.5,22.4-92.5,22.4-120.8c0-30.7-4.5-50.1-4.5-50.3l0.4-0.1
	c0,0.2,4.5,19.7,4.5,50.4C322.1,235.2,318.2,279.2,299.6,327.8L299.6,327.8z"/>
<path class="st1" d="M299.6,327.8l-0.4-0.1c18.5-48.5,25.4-94.1,27.9-123.8c2.7-32.2,1-53.2,1-53.4h0.4c0,0.2,1.7,21.2-1,53.4
	C325.1,233.6,318.2,279.2,299.6,327.8L299.6,327.8z"/>
<path class="st1" d="M299.6,327.8l-0.4-0.1c35.5-92.9,50.3-185.2,50.5-186.2l0.4,0.1C350,142.5,335.1,234.9,299.6,327.8z"/>
<path class="st1" d="M300.1,328.4l-0.4-0.1c18.5-48.5,28.1-95.3,32.8-125.9c5.1-33.2,5.9-55.3,5.9-55.5h0.4c0,0.2-0.8,22.3-5.9,55.5
	C328.2,233.1,318.6,279.9,300.1,328.4z"/>
<path class="st1" d="M300.1,328.4l-0.4-0.1c18.5-48.5,15.8-86.9,10.2-110.7c-6-25.7-16.6-40.1-16.7-40.3l0.3-0.2
	c0.1,0.1,10.7,14.6,16.8,40.4c3.6,15.1,4.9,31.1,3.9,47.6C313,285.7,308.3,307,300.1,328.4L300.1,328.4z"/>
<path class="st1" d="M283.4,233.2l-9-22.6l24.1,3.5L283.4,233.2z M275,211.1l8.5,21.4l14.3-18.1L275,211.1L275,211.1z"/>
<path class="st1" d="M289.9,223.1l-10.6-1.9l7-8.2L289.9,223.1L289.9,223.1z M280.1,220.9l9.3,1.7l-3.2-8.9L280.1,220.9L280.1,220.9
	z M256.8,121.3c-0.2,0-17.6-5.2-34.2-22.5c-9.8-10.2-17.3-22.5-22.5-36.6c-6.5-17.7-9.2-38.2-8.2-61.1h0.4
	c-2.4,51.7,15.3,81.5,30.6,97.4c16.5,17.2,33.8,22.3,34,22.4L256.8,121.3z"/>
<path class="st1" d="M253.4,132.5c-0.2-0.1-16.4-7.9-32-28c-9.2-11.8-16.3-25.4-21.3-40.4c-6.2-18.8-9-40-8.2-63h0.4
	c-1.7,51.9,15,84.7,29.4,103.2c15.5,20,31.7,27.8,31.8,27.9L253.4,132.5L253.4,132.5z"/>
<path class="st1" d="M241.1,147c-0.1-0.1-13.3-11.6-25.8-35.2c-7.4-13.9-13.1-29.1-17-45.4c-4.9-20.3-7-42.3-6.3-65.2h0.4
	c-1.7,51.9,11.7,88.7,23.3,110.4c12.5,23.5,25.6,35,25.7,35.1L241.1,147L241.1,147z"/>
<path class="st1" d="M231.9,153c-0.1-0.1-10.9-13.1-21.2-38.2C201.2,91.7,190.3,53.1,192,1.2h0.4c-1.7,51.9,9.2,90.3,18.7,113.4
	c10.3,25,21.1,38,21.2,38.1L231.9,153z"/>
<path class="st1" d="M224.9,157.8c-0.1-0.1-9.2-14.3-17.7-40.6c-7.9-24.2-16.9-64-15.2-116h0.4c-1.7,51.9,7.3,91.7,15.2,115.9
	c8.5,26.2,17.6,40.4,17.7,40.5L224.9,157.8z"/>
<path class="st1" d="M216.8,162.3c-0.1-0.2-7.1-15.5-13.6-42.9c-6-25.3-12.9-66.3-11.2-118.3h0.4c-1.7,51.9,5.1,92.9,11.2,118.2
	c6.5,27.4,13.5,42.7,13.6,42.8L216.8,162.3L216.8,162.3z"/>
<path class="st1" d="M201.4,169.3c-0.1-0.7-12.8-68.9-9.4-168.2h0.4c-3.4,99.2,9.3,167.4,9.4,168.1L201.4,169.3L201.4,169.3z"/>
<path class="st1" d="M209,165.3c-0.1-0.2-5.3-16.3-10.1-44.6c-4.4-26.1-9.3-68.1-7.6-120h0.4c-3.2,99.4,17.5,163.8,17.7,164.5
	L209,165.3L209,165.3z"/>
<path class="st1" d="M247,141.3c-0.1-0.1-14.9-10.3-29.1-32.6c-8.3-13.1-14.8-27.8-19.3-43.6c-5.6-19.8-8.1-41.5-7.3-64.4h0.4
	C190,52.6,205.2,88,218.2,108.5c14.1,22.3,28.8,32.4,29,32.5L247,141.3L247,141.3z"/>
<path class="st1" d="M192.6,171.3l-0.1-0.4c34.7-10.2,56-25.3,63.3-44.9c7.9-21.3-4.2-40.5-4.3-40.6l0.3-0.2
	c0.1,0.2,12.3,19.5,4.3,41C248.8,145.9,227.4,161.1,192.6,171.3L192.6,171.3z"/>
<path class="st1" d="M192.6,171.3l-0.1-0.4c36.2-11.2,59.4-27.5,68.8-48.4c9.2-20.4,1.5-37.9,1.4-38.1l0.3-0.2
	c0.1,0.2,7.9,17.9-1.4,38.4C252.1,143.7,228.9,160.1,192.6,171.3L192.6,171.3z"/>
<path class="st1" d="M192.6,171.3l-0.1-0.4c49.6-15.3,72.6-37.5,83.2-53.5c11.4-17.3,11.2-31.1,11.2-31.2h0.4
	c0,0.1,0.3,14.1-11.2,31.4c-6.7,10.2-16.2,19.5-28,27.8C233.1,155.8,214.5,164.5,192.6,171.3z"/>
<path class="st1" d="M192.6,171.3l-0.1-0.4c49.6-15.3,75.8-36.9,89-52.3c14.3-16.7,17-29.9,17-30l0.4,0.1c0,0.1-2.7,13.4-17,30.2
	c-8.4,9.8-19.2,18.9-32,27C233.7,156,214.5,164.5,192.6,171.3L192.6,171.3z"/>
<path class="st1" d="M192.6,171.3l-0.1-0.4c49.6-15.3,78.8-35.5,94.6-49.7c17.1-15.4,22.5-27.4,22.6-27.5l0.3,0.2
	c-0.1,0.1-5.5,12.1-22.6,27.6C271.5,135.7,242.3,156,192.6,171.3L192.6,171.3z"/>
<path class="st1" d="M192.6,171.3l-0.1-0.4c49.6-15.3,82.4-33.9,101.1-46.8c20.3-14,29-24.5,29.1-24.6l0.3,0.2
	c-0.1,0.1-8.8,10.6-29.1,24.6C275,137.3,242.2,156,192.6,171.3L192.6,171.3z"/>
<path class="st1" d="M192.6,171.3l-0.1-0.4c95-29.3,149.5-58.7,150-59l0.2,0.3C342.1,112.5,287.6,142,192.6,171.3z"/>
<path class="st1" d="M192.3,172l-0.1-0.4c49.6-15.3,85.1-32.6,106.1-44.4c22.7-12.8,33.9-22.1,34-22.2l0.2,0.3
	c-0.1,0.1-11.3,9.4-34,22.2C277.5,139.4,242,156.7,192.3,172z"/>
<path class="st1" d="M192.3,172l-0.1-0.4c49.6-15.3,69.2-38.3,76.9-54.8c8.3-17.9,4.9-32.4,4.9-32.6l0.4-0.1
	c0,0.1,3.5,14.8-4.9,32.8c-4.9,10.6-12.9,20.3-23.7,28.8C232.3,156.4,214.3,165.3,192.3,172L192.3,172z"/>
<path class="st1" d="M353.3,120.5c-39.8-33-73.8-37.8-95.3-36c-23.3,1.9-37.3,11.8-37.5,11.9l-0.2-0.3c0.1-0.1,14.3-10,37.6-12
	c13.7-1.2,27.9,0.6,42.2,5.3c17.8,5.8,35.8,16.2,53.4,30.8L353.3,120.5z"/>
<path class="st1" d="M353.3,120.5C312.9,87.9,277,80.9,254,80.7h-0.9c-24.4,0-39.7,7.5-39.8,7.5l-0.2-0.3c0.2-0.1,15.5-7.6,40-7.6
	h0.8c14.7,0.1,29.7,2.8,44.6,8.1c18.6,6.6,37.1,17.3,55,31.7C353.5,120.1,353.3,120.5,353.3,120.5z"/>
<path class="st1" d="M353.3,120.5c-40.4-32.6-79.1-44.2-104.5-48.2c-27.5-4.3-45.7-0.9-45.8-0.9l-0.1-0.4c0.2,0,18.4-3.5,46,0.9
	c16.2,2.5,32.4,7.2,48.1,13.9c19.7,8.4,38.7,19.9,56.6,34.3L353.3,120.5L353.3,120.5z"/>
<path class="st1" d="M353.3,120.5C312.9,87.9,273,73.3,246.7,66.8c-28.5-7.1-47.7-6.4-47.9-6.4V60c0.2,0,19.4-0.7,48,6.4
	c26.4,6.5,66.3,21.2,106.7,53.8L353.3,120.5z"/>
<path class="st1" d="M353.3,120.5c-40.4-32.6-81-49.9-107.9-58.6c-29.2-9.5-49.1-11.2-49.3-11.3v-0.4c0.2,0,20.1,1.8,49.3,11.3
	c27,8.7,67.6,26,108.1,58.7L353.3,120.5z"/>
<path class="st1" d="M353.3,120.5c-40.4-32.6-81.7-53.2-109.1-64.8c-29.8-12.5-50.2-17.4-50.4-17.5l0.1-0.4
	c0.2,0,20.7,4.9,50.5,17.5c27.5,11.6,68.8,32.2,109.2,64.9C353.6,120.2,353.3,120.5,353.3,120.5z"/>
<path class="st1" d="M353.3,120.5C275.9,58,192.7,15.4,191.9,15l0.2-0.3c0.8,0.4,84.1,43.1,161.5,105.6L353.3,120.5z"/>
<path class="st1" d="M354.1,120.2c-40.4-32.6-81.9-56.1-109.6-70.1c-30-15.1-50.7-22.7-50.9-22.7l0.1-0.4c0.2,0.1,20.9,7.6,51,22.8
	c27.7,14,69.2,37.5,109.7,70.1L354.1,120.2L354.1,120.2z"/>
<path class="st1" d="M354.1,120.2C313.7,87.6,276.3,78.4,252,76.3c-26.3-2.2-43.3,3.4-43.5,3.4l-0.1-0.4c0.2-0.1,17.2-5.7,43.6-3.5
	c15.5,1.3,31.1,5,46.5,11c19.2,7.5,38,18.6,55.9,33L354.1,120.2z"/>
<path class="st1" d="M234.3,108l10.8-21.8l13.5,20.2C258.6,106.4,234.3,108,234.3,108z M245.1,86.9l-10.2,20.6l23-1.5L245.1,86.9
	L245.1,86.9z"/>
<path class="st1" d="M245.8,106.5l-5.6-9.2l10.7-0.3L245.8,106.5L245.8,106.5z M240.9,97.7l4.9,8l4.5-8.3L240.9,97.7z M64.3,130.6
	c-17.5,0-36.4-3.8-56.1-11.2l0.1-0.4c48.4,18.2,82.2,10.6,102.1,1c21.5-10.4,31.7-25.3,31.8-25.5l0.3,0.2
	c-0.1,0.1-10.3,15.1-31.9,25.6c-12.7,6.1-26.7,9.5-41.8,10.1C67.3,130.6,65.8,130.6,64.3,130.6z"/>
<path class="st1" d="M70.1,131.1c-19.7,0-40.5-3.9-61.9-11.7l0.1-0.4c48.8,17.6,85.3,11.9,107.2,3.9c23.8-8.6,36.2-21.5,36.3-21.7
	l0.3,0.3c-0.1,0.1-12.6,13.1-36.5,21.8c-14,5.1-29.2,7.7-45,7.7C70.4,131.1,70.3,131.1,70.1,131.1L70.1,131.1z"/>
<path class="st1" d="M88,134.2c-5.2,0-10.5-0.2-15.9-0.6c-20.9-1.6-42.4-6.4-64-14.2l0.1-0.4c48.8,17.6,88,16.3,112.2,12
	c26.3-4.6,41.2-13.5,41.3-13.6l0.2,0.3c-0.1,0.1-15.1,9-41.4,13.7C110.1,133.3,99.2,134.2,88,134.2z"/>
<path class="st1" d="M105.2,137.3c-24.6,0-58-3.8-97-17.9l0.1-0.4c48.8,17.6,88.8,19.1,113.7,17.3c27-2,42.6-8.3,42.8-8.3l0.1,0.4
	c-0.2,0.1-15.8,6.4-42.9,8.4C117,137.1,111.4,137.3,105.2,137.3L105.2,137.3z"/>
<path class="st1" d="M123.1,140.8c-25.5,0-66.1-3.7-115-21.4l0.1-0.4C57,136.6,97.6,140.3,123,140.3h0.1c27.6,0,43.8-4.2,44-4.3
	l0.1,0.4C167.1,136.5,150.9,140.8,123.1,140.8C123.2,140.8,123.2,140.8,123.1,140.8L123.1,140.8z"/>
<path class="st1" d="M150.2,146.5c-7,0-15.7-0.3-26-1.1c-25.9-2.1-67.1-8.3-116-25.9l0.1-0.4c48.8,17.7,90,23.8,115.9,25.9
	c28.1,2.3,44.8,0.3,44.9,0.3v0.4C169,145.7,162.3,146.5,150.2,146.5L150.2,146.5z"/>
<path class="st1" d="M171.1,162.5c-0.7-0.1-69.5-9.1-162.9-43l0.1-0.4c93.3,33.9,162.1,42.9,162.8,43L171.1,162.5L171.1,162.5z"/>
<path class="st1" d="M169.6,153.9c-0.4,0-17.4,0-45.5-4.2c-26.2-3.9-67.6-12.2-116.5-29.8l0.1-0.4c48.8,17.7,90.3,26,116.4,29.8
	c28.3,4.2,45.3,4.2,45.5,4.2V153.9L169.6,153.9z"/>
<path class="st1" d="M78,133c-2.3,0-4.6,0-6.9-0.1c-20.6-0.8-41.9-5.2-63.5-13l0.1-0.4c48.8,17.6,87.2,14.1,110.7,8.1
	c25.5-6.6,39.7-17.4,39.8-17.5l0.2,0.3c-0.1,0.1-14.4,11-40,17.6C105.6,131.3,92,133,78,133z"/>
<path class="st1" d="M170.2,171.4h-0.4c1-36.2-6.8-61.1-23.1-74.1c-17.8-14.1-39.8-8.5-40-8.5l-0.1-0.4c0.2-0.1,22.3-5.7,40.3,8.5
	C163.4,110.1,171.2,135.1,170.2,171.4z"/>
<path class="st1" d="M170.2,171.4h-0.4c0.6-37.9-7.8-64.9-24.8-80.4c-16.6-15-35.6-13.1-35.8-13.1v-0.4c0.2,0,19.4-2,36.1,13.2
	C162.4,106.3,170.8,133.4,170.2,171.4L170.2,171.4z"/>
<path class="st1" d="M170.2,171.4h-0.4c0.8-51.9-13.3-80.6-25.1-95.6c-12.9-16.2-26.1-20.2-26.2-20.3l0.1-0.4
	c0.1,0,13.5,4.1,26.4,20.4c7.6,9.6,13.6,21.4,17.8,35.2C168,128.1,170.5,148.5,170.2,171.4z"/>
<path class="st1" d="M170.2,171.4h-0.4c0.8-51.9-11.7-83.4-22.2-100.8c-11.4-18.8-23.2-25.4-23.3-25.4l0.2-0.3
	c0.1,0.1,12,6.7,23.4,25.5c6.7,11.1,12.1,24.1,15.8,38.8C168.3,127.5,170.5,148.5,170.2,171.4z"/>
<path class="st1" d="M170.2,171.4h-0.4c0.8-51.9-9.4-85.9-18.1-105.3c-9.4-21-19-29.8-19.1-29.9l0.3-0.3c0.1,0.1,9.8,9,19.2,30.1
	C160.8,85.3,171,119.4,170.2,171.4z"/>
<path class="st1" d="M170.2,171.4h-0.4c0.8-51.9-6.8-88.8-13.3-110.6c-7-23.6-14.3-35.1-14.4-35.2l0.4-0.3
	c0.1,0.1,7.4,11.6,14.4,35.3C163.4,82.5,171,119.4,170.2,171.4z"/>
<path class="st1" d="M170.2,171.4h-0.4c1.5-99.4-9.7-160.3-9.8-160.9l0.4-0.1C160.5,11,171.7,72,170.2,171.4z"/>
<path class="st1" d="M170.8,171.9h-0.4c0.8-51.9-4.7-91-9.5-114.6c-5.1-25.6-10.5-39.1-10.6-39.2l0.4-0.1
	c0.1,0.1,5.4,13.6,10.6,39.2C166.1,80.8,171.6,119.9,170.8,171.9z"/>
<path class="st1" d="M170.8,171.9h-0.4c0.8-51.9-15-77.6-28.4-90.1c-14.5-13.5-29.3-14.7-29.4-14.7v-0.4c0.1,0,15.1,1.3,29.7,14.8
	c8.5,8,15.3,18.5,20.1,31.4C168.3,129.1,171.2,148.9,170.8,171.9z"/>
<path class="st1" d="M107.2,121.7c-0.1-0.2-5.1-16.7,0.2-39.5c3.1-13.4,9.2-26.4,18.1-38.5c11-15.1,26.5-29,45.8-41.3l0.2,0.3
	c-43.7,27.8-58.8,58.6-63.7,79.6c-5.3,22.7-0.3,39.2-0.2,39.3L107.2,121.7L107.2,121.7z"/>
<path class="st1" d="M97.2,126.1c0-0.2-2.5-17.4,5.4-41.2c4.6-13.9,11.9-27.4,21.5-39.9c12.1-15.7,27.9-30,47.2-42.5l0.2,0.3
	C128,31.1,110.2,63.1,103,85c-7.9,23.7-5.4,40.8-5.4,41L97.2,126.1L97.2,126.1z"/>
<path class="st1" d="M78.4,130.7H78c0-0.2,2.4-18.6,15-43.4c7.4-14.6,16.9-28.6,28.1-41.5c14-16.1,30.9-30.7,50.2-43.2l0.2,0.3
	C128,31.2,105,64.4,93.4,87.3C80.8,112.1,78.4,130.5,78.4,130.7z"/>
<path class="st1" d="M66.6,131.2l-0.4-0.1c0.1-0.2,5.4-18.7,20.9-43.7c14.4-23.1,40.7-56.5,84.2-84.9l0.2,0.3
	c-43.5,28.4-69.7,61.8-84,84.8C72,112.5,66.6,131,66.6,131.2z"/>
<path class="st1" d="M56.5,130.7l-0.3-0.1c0.1-0.2,7.9-18.6,26-43.4c16.7-22.9,45.6-56.3,89.2-84.7l0.2,0.3
	c-43.5,28.4-72.5,61.6-89.1,84.5C64.4,112.2,56.6,130.6,56.5,130.7z"/>
<path class="st1" d="M44,129.2l-0.3-0.2c0.1-0.2,11.1-18.2,32.2-42.6C95.4,63.8,127.8,31,171.3,2.6l0.2,0.3
	C128,31.3,95.6,64.1,76.1,86.7C55,111,44.1,129,44,129.2z"/>
<path class="st1" d="M21.3,123.8l-0.3-0.3c0.7-0.7,67-66.7,150.3-121l0.2,0.3C88.2,57.1,21.9,123.1,21.3,123.8z"/>
<path class="st1" d="M33.6,126.1l-0.3-0.2c0.1-0.2,13.7-17.6,37.4-41.4c21.9-22,57.1-54.3,100.6-82.7l0.2,0.3
	C128,30.4,92.8,62.6,71,84.6C47.3,108.5,33.7,125.9,33.6,126.1z"/>
<path class="st1" d="M87.7,128c0-0.2-0.1-18.1,10.2-42.5c6-14.3,14.4-28.1,24.8-40.8c13-15.9,29.4-30.4,48.6-42.9l0.2,0.3
	C128,30.5,107.6,63.2,98.2,85.6C88,109.9,88,127.8,88,128H87.7L87.7,128z"/>
<path class="st1" d="M122.9,112.2l-17.4-17l23.4-6.6L122.9,112.2z M106.2,95.4l16.5,16.1l5.7-22.3L106.2,95.4z"/>
<path class="st1" d="M114.6,103.3l3-10.3l7.4,7.8L114.6,103.3z M117.8,93.7l-2.7,9l9.2-2.2L117.8,93.7z M64.7,326.9l-0.3-0.2
	c31.4-40,34.3-74.1,31.3-95.7c-3.3-23.5-14.2-37.6-14.3-37.7l0.3-0.2c0.1,0.1,11,14.3,14.4,37.8c2,13.8,1,28-3,42.4
	C88.2,291.1,78.6,309.2,64.7,326.9z"/>
<path class="st1" d="M65.5,327.7l-0.3-0.2c31.9-41,37.1-77.2,35.9-100.4c-1.3-25.1-10.3-40.7-10.4-40.9L91,186
	c0.1,0.2,9.1,15.8,10.4,41c0.8,14.8-1.2,29.9-5.9,45C89.7,290.8,79.6,309.6,65.5,327.7L65.5,327.7z"/>
<path class="st1" d="M65.5,327.7l-0.3-0.2c31.9-41,42.1-78.4,45.1-102.6c3.2-26.2-1.1-43-1.2-43.1l0.4-0.1c0,0.2,4.4,17,1.2,43.3
	c-1.9,15.4-6,31.1-12.2,46.5C90.7,290.6,79.6,309.6,65.5,327.7L65.5,327.7z"/>
<path class="st1" d="M65.5,327.7l-0.3-0.2c31.9-41,45.1-78.3,50.6-102.4c5.9-26.1,4.3-42.7,4.3-42.9h0.4c0,0.2,1.6,16.8-4.3,43
	C110.7,249.3,97.4,286.7,65.5,327.7z"/>
<path class="st1" d="M65.5,327.7l-0.3-0.2c31.9-41,47.4-78.3,54.8-102.3c8-26.1,8.5-42.6,8.5-42.8h0.4c0,0.2-0.5,16.8-8.5,42.9
	C113,249.3,97.4,286.7,65.5,327.7L65.5,327.7z"/>
<path class="st1" d="M65.5,327.7l-0.3-0.2c31.9-41,49.9-78,59.5-101.8c10.3-25.8,13.1-42.1,13.2-42.3l0.4,0.1
	c0,0.2-2.9,16.5-13.2,42.3C115.5,249.6,97.4,286.7,65.5,327.7z"/>
<path class="st1" d="M65.5,327.7l-0.3-0.2c61.1-78.3,89-140.2,89.2-140.8l0.3,0.2C154.5,187.4,126.6,249.4,65.5,327.7L65.5,327.7z"
	/>
<path class="st1" d="M65.5,327.7l-0.3-0.2c31.9-41,52.1-77.4,63.5-100.8c12.3-25.3,17.1-41.1,17.2-41.2l0.4,0.1
	c0,0.2-4.9,16-17.2,41.3C117.7,250.2,97.4,286.7,65.5,327.7z"/>
<path class="st1" d="M65.5,327.7l-0.3-0.2c31.9-41,39.9-78.1,41-102.1c1.2-25.9-5.2-42.4-5.2-42.6l0.4-0.1
	c0.1,0.2,6.5,16.7,5.2,42.7c-0.7,15.3-3.9,30.8-9.4,46.1C90.3,290.7,79.6,309.6,65.5,327.7L65.5,327.7z"/>
<path class="st1" d="M64.9,225.3h-0.4c0-0.2,1.5-23,20.6-35.7c17.5-11.6,43.7-11.3,78,0.8l-0.1,0.4c-34.1-12.2-60.2-12.5-77.6-0.9
	C66.4,202.5,64.9,225.1,64.9,225.3z"/>
<path class="st1" d="M55.3,219.5l-0.4-0.1c0-0.2,4.1-19.1,23.7-30.3c20-11.4,48.4-11,84.4,1.3l-0.1,0.4
	c-35.9-12.2-64.2-12.7-84.1-1.3C59.4,200.6,55.4,219.3,55.3,219.5L55.3,219.5z"/>
<path class="st1" d="M36.8,203.8l-0.3-0.2c0.1-0.1,8-11.5,27.5-18.8c11.4-4.3,24.6-6.3,39-6c18.1,0.3,38.2,4.2,60,11.7l-0.1,0.4
	c-49.1-16.8-80.8-12.3-98.7-5.6C44.8,192.4,36.9,203.7,36.8,203.8L36.8,203.8z"/>
<path class="st1" d="M28.8,195.1l-0.3-0.3c0.1-0.1,10.1-9.3,31.5-14.4c12.6-3,26.7-4,41.8-3c18.9,1.2,39.5,5.6,61.2,13l-0.1,0.4
	c-49.1-16.8-83-14.7-102.8-10C38.8,185.8,28.9,195,28.8,195.1z"/>
<path class="st1" d="M162.9,190.8c-49.1-16.8-84.6-17.6-105.7-15.4c-22.9,2.4-34.3,8.9-34.4,9l-0.2-0.3c0.1-0.1,11.6-6.6,34.5-9
	c21.2-2.2,56.7-1.4,105.9,15.4L162.9,190.8z"/>
<path class="st1" d="M162.9,190.8c-49.2-16.8-86.6-21-109.3-21.6C29,168.6,15.8,172,15.7,172l-0.1-0.4c0.1,0,13.4-3.4,38.1-2.8
	c22.8,0.6,60.3,4.8,109.5,21.6L162.9,190.8L162.9,190.8z"/>
<path class="st1" d="M162.9,190.8c-94.1-32.1-155.4-40.4-156-40.4V150c0.6,0.1,62,8.3,156.1,40.4L162.9,190.8z"/>
<path class="st1" d="M163.5,190.3c-49.2-16.8-88-23.6-111.9-26.4c-25.9-3-40.4-2.1-40.5-2.1v-0.4c0.1,0,14.6-1,40.6,2.1
	c23.9,2.8,62.8,9.6,112,26.4L163.5,190.3z"/>
<path class="st1" d="M46,212.9l-0.4-0.1c0.1-0.1,5.9-14,23.3-23.6c10.2-5.7,22.4-8.8,36.1-9.4c17.2-0.7,36.9,2.7,58.6,10.2l-0.1,0.3
	c-49.1-16.8-78.5-9.7-94.4-0.8C51.8,199.1,46.1,212.8,46,212.9L46,212.9z"/>
<path class="st1" d="M96.3,234.9c-0.2,0-17.4-0.3-37.5-12.4c-11.8-7.1-22.2-16.9-31-29.1c-10.9-15.1-19.4-34.1-25.1-56.3l0.4-0.1
	c12.8,50.1,37.5,74,55.9,85.2c20,12.1,37.1,12.4,37.3,12.4V234.9L96.3,234.9z"/>
<path class="st1" d="M97.3,245.8c-0.2,0-17.3-3-37.5-17.9c-11.8-8.7-22.4-19.8-31.3-32.8c-11.2-16.3-19.9-35.8-25.8-58l0.4-0.1
	c13.5,50.1,38.4,76.9,57,90.6c20.1,14.8,37.2,17.8,37.3,17.8L97.3,245.8L97.3,245.8z"/>
<path class="st1" d="M95.7,265.5c-0.2-0.1-16.9-8-36.7-27.7c-11.6-11.6-21.9-24.9-30.7-39.6c-11-18.3-19.6-38.9-25.6-61.1l0.4-0.1
	c13.5,50.1,38.1,82.3,56.2,100.4C79,257.1,95.7,265,95.9,265L95.7,265.5z"/>
<path class="st1" d="M92.5,276.8c-0.2-0.1-16.1-10.9-35.1-33.4c-17.5-20.8-41.2-56.1-54.7-106.3l0.4-0.1
	c13.5,50.1,37.2,85.4,54.7,106.1c18.9,22.5,34.8,33.2,35,33.3L92.5,276.8L92.5,276.8z"/>
<path class="st1" d="M89,286.3c-0.1-0.1-15.2-13.3-33.3-38.1c-16.7-22.9-39.4-60.8-52.9-111l0.4-0.1c13.5,50.1,36.2,88,52.9,110.9
	c18,24.8,33.1,37.9,33.2,38.1L89,286.3z"/>
<path class="st1" d="M83.6,297.7c-0.1-0.2-13.8-16.2-30.6-43.8c-15.5-25.6-36.7-66.6-50.3-116.8l0.4-0.1
	c13.5,50.1,34.8,91.1,50.2,116.6c16.7,27.6,30.4,43.6,30.5,43.8L83.6,297.7L83.6,297.7z"/>
<path class="st1" d="M71.4,317.5c-0.4-0.8-42.7-84.3-68.6-180.3l0.4-0.1c25.9,96,68.2,179.4,68.6,180.3L71.4,317.5z"/>
<path class="st1" d="M77.4,306.5c-0.1-0.2-12.5-18.5-27.9-48.4c-14.2-27.6-34-71-47.5-121.2l0.4-0.1C15.9,187,35.7,230.4,49.9,258
	c15.4,29.9,27.7,48.2,27.8,48.3L77.4,306.5z"/>
<path class="st1" d="M96.2,255.4c-0.2-0.1-17.2-5.5-37.3-22.8c-11.8-10.2-22.3-22.3-31.2-36.2C16.6,179.1,7.9,159,1.9,136.9l0.4-0.1
	c13.5,50.1,38.4,79.6,56.8,95.5c20,17.2,37,22.7,37.2,22.7L96.2,255.4z"/>
<path class="st1" d="M70.5,228.4l1-24.3l20.6,13L70.5,228.4z M71.9,204.8l-0.9,23l20.4-10.7L71.9,204.8z"/>
<path class="st1" d="M81,222.2l-8.9-6.1l9.7-4.6L81,222.2L81,222.2z M72.9,216.2l7.8,5.3l0.7-9.4L72.9,216.2L72.9,216.2z"/>
<g>
	<path class="st2" d="M599.8,56.3c19.6,12.1,35,28.9,46.2,50.5c11.1,21.5,16.7,45.8,16.7,72.9v11.1c0,27.1-5.5,51.3-16.6,72.8
		s-26.3,38.3-45.8,50.4s-41.3,18.2-65.6,18.2H442v-294h90.9C557.8,38.1,580.1,44.2,599.8,56.3L599.8,56.3z M589.8,179.3
		c0-26.4-4.8-46.3-14.5-59.9c-9.7-13.5-23.8-20.3-42.3-20.3h-19.8v172.2h21.5c17.7,0,31.3-6.7,40.8-20.2
		c9.5-13.5,14.3-33.6,14.3-60.4V179.3z M741.4,191.7c-13.6-7.9-24.8-17.9-33.5-30.2c-8.7-12.2-13.1-27-13.1-44.2
		c0-17,4.7-31.7,14-44.2s22.3-22.1,38.8-28.9c16.5-6.7,35.2-10.1,55.9-10.1c20.2,0,38.2,3.6,54,10.9s28.1,17.8,37.1,31.6
		S908,106.9,908,126h-70.9c0-10-3-17.9-9.1-23.7c-6-5.9-14.8-8.8-26.2-8.8c-7.6,0-14.2,1.1-19.6,3.4c-5.5,2.3-9.6,5.3-12.4,9
		c-2.8,3.7-4.2,7.8-4.2,12.2c0,7.4,4,13.7,12.1,19s20.4,10.8,37.1,16.6c30.6,10.5,53.8,23.6,69.5,39.2s23.6,35.5,23.6,59.8
		c0,17.8-4.3,32.9-12.8,45.4s-20.5,22-36,28.5s-33.8,9.7-54.7,9.7c-20.5,0-39.6-3.6-57.5-10.8c-17.9-7.2-32.4-18.5-43.6-33.8
		c-11.2-15.3-16.8-34.6-16.8-57.7H758c0,10.9,1.7,19.5,5.1,25.8c3.4,6.3,8.4,10.8,15.2,13.4c6.7,2.6,15.4,3.9,26.1,3.9
		c11.1,0,19.2-2.3,24.5-7c5.3-4.6,7.9-10.3,7.9-17.1c0-5.8-1.1-10.7-3.4-14.6c-2.3-4-6.8-7.9-13.4-11.8c-6.7-3.9-16.6-8.2-29.8-12.9
		C771.2,206.9,755,199.6,741.4,191.7L741.4,191.7z M1152.5,286.2c-9.8,16-23.3,28.3-40.6,37s-37.3,13-59.9,13
		c-24.9,0-46.3-5.8-64.2-17.4s-31.5-28.2-40.8-50c-9.3-21.7-14-47.6-14-77.4v-12.3c0-29.6,4.9-55.4,14.6-77.2
		c9.7-21.9,23.5-38.7,41.2-50.4s38.3-17.6,61.7-17.6c23.9,0,44.4,4.6,61.6,13.7c17.2,9.2,30.5,21.8,40,38.1
		c9.5,16.2,15,34.9,16.7,56h-70.9c-0.1-15.9-3.8-27.5-11.1-34.8c-7.2-7.3-19.3-11-36.2-11c-10.6,0-19.1,2.6-25.6,7.8
		c-6.5,5.2-11.3,13.8-14.6,25.8c-3.2,12-4.9,28.4-4.9,49.2v12.7c0,21.5,1.5,38.2,4.5,50.1c3,11.8,7.8,20.2,14.4,25.1
		c6.6,4.9,15.8,7.4,27.7,7.4c14.6,0,25.8-3.4,33.6-10.3c7.8-6.9,11.7-17.8,11.8-32.9h70.8C1167.5,251.8,1162.3,270.2,1152.5,286.2
		L1152.5,286.2z M1198.4,163.3c7.7-16.8,19.1-30,34.1-39.5s33.2-14.2,54.4-14.2c21.5,0,39.8,4.7,54.8,14.2
		c15.1,9.5,26.4,22.6,34.1,39.4s11.5,36,11.5,57.6v4.2c0,21.7-3.8,40.9-11.5,57.5c-7.7,16.7-19,29.8-34,39.3s-33.2,14.2-54.5,14.2
		c-21.4,0-39.6-4.7-54.7-14.2s-26.5-22.6-34.2-39.3c-7.7-16.7-11.5-35.9-11.5-57.5v-4.2C1186.9,199.3,1190.7,180.1,1198.4,163.3
		L1198.4,163.3z M1262.1,264c4.6,9.1,13.1,13.6,25.3,13.6c11.8,0,20.1-4.6,24.8-13.7c4.7-9.2,7.1-22.1,7.1-38.8v-4.2
		c0-16.4-2.4-29.3-7.1-38.7s-13.1-14-25.2-14c-11.8,0-20.1,4.7-24.8,14.1c-4.7,9.4-7.1,22.3-7.1,38.6v4.2
		C1255.1,241.9,1257.4,254.9,1262.1,264L1262.1,264z M1584.5,129.8c11.3,13.5,17,35.7,17,66.6v135.7h-68.7V196.2
		c0-7.8-1-13.8-3.1-18s-5.1-7-9-8.4s-9-2.1-15.4-2.1c-11.2,0-19.5,4-24.8,12.1V332H1412V113.6h64.1l2.3,25.2
		c7-9.6,15.4-16.8,25.4-21.8c9.9-5,21-7.5,33.2-7.5C1557.3,109.6,1573.2,116.3,1584.5,129.8z M1716.8,113.6h39.7v52.3h-39.7v166.2
		h-68.7V165.9h-29.6v-52.3h29.6V97.3c0-17,3.3-31.4,9.8-43.3s15.9-20.9,27.9-27.1c12.1-6.1,26.4-9.2,42.9-9.2c9,0,19.4,1.5,31.1,4.4
		l0.6,55.5c-4.5-1.2-9.6-1.8-15.4-1.8c-9,0-16,1.8-20.9,5.5c-4.9,3.6-7.3,9-7.3,16V113.6L1716.8,113.6z"/>
</g>
</svg>
