<?xml version="1.0" encoding="utf-8"?>
<!-- Generator: Adobe Illustrator 22.0.1, SVG Export Plug-In . SVG Version: 6.00 Build 0)  -->
<svg version="1.1" id="Layer_1" xmlns="http://www.w3.org/2000/svg" xmlns:xlink="http://www.w3.org/1999/xlink" x="0px" y="0px"
	 viewBox="0 0 1920 371" style="enable-background:new 0 0 1920 371;" xml:space="preserve">
<style type="text/css">
	.st0{fill:#FF8308;}
	.st1{fill:#D66407;}
	.st2{fill:#353535;}
</style>
<path class="st0" d="M196.2,180.2L195.5,6.7L361.1,126L196.2,180.2z M176.5,179.6L11.3,126.7L176.1,7.3L176.5,179.6z M169.5,195.8
	L70.2,336L5.5,143L169.5,195.8z M185.2,202.7l102.6,140l-203.5-0.3L185.2,202.7z M203.4,197.1l164.8-54.4L305,336.2L203.4,197.1z"/>
<path class="st1" d="M286,342.5c-28.5-43.2-60.3-56.9-82-60.8c-23.5-4.2-40.5,1.8-40.7,1.9l-0.1-0.4c0.2-0.1,17.3-6.2,40.9-1.9
	c13.9,2.5,27.2,8,39.7,16.4c15.6,10.5,29.9,25.5,42.5,44.6L286,342.5L286,342.5z"/>
<path class="st1" d="M286,342.5c-29.1-43-62-59.7-84.4-66.2c-24.3-7-41.9-3.8-42.1-3.8l-0.1-0.4c0.2,0,17.9-3.2,42.3,3.8
	c14.3,4.1,28.1,10.9,41,20.2c16.1,11.6,30.8,27.1,43.7,46.1L286,342.5z"/>
<path class="st1" d="M286,342.5c-29.1-43-61.6-64.9-83.7-75.7c-24-11.7-41.2-13.2-41.4-13.3v-0.4c0.2,0,17.5,1.6,41.5,13.3
	c14.1,6.9,27.7,15.9,40.5,26.7c15.9,13.6,30.5,30.1,43.4,49.1L286,342.5z"/>
<path class="st1" d="M286,342.5c-29.1-43-60.6-67.7-81.8-80.8c-23-14.2-39.4-18.4-39.5-18.4l0.1-0.4c0.2,0,16.5,4.2,39.6,18.4
	c21.3,13.2,52.8,37.9,81.9,80.9L286,342.5z"/>
<path class="st1" d="M286,342.5c-29.1-43-59.8-69.8-80.4-84.8c-22.3-16.2-37.9-22.3-38.1-22.4l0.1-0.4c0.2,0.1,15.8,6.2,38.2,22.4
	c20.6,15,51.3,41.9,80.5,84.9L286,342.5z"/>
<path class="st1" d="M286,342.5c-29.1-43-58.8-72.2-78.5-89.1c-21.4-18.3-36-26.6-36.2-26.6l0.2-0.3c0.1,0.1,14.8,8.3,36.2,26.7
	c19.7,16.9,49.4,46.1,78.6,89.1L286,342.5z"/>
<path class="st1" d="M286,342.5c-55.5-82.3-105.9-130-106.4-130.5l0.3-0.3c0.5,0.5,50.9,48.2,106.5,130.5L286,342.5L286,342.5z"/>
<path class="st1" d="M286.8,342.5c-29.1-43-57.8-74.1-76.7-92.6c-20.5-20-34.2-30-34.3-30.1l0.2-0.3c0.1,0.1,13.9,10.1,34.4,30.2
	c18.9,18.5,47.5,49.6,76.7,92.6L286.8,342.5z"/>
<path class="st1" d="M286.8,342.5c-29.1-43-62.2-62.7-84.8-71.6c-24.5-9.7-42.4-9.2-42.5-9.2v-0.4c0.2,0,18.1-0.5,42.7,9.3
	c14.4,5.7,28.3,13.8,41.2,24c16.2,12.7,30.9,28.8,43.8,47.8L286.8,342.5L286.8,342.5z"/>
<path class="st1" d="M188.6,309.5c-0.2-0.1-21.4-8.5-27.6-30.6c-5.7-20.2,2.7-45.1,24.9-73.9l0.3,0.2
	c-22.1,28.7-30.4,53.4-24.8,73.5c6.1,21.9,27.2,30.3,27.4,30.4L188.6,309.5L188.6,309.5z"/>
<path class="st1" d="M180.1,316.8c-0.2-0.1-16.9-9.8-21.5-31.9c-4.7-22.6,4.5-49.4,27.3-79.9l0.3,0.2
	c-22.7,30.3-31.9,57.1-27.2,79.6c4.6,21.9,21.1,31.5,21.3,31.6L180.1,316.8L180.1,316.8z"/>
<path class="st1" d="M159.3,329.4c-0.1-0.1-8.5-11.2-9.4-32c-0.5-12.2,1.6-25.3,6.3-39c5.9-17.1,15.9-35,29.6-53.4l0.3,0.2
	c-31.1,41.5-36.7,73-35.9,92.2c0.9,20.7,9.2,31.7,9.3,31.8L159.3,329.4L159.3,329.4z"/>
<path class="st1" d="M148.5,334.3c-0.1-0.1-5.7-12.4-4-34.4c1-12.9,4.4-26.6,10-40.7c7-17.6,17.5-35.8,31.3-54.2l0.3,0.2
	c-31.1,41.6-39.6,74.4-41.3,94.6c-1.8,21.9,3.9,34.1,3.9,34.3L148.5,334.3z"/>
<path class="st1" d="M136.4,336.6c0-0.1-2.7-13,2.1-35.6c4.4-20.8,16.2-54.4,47.4-96l0.3,0.2c-31.1,41.5-42.9,75-47.3,95.8
	c-4.8,22.5-2.1,35.4-2.1,35.5L136.4,336.6z"/>
<path class="st1" d="M122.8,339.5h-0.4c0-0.1,0.9-13.8,9.1-37.1c7.6-21.5,23.2-55.8,54.3-97.4l0.3,0.2
	c-31.1,41.6-46.7,75.9-54.3,97.3C123.7,325.8,122.8,339.4,122.8,339.5z"/>
<path class="st1" d="M99.5,341.2l-0.3-0.2c0.3-0.6,27.1-56.4,86.7-136l0.3,0.2C126.5,284.8,99.8,340.6,99.5,341.2z"/>
<path class="st1" d="M111.7,340.7l-0.4-0.1c0-0.1,3.6-14.2,14.5-38c10.1-21.9,28.6-56.7,59.7-98.3l0.3,0.2
	c-31.1,41.6-49.7,76.4-59.7,98.3C115.3,326.5,111.8,340.5,111.7,340.7L111.7,340.7z"/>
<path class="st1" d="M170.9,323.6c-0.1-0.1-11.5-9.9-15.3-29.4c-2.2-11.5-1.5-24,2.3-37.2c4.7-16.5,14-34.2,27.8-52.6l0.3,0.2
	c-31.1,41.5-33.5,71.6-30,89.6c3.8,19.4,15.1,29.1,15.2,29.2L170.9,323.6z"/>
<path class="st1" d="M99.2,341.4c-4.4,0-8.9-0.1-13.5-0.4v-0.4c51.6,3.3,81.9-12.8,98.3-26.9c17.7-15.3,23.2-31.5,23.3-31.7l0.4,0.1
	c-0.1,0.2-5.6,16.5-23.4,31.8c-10.4,9-23,15.9-37.2,20.5C132.7,339.1,116.7,341.4,99.2,341.4z"/>
<path class="st1" d="M97.3,341.3c-3.8,0-7.7-0.1-11.6-0.3v-0.4c51.8,2.6,85-12.8,103.7-26.2c20.3-14.5,28.4-29.8,28.5-30l0.3,0.2
	c-0.1,0.2-8.2,15.6-28.6,30.1c-11.9,8.6-25.7,15.2-40.9,19.6C133.1,339,115.8,341.3,97.3,341.3L97.3,341.3z"/>
<path class="st1" d="M98.9,341.3c-4.4,0-8.8-0.1-13.2-0.3v-0.4c51.9,2.6,90-10.8,112.9-22.4c24.8-12.7,37.5-26.1,37.6-26.2l0.3,0.3
	c-0.1,0.1-12.9,13.6-37.7,26.3c-14.6,7.5-30.4,13.2-47.1,17C134.8,339.4,117.1,341.3,98.9,341.3z"/>
<path class="st1" d="M100.5,341.4c-4.8,0-9.8-0.1-14.8-0.4v-0.4c51.9,2.6,92.7-9,117.8-19.2c27.2-11.1,42.4-22.9,42.5-23l0.2,0.3
	c-0.1,0.1-15.3,12-42.6,23C180.9,331,145.4,341.4,100.5,341.4z"/>
<path class="st1" d="M102.7,341.4c-5.6,0-11.2-0.1-17-0.4v-0.4c51.9,2.6,94.8-7.3,121.8-16c29.2-9.5,46.3-19.7,46.5-19.8l0.2,0.3
	c-0.2,0.1-17.3,10.4-46.5,19.9C183.6,332.7,147,341.4,102.7,341.4z"/>
<path class="st1" d="M107,341.5c-7,0-14.1-0.2-21.3-0.5v-0.4c51.9,2.6,97.4-4.9,126.4-11.7c31.4-7.4,50.9-15.4,51.1-15.5l0.1,0.3
	c-0.2,0.1-19.6,8.2-51.1,15.5C187.2,335.1,150,341.5,107,341.5L107,341.5z"/>
<path class="st1" d="M129.1,342.1c-14.1,0-28.7-0.3-43.4-1.1v-0.4c99.3,5,191.7-9.4,192.6-9.5l0.1,0.4
	C277.6,331.6,210.4,342.1,129.1,342.1L129.1,342.1z"/>
<path class="st1" d="M112.9,342.3c-9,0-18.3-0.2-27.7-0.7v-0.4c51.9,2.6,99.3-2.8,129.9-7.7c33.2-5.4,54.4-11.5,54.6-11.5l0.1,0.4
	c-0.2,0.1-21.4,6.2-54.6,11.5C190.1,338,153.7,342.3,112.9,342.3L112.9,342.3z"/>
<path class="st1" d="M97.5,341.9c-4.1,0-8.1-0.1-12.3-0.3v-0.4c51.8,2.6,87.6-11.9,108.4-24.5c22.6-13.7,33-28.2,33.1-28.3l0.3,0.2
	c-0.1,0.1-10.6,14.7-33.2,28.4c-13.3,8.1-28.1,14.3-44,18.4C133.4,339.8,115.9,341.9,97.5,341.9L97.5,341.9z"/>
<path class="st1" d="M193.4,304.7l-22.8-8.4l18.7-15.6L193.4,304.7z M171.3,296.2l21.6,8l-3.9-22.7L171.3,296.2L171.3,296.2z"/>
<path class="st1" d="M182.3,299.4l-1.4-10.6l9.9,4.1L182.3,299.4z M181.3,289.4l1.2,9.3l7.5-5.8L181.3,289.4z M273.1,242.9
	c0-0.2-0.5-18.3,10.8-39.5c6.7-12.4,16-23.4,27.9-32.7c14.8-11.6,33.5-20.6,55.6-26.7l0.1,0.4c-49.9,13.7-72.8,39.8-83.2,59.2
	c-11.3,21.1-10.8,39.1-10.8,39.3H273.1z"/>
<path class="st1" d="M261.8,243.1h-0.4c0-0.2,2.5-18,16.7-39c8.4-12.3,19.1-23.4,31.9-32.7c16-11.7,35.3-20.9,57.4-27.3l0.1,0.4
	c-49.9,14.4-75.9,40.5-89,59.8C264.3,225.2,261.8,242.9,261.8,243.1z"/>
<path class="st1" d="M244.2,235.9l-0.3-0.1c0.1-0.2,6.9-16.2,25.5-35.4c10.9-11.3,23.7-21.5,37.9-30.2c17.8-11,38-19.8,60.1-26.1
	l0.1,0.4c-49.9,14.4-80.7,38.6-97.8,56.3C251.1,219.8,244.3,235.8,244.2,235.9L244.2,235.9z"/>
<path class="st1" d="M235.7,229.1l-0.3-0.2c0.1-0.1,9.1-14.4,29.8-32c19.1-16.2,52.3-38.5,102.3-52.9l0.1,0.4
	c-49.9,14.4-83.1,36.7-102.1,52.8C244.7,214.7,235.8,229,235.7,229.1L235.7,229.1z"/>
<path class="st1" d="M228.9,224l-0.3-0.2c0.1-0.1,10.8-13.1,33.1-29.4c20.6-15,55.7-35.9,105.6-50.3l0.1,0.4
	c-49.9,14.4-84.9,35.3-105.5,50.3C239.7,210.9,229,223.9,228.9,224z"/>
<path class="st1" d="M222,217.7l-0.3-0.3c0.1-0.1,12.5-11.5,36.6-26.2c22.2-13.5,59.1-32.7,109.1-47.2l0.1,0.4
	c-49.9,14.4-86.8,33.6-109,47.1C234.5,206.2,222.1,217.6,222,217.7z"/>
<path class="st1" d="M210.5,205.3l-0.2-0.3c0.6-0.3,61.6-33.5,157.1-60.9l0.1,0.4C272.1,171.8,211.1,204.9,210.5,205.3L210.5,205.3z
	"/>
<path class="st1" d="M216.8,211.3l-0.2-0.3c0.1-0.1,13.9-10.1,39.3-23.4c23.4-12.3,61.9-29.9,111.8-44.3l0.1,0.4
	c-49.9,14.4-88.3,32.1-111.7,44.3C230.6,201.2,216.9,211.2,216.8,211.3L216.8,211.3z"/>
<path class="st1" d="M251.5,239.8l-0.4-0.1c0-0.2,5.1-17.4,22-37.7c9.9-12,21.8-22.7,35.5-31.8c17.1-11.4,36.9-20.5,59-26.9l0.1,0.4
	c-49.9,14.4-78.8,39.8-94.3,58.5C256.6,222.5,251.5,239.6,251.5,239.8L251.5,239.8z"/>
<path class="st1" d="M270.1,243.7h-1.8c-21-0.9-42.1-16.5-62.6-46.5l0.3-0.2c20.4,29.9,41.4,45.5,62.3,46.3
	c22.7,1,37.2-16.5,37.3-16.6l0.3,0.2C305.8,227.1,292,243.7,270.1,243.7z"/>
<path class="st1" d="M278.9,248.1c-1.8,0-3.7-0.1-5.6-0.3c-22.9-2.5-45.6-19.5-67.5-50.6l0.3-0.2c21.8,31,44.5,48,67.3,50.5
	c22.2,2.4,36.5-10.3,36.7-10.5l0.3,0.3C310.1,237.4,298.1,248.1,278.9,248.1L278.9,248.1z"/>
<path class="st1" d="M302,262.7c-5.3,0-11.9-0.7-19.5-2.8c-11.8-3.3-23.6-9.3-35.1-18C233,231,219,216,205.8,197.2l0.3-0.2
	c29.9,42.4,58.1,57.4,76.5,62.6c19.9,5.6,33,1,33.1,1l0.1,0.4C315.8,260.9,310.7,262.7,302,262.7L302,262.7z"/>
<path class="st1" d="M314.1,272.8c-5.1,0-16.2-0.9-31-7c-12-5-23.9-12.4-35.6-22.1c-14.5-12.1-28.6-27.7-41.8-46.5l0.3-0.2
	c29.9,42.4,58.5,60.7,77.2,68.5c20.3,8.5,33.7,6.9,33.8,6.9v0.4C317.1,272.7,316.1,272.8,314.1,272.8z"/>
<path class="st1" d="M315.6,284.9c-0.1,0-13.2-1.5-33.2-13c-18.4-10.6-46.7-32.2-76.7-74.7l0.3-0.2c29.9,42.5,58.1,64,76.5,74.6
	c19.9,11.5,33,12.9,33.1,13V284.9z"/>
<path class="st1" d="M314.1,299.1c-0.1,0-12.8-5.1-32.4-20.1c-18.1-13.9-45.9-39.3-75.9-81.8l0.3-0.2c29.9,42.5,57.7,67.9,75.8,81.7
	c19.6,15,32.2,20,32.4,20.1L314.1,299.1z"/>
<path class="st1" d="M308.3,321.7c-0.4-0.4-45.3-43.2-102.6-124.5l0.3-0.2c57.3,81.3,102.1,124,102.5,124.4L308.3,321.7z"/>
<path class="st1" d="M311.7,309.9c-0.1-0.1-12.4-7.8-31.6-25.5c-17.7-16.3-45.1-44.7-75.1-87.2l0.3-0.2c29.9,42.5,57.3,70.8,75,87.2
	c19.2,17.7,31.4,25.4,31.6,25.5L311.7,309.9L311.7,309.9z"/>
<path class="st1" d="M288.7,254c-2.4,0-4.9-0.1-7.6-0.5c-11.6-1.4-23.3-6-34.7-13.7c-14.3-9.5-28.2-23.9-41.5-42.7l0.3-0.2
	c29.9,42.4,57.8,54,75.9,56.2c19.6,2.4,32.4-5.3,32.5-5.4l0.2,0.3C313.8,248.2,304.1,254,288.7,254L288.7,254z"/>
<path class="st1" d="M304.1,334.5l-0.4-0.1c19.1-48.1,13.2-81.9,4.8-101.8c-9-21.5-22.8-31.8-22.9-31.9l0.2-0.3
	c0.1,0.1,14,10.5,23,32.1c5.3,12.7,8,26.7,8,41.7C316.9,292.9,312.6,313.2,304.1,334.5z"/>
<path class="st1" d="M304.1,334.5l-0.4-0.1c18.5-48.5,14.1-84.8,7.1-106.8c-7.5-23.8-19.6-36.2-19.7-36.3l0.3-0.3
	c0.1,0.1,12.2,12.6,19.8,36.5c4.4,14,6.5,29.1,6,44.9C316.8,292.1,312.3,313,304.1,334.5L304.1,334.5z"/>
<path class="st1" d="M304.1,334.5l-0.4-0.1c18.5-48.5,17.6-88.9,13.5-114.3c-4.4-27.5-13.3-43.7-13.3-43.9l0.3-0.2
	c0.1,0.2,9,16.4,13.4,44c2.6,16.2,3.1,33,1.6,50.1C317.4,291.4,312.3,313,304.1,334.5L304.1,334.5z"/>
<path class="st1" d="M304.1,334.5l-0.4-0.1c18.5-48.5,20.1-90.9,18.2-118c-2.1-29.3-8.7-47.3-8.7-47.5l0.4-0.1
	c0.1,0.2,6.6,18.3,8.7,47.6C324.3,243.4,322.7,285.9,304.1,334.5z"/>
<path class="st1" d="M304.1,334.5l-0.4-0.1c18.5-48.5,22.4-92.5,22.4-120.8c0-30.7-4.5-50.1-4.5-50.3l0.4-0.1
	c0,0.2,4.5,19.7,4.5,50.4C326.6,241.9,322.7,285.9,304.1,334.5L304.1,334.5z"/>
<path class="st1" d="M304.1,334.5l-0.4-0.1c18.5-48.5,25.4-94.1,27.9-123.8c2.7-32.2,1-53.2,1-53.4h0.4c0,0.2,1.7,21.2-1,53.4
	C329.6,240.3,322.7,285.9,304.1,334.5L304.1,334.5z"/>
<path class="st1" d="M304.1,334.5l-0.4-0.1c35.5-92.9,50.3-185.2,50.5-186.2l0.4,0.1C354.5,149.2,339.6,241.6,304.1,334.5z"/>
<path class="st1" d="M304.6,335.1l-0.4-0.1c18.5-48.5,28.1-95.3,32.8-125.9c5.1-33.2,5.9-55.3,5.9-55.5h0.4c0,0.2-0.8,22.3-5.9,55.5
	C332.7,239.8,323.1,286.6,304.6,335.1z"/>
<path class="st1" d="M304.6,335.1l-0.4-0.1c18.5-48.5,15.8-86.9,10.2-110.7c-6-25.7-16.6-40.1-16.7-40.3l0.3-0.2
	c0.1,0.1,10.7,14.6,16.8,40.4c3.6,15.1,4.9,31.1,3.9,47.6C317.5,292.4,312.8,313.7,304.6,335.1L304.6,335.1z"/>
<path class="st1" d="M287.9,239.9l-9-22.6l24.1,3.5L287.9,239.9z M279.5,217.8l8.5,21.4l14.3-18.1L279.5,217.8L279.5,217.8z"/>
<path class="st1" d="M294.4,229.8l-10.6-1.9l7-8.2L294.4,229.8L294.4,229.8z M284.6,227.6l9.3,1.7l-3.2-8.9L284.6,227.6L284.6,227.6
	z M261.3,128c-0.2,0-17.6-5.2-34.2-22.5c-9.8-10.2-17.3-22.5-22.5-36.6c-6.5-17.7-9.2-38.2-8.2-61.1h0.4
	c-2.4,51.7,15.3,81.5,30.6,97.4c16.5,17.2,33.8,22.3,34,22.4L261.3,128z"/>
<path class="st1" d="M257.9,139.2c-0.2-0.1-16.4-7.9-32-28c-9.2-11.8-16.3-25.4-21.3-40.4c-6.2-18.8-9-40-8.2-63h0.4
	c-1.7,51.9,15,84.7,29.4,103.2c15.5,20,31.7,27.8,31.8,27.9L257.9,139.2L257.9,139.2z"/>
<path class="st1" d="M245.6,153.7c-0.1-0.1-13.3-11.6-25.8-35.2c-7.4-13.9-13.1-29.1-17-45.4c-4.9-20.3-7-42.3-6.3-65.2h0.4
	c-1.7,51.9,11.7,88.7,23.3,110.4c12.5,23.5,25.6,35,25.7,35.1L245.6,153.7L245.6,153.7z"/>
<path class="st1" d="M236.4,159.7c-0.1-0.1-10.9-13.1-21.2-38.2c-9.5-23.1-20.4-61.7-18.7-113.6h0.4c-1.7,51.9,9.2,90.3,18.7,113.4
	c10.3,25,21.1,38,21.2,38.1L236.4,159.7z"/>
<path class="st1" d="M229.4,164.5c-0.1-0.1-9.2-14.3-17.7-40.6c-7.9-24.2-16.9-64-15.2-116h0.4c-1.7,51.9,7.3,91.7,15.2,115.9
	c8.5,26.2,17.6,40.4,17.7,40.5L229.4,164.5z"/>
<path class="st1" d="M221.3,169c-0.1-0.2-7.1-15.5-13.6-42.9c-6-25.3-12.9-66.3-11.2-118.3h0.4c-1.7,51.9,5.1,92.9,11.2,118.2
	c6.5,27.4,13.5,42.7,13.6,42.8L221.3,169L221.3,169z"/>
<path class="st1" d="M205.9,176c-0.1-0.7-12.8-68.9-9.4-168.2h0.4c-3.4,99.2,9.3,167.4,9.4,168.1L205.9,176L205.9,176z"/>
<path class="st1" d="M213.5,172c-0.1-0.2-5.3-16.3-10.1-44.6c-4.4-26.1-9.3-68.1-7.6-120h0.4c-3.2,99.4,17.5,163.8,17.7,164.5
	L213.5,172L213.5,172z"/>
<path class="st1" d="M251.5,148c-0.1-0.1-14.9-10.3-29.1-32.6c-8.3-13.1-14.8-27.8-19.3-43.6c-5.6-19.8-8.1-41.5-7.3-64.4h0.4
	c-1.7,51.9,13.5,87.3,26.5,107.8c14.1,22.3,28.8,32.4,29,32.5L251.5,148L251.5,148z"/>
<path class="st1" d="M197.1,178l-0.1-0.4c34.7-10.2,56-25.3,63.3-44.9c7.9-21.3-4.2-40.5-4.3-40.6l0.3-0.2c0.1,0.2,12.3,19.5,4.3,41
	C253.3,152.6,231.9,167.8,197.1,178L197.1,178z"/>
<path class="st1" d="M197.1,178l-0.1-0.4c36.2-11.2,59.4-27.5,68.8-48.4c9.2-20.4,1.5-37.9,1.4-38.1l0.3-0.2
	c0.1,0.2,7.9,17.9-1.4,38.4C256.6,150.4,233.4,166.8,197.1,178L197.1,178z"/>
<path class="st1" d="M197.1,178l-0.1-0.4c49.6-15.3,72.6-37.5,83.2-53.5c11.4-17.3,11.2-31.1,11.2-31.2h0.4
	c0,0.1,0.3,14.1-11.2,31.4c-6.7,10.2-16.2,19.5-28,27.8C237.6,162.5,219,171.2,197.1,178z"/>
<path class="st1" d="M197.1,178l-0.1-0.4c49.6-15.3,75.8-36.9,89-52.3c14.3-16.7,17-29.9,17-30l0.4,0.1c0,0.1-2.7,13.4-17,30.2
	c-8.4,9.8-19.2,18.9-32,27C238.2,162.7,219,171.2,197.1,178L197.1,178z"/>
<path class="st1" d="M197.1,178l-0.1-0.4c49.6-15.3,78.8-35.5,94.6-49.7c17.1-15.4,22.5-27.4,22.6-27.5l0.3,0.2
	c-0.1,0.1-5.5,12.1-22.6,27.6C276,142.4,246.8,162.7,197.1,178L197.1,178z"/>
<path class="st1" d="M197.1,178l-0.1-0.4c49.6-15.3,82.4-33.9,101.1-46.8c20.3-14,29-24.5,29.1-24.6l0.3,0.2
	c-0.1,0.1-8.8,10.6-29.1,24.6C279.5,144,246.7,162.7,197.1,178L197.1,178z"/>
<path class="st1" d="M197.1,178l-0.1-0.4c95-29.3,149.5-58.7,150-59l0.2,0.3C346.6,119.2,292.1,148.7,197.1,178z"/>
<path class="st1" d="M196.8,178.7l-0.1-0.4c49.6-15.3,85.1-32.6,106.1-44.4c22.7-12.8,33.9-22.1,34-22.2l0.2,0.3
	c-0.1,0.1-11.3,9.4-34,22.2C282,146.1,246.5,163.4,196.8,178.7z"/>
<path class="st1" d="M196.8,178.7l-0.1-0.4c49.6-15.3,69.2-38.3,76.9-54.8c8.3-17.9,4.9-32.4,4.9-32.6l0.4-0.1
	c0,0.1,3.5,14.8-4.9,32.8c-4.9,10.6-12.9,20.3-23.7,28.8C236.8,163.1,218.8,172,196.8,178.7L196.8,178.7z"/>
<path class="st1" d="M357.8,127.2c-39.8-33-73.8-37.8-95.3-36c-23.3,1.9-37.3,11.8-37.5,11.9l-0.2-0.3c0.1-0.1,14.3-10,37.6-12
	c13.7-1.2,27.9,0.6,42.2,5.3c17.8,5.8,35.8,16.2,53.4,30.8L357.8,127.2z"/>
<path class="st1" d="M357.8,127.2c-40.4-32.6-76.3-39.6-99.3-39.8h-0.9c-24.4,0-39.7,7.5-39.8,7.5l-0.2-0.3c0.2-0.1,15.5-7.6,40-7.6
	h0.8c14.7,0.1,29.7,2.8,44.6,8.1c18.6,6.6,37.1,17.3,55,31.7C358,126.8,357.8,127.2,357.8,127.2z"/>
<path class="st1" d="M357.8,127.2C317.4,94.6,278.7,83,253.3,79c-27.5-4.3-45.7-0.9-45.8-0.9l-0.1-0.4c0.2,0,18.4-3.5,46,0.9
	c16.2,2.5,32.4,7.2,48.1,13.9c19.7,8.4,38.7,19.9,56.6,34.3L357.8,127.2L357.8,127.2z"/>
<path class="st1" d="M357.8,127.2C317.4,94.6,277.5,80,251.2,73.5c-28.5-7.1-47.7-6.4-47.9-6.4v-0.4c0.2,0,19.4-0.7,48,6.4
	c26.4,6.5,66.3,21.2,106.7,53.8L357.8,127.2z"/>
<path class="st1" d="M357.8,127.2c-40.4-32.6-81-49.9-107.9-58.6c-29.2-9.5-49.1-11.2-49.3-11.3v-0.4c0.2,0,20.1,1.8,49.3,11.3
	c27,8.7,67.6,26,108.1,58.7L357.8,127.2z"/>
<path class="st1" d="M357.8,127.2C317.4,94.6,276.1,74,248.7,62.4c-29.8-12.5-50.2-17.4-50.4-17.5l0.1-0.4c0.2,0,20.7,4.9,50.5,17.5
	c27.5,11.6,68.8,32.2,109.2,64.9C358.1,126.9,357.8,127.2,357.8,127.2z"/>
<path class="st1" d="M357.8,127.2C280.4,64.7,197.2,22.1,196.4,21.7l0.2-0.3c0.8,0.4,84.1,43.1,161.5,105.6L357.8,127.2z"/>
<path class="st1" d="M358.6,126.9C318.2,94.3,276.7,70.8,249,56.8c-30-15.1-50.7-22.7-50.9-22.7l0.1-0.4c0.2,0.1,20.9,7.6,51,22.8
	c27.7,14,69.2,37.5,109.7,70.1L358.6,126.9L358.6,126.9z"/>
<path class="st1" d="M358.6,126.9C318.2,94.3,280.8,85.1,256.5,83c-26.3-2.2-43.3,3.4-43.5,3.4l-0.1-0.4c0.2-0.1,17.2-5.7,43.6-3.5
	c15.5,1.3,31.1,5,46.5,11c19.2,7.5,38,18.6,55.9,33L358.6,126.9z"/>
<path class="st1" d="M238.8,114.7l10.8-21.8l13.5,20.2C263.1,113.1,238.8,114.7,238.8,114.7z M249.6,93.6l-10.2,20.6l23-1.5
	L249.6,93.6L249.6,93.6z"/>
<path class="st1" d="M250.3,113.2l-5.6-9.2l10.7-0.3L250.3,113.2L250.3,113.2z M245.4,104.4l4.9,8l4.5-8.3L245.4,104.4z M68.8,137.3
	c-17.5,0-36.4-3.8-56.1-11.2l0.1-0.4c48.4,18.2,82.2,10.6,102.1,1c21.5-10.4,31.7-25.3,31.8-25.5l0.3,0.2
	c-0.1,0.1-10.3,15.1-31.9,25.6c-12.7,6.1-26.7,9.5-41.8,10.1C71.8,137.3,70.3,137.3,68.8,137.3z"/>
<path class="st1" d="M74.6,137.8c-19.7,0-40.5-3.9-61.9-11.7l0.1-0.4c48.8,17.6,85.3,11.9,107.2,3.9c23.8-8.6,36.2-21.5,36.3-21.7
	l0.3,0.3c-0.1,0.1-12.6,13.1-36.5,21.8c-14,5.1-29.2,7.7-45,7.7C74.9,137.8,74.8,137.8,74.6,137.8L74.6,137.8z"/>
<path class="st1" d="M92.5,140.9c-5.2,0-10.5-0.2-15.9-0.6c-20.9-1.6-42.4-6.4-64-14.2l0.1-0.4c48.8,17.6,88,16.3,112.2,12
	c26.3-4.6,41.2-13.5,41.3-13.6l0.2,0.3c-0.1,0.1-15.1,9-41.4,13.7C114.6,140,103.7,140.9,92.5,140.9z"/>
<path class="st1" d="M109.7,144c-24.6,0-58-3.8-97-17.9l0.1-0.4c48.8,17.6,88.8,19.1,113.7,17.3c27-2,42.6-8.3,42.8-8.3l0.1,0.4
	c-0.2,0.1-15.8,6.4-42.9,8.4C121.5,143.8,115.9,144,109.7,144L109.7,144z"/>
<path class="st1" d="M127.6,147.5c-25.5,0-66.1-3.7-115-21.4l0.1-0.4c48.8,17.6,89.4,21.3,114.8,21.3h0.1c27.6,0,43.8-4.2,44-4.3
	l0.1,0.4C171.6,143.2,155.4,147.5,127.6,147.5C127.7,147.5,127.7,147.5,127.6,147.5L127.6,147.5z"/>
<path class="st1" d="M154.7,153.2c-7,0-15.7-0.3-26-1.1c-25.9-2.1-67.1-8.3-116-25.9l0.1-0.4c48.8,17.7,90,23.8,115.9,25.9
	c28.1,2.3,44.8,0.3,44.9,0.3v0.4C173.5,152.4,166.8,153.2,154.7,153.2L154.7,153.2z"/>
<path class="st1" d="M175.6,169.2c-0.7-0.1-69.5-9.1-162.9-43l0.1-0.4c93.3,33.9,162.1,42.9,162.8,43L175.6,169.2L175.6,169.2z"/>
<path class="st1" d="M174.1,160.6c-0.4,0-17.4,0-45.5-4.2c-26.2-3.9-67.6-12.2-116.5-29.8l0.1-0.4c48.8,17.7,90.3,26,116.4,29.8
	c28.3,4.2,45.3,4.2,45.5,4.2V160.6L174.1,160.6z"/>
<path class="st1" d="M82.5,139.7c-2.3,0-4.6,0-6.9-0.1c-20.6-0.8-41.9-5.2-63.5-13l0.1-0.4c48.8,17.6,87.2,14.1,110.7,8.1
	c25.5-6.6,39.7-17.4,39.8-17.5l0.2,0.3c-0.1,0.1-14.4,11-40,17.6C110.1,138,96.5,139.7,82.5,139.7z"/>
<path class="st1" d="M174.7,178.1h-0.4c1-36.2-6.8-61.1-23.1-74.1c-17.8-14.1-39.8-8.5-40-8.5l-0.1-0.4c0.2-0.1,22.3-5.7,40.3,8.5
	C167.9,116.8,175.7,141.8,174.7,178.1z"/>
<path class="st1" d="M174.7,178.1h-0.4c0.6-37.9-7.8-64.9-24.8-80.4c-16.6-15-35.6-13.1-35.8-13.1v-0.4c0.2,0,19.4-2,36.1,13.2
	C166.9,113,175.3,140.1,174.7,178.1L174.7,178.1z"/>
<path class="st1" d="M174.7,178.1h-0.4c0.8-51.9-13.3-80.6-25.1-95.6c-12.9-16.2-26.1-20.2-26.2-20.3l0.1-0.4
	c0.1,0,13.5,4.1,26.4,20.4c7.6,9.6,13.6,21.4,17.8,35.2C172.5,134.8,175,155.2,174.7,178.1z"/>
<path class="st1" d="M174.7,178.1h-0.4c0.8-51.9-11.7-83.4-22.2-100.8c-11.4-18.8-23.2-25.4-23.3-25.4l0.2-0.3
	c0.1,0.1,12,6.7,23.4,25.5c6.7,11.1,12.1,24.1,15.8,38.8C172.8,134.2,175,155.2,174.7,178.1z"/>
<path class="st1" d="M174.7,178.1h-0.4c0.8-51.9-9.4-85.9-18.1-105.3c-9.4-21-19-29.8-19.1-29.9l0.3-0.3c0.1,0.1,9.8,9,19.2,30.1
	C165.3,92,175.5,126.1,174.7,178.1z"/>
<path class="st1" d="M174.7,178.1h-0.4c0.8-51.9-6.8-88.8-13.3-110.6c-7-23.6-14.3-35.1-14.4-35.2L147,32
	c0.1,0.1,7.4,11.6,14.4,35.3C167.9,89.2,175.5,126.1,174.7,178.1z"/>
<path class="st1" d="M174.7,178.1h-0.4c1.5-99.4-9.7-160.3-9.8-160.9l0.4-0.1C165,17.7,176.2,78.7,174.7,178.1z"/>
<path class="st1" d="M175.3,178.6h-0.4c0.8-51.9-4.7-91-9.5-114.6c-5.1-25.6-10.5-39.1-10.6-39.2l0.4-0.1
	c0.1,0.1,5.4,13.6,10.6,39.2C170.6,87.5,176.1,126.6,175.3,178.6z"/>
<path class="st1" d="M175.3,178.6h-0.4c0.8-51.9-15-77.6-28.4-90.1C132,75,117.2,73.8,117.1,73.8v-0.4c0.1,0,15.1,1.3,29.7,14.8
	c8.5,8,15.3,18.5,20.1,31.4C172.8,135.8,175.7,155.6,175.3,178.6z"/>
<path class="st1" d="M111.7,128.4c-0.1-0.2-5.1-16.7,0.2-39.5c3.1-13.4,9.2-26.4,18.1-38.5c11-15.1,26.5-29,45.8-41.3l0.2,0.3
	C132.3,37.2,117.2,68,112.3,89c-5.3,22.7-0.3,39.2-0.2,39.3L111.7,128.4L111.7,128.4z"/>
<path class="st1" d="M101.7,132.8c0-0.2-2.5-17.4,5.4-41.2c4.6-13.9,11.9-27.4,21.5-39.9c12.1-15.7,27.9-30,47.2-42.5l0.2,0.3
	c-43.5,28.3-61.3,60.3-68.5,82.2c-7.9,23.7-5.4,40.8-5.4,41L101.7,132.8L101.7,132.8z"/>
<path class="st1" d="M82.9,137.4h-0.4c0-0.2,2.4-18.6,15-43.4c7.4-14.6,16.9-28.6,28.1-41.5c14-16.1,30.9-30.7,50.2-43.2l0.2,0.3
	C132.5,37.9,109.5,71.1,97.9,94C85.3,118.8,82.9,137.2,82.9,137.4z"/>
<path class="st1" d="M71.1,137.9l-0.4-0.1c0.1-0.2,5.4-18.7,20.9-43.7C106,71,132.3,37.6,175.8,9.2l0.2,0.3
	c-43.5,28.4-69.7,61.8-84,84.8C76.5,119.2,71.1,137.7,71.1,137.9z"/>
<path class="st1" d="M61,137.4l-0.3-0.1c0.1-0.2,7.9-18.6,26-43.4c16.7-22.9,45.6-56.3,89.2-84.7l0.2,0.3
	C132.6,37.9,103.6,71.1,87,94C68.9,118.9,61.1,137.3,61,137.4z"/>
<path class="st1" d="M48.5,135.9l-0.3-0.2c0.1-0.2,11.1-18.2,32.2-42.6c19.5-22.6,51.9-55.4,95.4-83.8l0.2,0.3
	C132.5,38,100.1,70.8,80.6,93.4C59.5,117.7,48.6,135.7,48.5,135.9z"/>
<path class="st1" d="M25.8,130.5l-0.3-0.3c0.7-0.7,67-66.7,150.3-121l0.2,0.3C92.7,63.8,26.4,129.8,25.8,130.5z"/>
<path class="st1" d="M38.1,132.8l-0.3-0.2c0.1-0.2,13.7-17.6,37.4-41.4c21.9-22,57.1-54.3,100.6-82.7l0.2,0.3
	C132.5,37.1,97.3,69.3,75.5,91.3C51.8,115.2,38.2,132.6,38.1,132.8z"/>
<path class="st1" d="M92.2,134.7c0-0.2-0.1-18.1,10.2-42.5c6-14.3,14.4-28.1,24.8-40.8c13-15.9,29.4-30.4,48.6-42.9l0.2,0.3
	c-43.5,28.4-63.9,61.1-73.3,83.5c-10.2,24.3-10.2,42.2-10.2,42.4H92.2L92.2,134.7z"/>
<path class="st1" d="M127.4,118.9l-17.4-17l23.4-6.6C133.4,95.3,127.4,118.9,127.4,118.9z M110.7,102.1l16.5,16.1l5.7-22.3
	L110.7,102.1z"/>
<path class="st1" d="M119.1,110l3-10.3l7.4,7.8L119.1,110z M122.3,100.4l-2.7,9l9.2-2.2C128.8,107.2,122.3,100.4,122.3,100.4z
	 M69.2,333.6l-0.3-0.2c31.4-40,34.3-74.1,31.3-95.7C96.9,214.2,86,200.1,85.9,200l0.3-0.2c0.1,0.1,11,14.3,14.4,37.8
	c2,13.8,1,28-3,42.4C92.7,297.8,83.1,315.9,69.2,333.6z"/>
<path class="st1" d="M70,334.4l-0.3-0.2c31.9-41,37.1-77.2,35.9-100.4c-1.3-25.1-10.3-40.7-10.4-40.9l0.3-0.2
	c0.1,0.2,9.1,15.8,10.4,41c0.8,14.8-1.2,29.9-5.9,45C94.2,297.5,84.1,316.3,70,334.4L70,334.4z"/>
<path class="st1" d="M70,334.4l-0.3-0.2c31.9-41,42.1-78.4,45.1-102.6c3.2-26.2-1.1-43-1.2-43.1l0.4-0.1c0,0.2,4.4,17,1.2,43.3
	c-1.9,15.4-6,31.1-12.2,46.5C95.2,297.3,84.1,316.3,70,334.4L70,334.4z"/>
<path class="st1" d="M70,334.4l-0.3-0.2c31.9-41,45.1-78.3,50.6-102.4c5.9-26.1,4.3-42.7,4.3-42.9h0.4c0,0.2,1.6,16.8-4.3,43
	C115.2,256,101.9,293.4,70,334.4z"/>
<path class="st1" d="M70,334.4l-0.3-0.2c31.9-41,47.4-78.3,54.8-102.3c8-26.1,8.5-42.6,8.5-42.8h0.4c0,0.2-0.5,16.8-8.5,42.9
	C117.5,256,101.9,293.4,70,334.4L70,334.4z"/>
<path class="st1" d="M70,334.4l-0.3-0.2c31.9-41,49.9-78,59.5-101.8c10.3-25.8,13.1-42.1,13.2-42.3l0.4,0.1
	c0,0.2-2.9,16.5-13.2,42.3C120,256.3,101.9,293.4,70,334.4z"/>
<path class="st1" d="M70,334.4l-0.3-0.2c61.1-78.3,89-140.2,89.2-140.8l0.3,0.2C159,194.1,131.1,256.1,70,334.4L70,334.4z"/>
<path class="st1" d="M70,334.4l-0.3-0.2c31.9-41,52.1-77.4,63.5-100.8c12.3-25.3,17.1-41.1,17.2-41.2l0.4,0.1
	c0,0.2-4.9,16-17.2,41.3C122.2,256.9,101.9,293.4,70,334.4z"/>
<path class="st1" d="M70,334.4l-0.3-0.2c31.9-41,39.9-78.1,41-102.1c1.2-25.9-5.2-42.4-5.2-42.6l0.4-0.1c0.1,0.2,6.5,16.7,5.2,42.7
	c-0.7,15.3-3.9,30.8-9.4,46.1C94.8,297.4,84.1,316.3,70,334.4L70,334.4z"/>
<path class="st1" d="M69.4,232H69c0-0.2,1.5-23,20.6-35.7c17.5-11.6,43.7-11.3,78,0.8l-0.1,0.4c-34.1-12.2-60.2-12.5-77.6-0.9
	C70.9,209.2,69.4,231.8,69.4,232z"/>
<path class="st1" d="M59.8,226.2l-0.4-0.1c0-0.2,4.1-19.1,23.7-30.3c20-11.4,48.4-11,84.4,1.3l-0.1,0.4
	c-35.9-12.2-64.2-12.7-84.1-1.3C63.9,207.3,59.9,226,59.8,226.2L59.8,226.2z"/>
<path class="st1" d="M41.3,210.5l-0.3-0.2c0.1-0.1,8-11.5,27.5-18.8c11.4-4.3,24.6-6.3,39-6c18.1,0.3,38.2,4.2,60,11.7l-0.1,0.4
	c-49.1-16.8-80.8-12.3-98.7-5.6C49.3,199.1,41.4,210.4,41.3,210.5L41.3,210.5z"/>
<path class="st1" d="M33.3,201.8l-0.3-0.3c0.1-0.1,10.1-9.3,31.5-14.4c12.6-3,26.7-4,41.8-3c18.9,1.2,39.5,5.6,61.2,13l-0.1,0.4
	c-49.1-16.8-83-14.7-102.8-10C43.3,192.5,33.4,201.7,33.3,201.8z"/>
<path class="st1" d="M167.4,197.5c-49.1-16.8-84.6-17.6-105.7-15.4c-22.9,2.4-34.3,8.9-34.4,9l-0.2-0.3c0.1-0.1,11.6-6.6,34.5-9
	c21.2-2.2,56.7-1.4,105.9,15.4L167.4,197.5z"/>
<path class="st1" d="M167.4,197.5c-49.2-16.8-86.6-21-109.3-21.6c-24.6-0.6-37.8,2.8-37.9,2.8l-0.1-0.4c0.1,0,13.4-3.4,38.1-2.8
	c22.8,0.6,60.3,4.8,109.5,21.6L167.4,197.5L167.4,197.5z"/>
<path class="st1" d="M167.4,197.5c-94.1-32.1-155.4-40.4-156-40.4v-0.4c0.6,0.1,62,8.3,156.1,40.4L167.4,197.5z"/>
<path class="st1" d="M168,197c-49.2-16.8-88-23.6-111.9-26.4c-25.9-3-40.4-2.1-40.5-2.1v-0.4c0.1,0,14.6-1,40.6,2.1
	c23.9,2.8,62.8,9.6,112,26.4L168,197z"/>
<path class="st1" d="M50.5,219.6l-0.4-0.1c0.1-0.1,5.9-14,23.3-23.6c10.2-5.7,22.4-8.8,36.1-9.4c17.2-0.7,36.9,2.7,58.6,10.2
	L168,197c-49.1-16.8-78.5-9.7-94.4-0.8C56.3,205.8,50.6,219.5,50.5,219.6L50.5,219.6z"/>
<path class="st1" d="M100.8,241.6c-0.2,0-17.4-0.3-37.5-12.4c-11.8-7.1-22.2-16.9-31-29.1C21.4,185,12.9,166,7.2,143.8l0.4-0.1
	c12.8,50.1,37.5,74,55.9,85.2c20,12.1,37.1,12.4,37.3,12.4V241.6L100.8,241.6z"/>
<path class="st1" d="M101.8,252.5c-0.2,0-17.3-3-37.5-17.9c-11.8-8.7-22.4-19.8-31.3-32.8c-11.2-16.3-19.9-35.8-25.8-58l0.4-0.1
	c13.5,50.1,38.4,76.9,57,90.6c20.1,14.8,37.2,17.8,37.3,17.8L101.8,252.5L101.8,252.5z"/>
<path class="st1" d="M100.2,272.2c-0.2-0.1-16.9-8-36.7-27.7c-11.6-11.6-21.9-24.9-30.7-39.6c-11-18.3-19.6-38.9-25.6-61.1l0.4-0.1
	c13.5,50.1,38.1,82.3,56.2,100.4c19.7,19.7,36.4,27.6,36.6,27.6L100.2,272.2z"/>
<path class="st1" d="M97,283.5c-0.2-0.1-16.1-10.9-35.1-33.4C44.4,229.3,20.7,194,7.2,143.8l0.4-0.1c13.5,50.1,37.2,85.4,54.7,106.1
	c18.9,22.5,34.8,33.2,35,33.3L97,283.5L97,283.5z"/>
<path class="st1" d="M93.5,293c-0.1-0.1-15.2-13.3-33.3-38.1c-16.7-22.9-39.4-60.8-52.9-111l0.4-0.1c13.5,50.1,36.2,88,52.9,110.9
	c18,24.8,33.1,37.9,33.2,38.1L93.5,293z"/>
<path class="st1" d="M88.1,304.4c-0.1-0.2-13.8-16.2-30.6-43.8C42,235,20.8,194,7.2,143.8l0.4-0.1c13.5,50.1,34.8,91.1,50.2,116.6
	c16.7,27.6,30.4,43.6,30.5,43.8L88.1,304.4L88.1,304.4z"/>
<path class="st1" d="M75.9,324.2c-0.4-0.8-42.7-84.3-68.6-180.3l0.4-0.1c25.9,96,68.2,179.4,68.6,180.3L75.9,324.2z"/>
<path class="st1" d="M81.9,313.2c-0.1-0.2-12.5-18.5-27.9-48.4c-14.2-27.6-34-71-47.5-121.2l0.4-0.1c13.5,50.2,33.3,93.6,47.5,121.2
	c15.4,29.9,27.7,48.2,27.8,48.3C82.2,313,81.9,313.2,81.9,313.2z"/>
<path class="st1" d="M100.7,262.1c-0.2-0.1-17.2-5.5-37.3-22.8c-11.8-10.2-22.3-22.3-31.2-36.2c-11.1-17.3-19.8-37.4-25.8-59.5
	l0.4-0.1c13.5,50.1,38.4,79.6,56.8,95.5c20,17.2,37,22.7,37.2,22.7C100.8,261.7,100.7,262.1,100.7,262.1z"/>
<path class="st1" d="M75,235.1l1-24.3l20.6,13L75,235.1z M76.4,211.5l-0.9,23l20.4-10.7L76.4,211.5z"/>
<path class="st1" d="M85.5,228.9l-8.9-6.1l9.7-4.6L85.5,228.9L85.5,228.9z M77.4,222.9l7.8,5.3l0.7-9.4L77.4,222.9L77.4,222.9z"/>
<g>
	<path class="st0" d="M1906.2,342.7h-16.8l-33.1-32c-4.2-3.8-8-6.7-11.3-8.6c-3.4-1.9-6.2-2.9-8.5-2.9c-4.1,0-7.1,0.9-9,2.6
		s-2.9,4.3-2.9,7.6c0,2.1,0.6,3.9,1.9,5.5s3,2.9,5.2,3.8s4.6,1.4,7.3,1.4v24.7c-6.2,0-12-1.5-17.2-4.6s-9.4-7.4-12.5-12.9
		s-4.6-11.7-4.6-18.6c0-11.2,2.6-19.7,7.7-25.5s12.5-8.7,22-8.7c4.7,0,9.1,0.9,13.3,2.8c4.2,1.9,8.4,4.5,12.5,7.9s9.2,8.1,15.3,14.1
		l10.8,10.7v-37.8h19.9L1906.2,342.7L1906.2,342.7z M1888.7,194.7c6.3,3,11,7.1,14.1,12.4c3.2,5.3,4.7,11.5,4.7,18.4
		c0,7.1-1.6,13.3-4.7,18.6c-3.2,5.3-7.9,9.5-14.1,12.4c-6.2,3-13.8,4.4-22.8,4.4h-19.3c-9,0-16.6-1.5-22.9-4.4
		c-6.3-3-11-7.1-14.2-12.4c-3.2-5.3-4.8-11.5-4.8-18.5s1.6-13.1,4.8-18.5c3.2-5.3,8-9.5,14.2-12.5c6.3-3,13.9-4.5,22.8-4.5h19.3
		C1874.9,190.3,1882.5,191.8,1888.7,194.7L1888.7,194.7z M1829.1,217.7c-2.9,1.9-4.4,4.5-4.4,7.9c0,3.5,1.5,6.2,4.4,8
		s7.7,2.7,14.5,2.7h25.4c6.9,0,11.7-0.9,14.5-2.8c2.8-1.8,4.2-4.5,4.2-8.1c0-3.4-1.4-6.1-4.3-7.9c-2.8-1.8-7.7-2.7-14.5-2.7h-25.4
		C1836.8,215,1832,215.9,1829.1,217.7L1829.1,217.7z M1906.2,150.8h-71l5.9,22.5h-19.2l-15.6-45v-2.1h100v24.6H1906.2z M1809.2,44.4
		c3-5.4,7.6-9.7,13.8-12.9c6.1-3.2,13.7-4.8,22.8-4.8h9.2c12.2,0,22.3,2.4,30.2,7.3c7.9,4.9,13.7,11.3,17.4,19.4
		c3.6,8,5.5,16.9,5.5,26.7V82h-20.7v-1.4c0-8.2-1.3-14.8-4-19.8c-2.7-4.9-7.5-8-14.5-9c1.8,2.2,3.3,4.7,4.3,7.5
		c1.1,2.8,1.6,5.6,1.6,8.5c0,6-1.3,11.2-4,15.7s-6.6,7.9-11.7,10.3s-11.2,3.6-18.3,3.6c-6.5,0-12.5-1.5-18-4.6s-9.9-7.3-13.2-12.7
		c-3.3-5.4-4.9-11.4-4.9-18C1804.7,55.7,1806.2,49.8,1809.2,44.4L1809.2,44.4z M1855,55c-0.9-1.6-2.1-2.8-3.6-3.7h-10.6
		c-5.6,0-9.7,0.9-12.3,2.8c-2.6,1.9-3.9,4.6-3.9,8.2c0,2.1,0.8,4,2.5,5.6s3.8,2.8,6.3,3.7c2.5,0.8,5.1,1.3,7.6,1.3
		c4.7,0,8.5-1,11.2-3.1c2.8-2,4.2-5,4.2-8.8C1856.4,58.6,1855.9,56.6,1855,55L1855,55z"/>
</g>
<g>
	<path class="st2" d="M612.3,69c19.6,12.1,35,28.9,46.2,50.5c11.1,21.5,16.7,45.8,16.7,72.9v11.1c0,27.1-5.5,51.3-16.6,72.8
		s-26.3,38.3-45.8,50.4s-41.3,18.2-65.6,18.2h-92.7v-294h90.9C570.3,50.8,592.6,56.9,612.3,69L612.3,69z M602.3,192
		c0-26.4-4.8-46.3-14.5-59.9c-9.7-13.5-23.8-20.3-42.3-20.3h-19.8V284h21.5c17.7,0,31.3-6.7,40.8-20.2s14.3-33.6,14.3-60.4V192z
		 M753.9,204.4c-13.6-7.9-24.8-17.9-33.5-30.2c-8.7-12.2-13.1-27-13.1-44.2c0-17,4.7-31.7,14-44.2s22.3-22.1,38.8-28.9
		c16.5-6.7,35.2-10.1,55.9-10.1c20.2,0,38.2,3.6,54,10.9s28.1,17.8,37.1,31.6s13.4,30.3,13.4,49.4h-70.9c0-10-3-17.9-9.1-23.7
		c-6-5.9-14.8-8.8-26.2-8.8c-7.6,0-14.2,1.1-19.6,3.4c-5.5,2.3-9.6,5.3-12.4,9c-2.8,3.7-4.2,7.8-4.2,12.2c0,7.4,4,13.7,12.1,19
		s20.4,10.8,37.1,16.6c30.6,10.5,53.8,23.6,69.5,39.2s23.6,35.5,23.6,59.8c0,17.8-4.3,32.9-12.8,45.4s-20.5,22-36,28.5
		s-33.8,9.7-54.7,9.7c-20.5,0-39.6-3.6-57.5-10.8c-17.9-7.2-32.4-18.5-43.6-33.8c-11.2-15.3-16.8-34.6-16.8-57.7h71.5
		c0,10.9,1.7,19.5,5.1,25.8c3.4,6.3,8.4,10.8,15.2,13.4c6.7,2.6,15.4,3.9,26.1,3.9c11.1,0,19.2-2.3,24.5-7
		c5.3-4.6,7.9-10.3,7.9-17.1c0-5.8-1.1-10.7-3.4-14.6c-2.3-4-6.8-7.9-13.4-11.8c-6.7-3.9-16.6-8.2-29.8-12.9
		C783.7,219.6,767.5,212.3,753.9,204.4L753.9,204.4z M1165,298.9c-9.8,16-23.3,28.3-40.6,37s-37.3,13-59.9,13
		c-24.9,0-46.3-5.8-64.2-17.4s-31.5-28.2-40.8-50c-9.3-21.7-14-47.6-14-77.4v-12.3c0-29.6,4.9-55.4,14.6-77.2
		c9.7-21.9,23.5-38.7,41.2-50.4s38.3-17.6,61.7-17.6c23.9,0,44.4,4.6,61.6,13.7c17.2,9.2,30.5,21.8,40,38.1
		c9.5,16.2,15,34.9,16.7,56h-70.9c-0.1-15.9-3.8-27.5-11.1-34.8c-7.2-7.3-19.3-11-36.2-11c-10.6,0-19.1,2.6-25.6,7.8
		c-6.5,5.2-11.3,13.8-14.6,25.8c-3.2,12-4.9,28.4-4.9,49.2v12.7c0,21.5,1.5,38.2,4.5,50.1c3,11.8,7.8,20.2,14.4,25.1
		s15.8,7.4,27.7,7.4c14.6,0,25.8-3.4,33.6-10.3c7.8-6.9,11.7-17.8,11.8-32.9h70.8C1180,264.5,1174.8,282.9,1165,298.9L1165,298.9z
		 M1210.9,176c7.7-16.8,19.1-30,34.1-39.5s33.2-14.2,54.4-14.2c21.5,0,39.8,4.7,54.8,14.2c15.1,9.5,26.4,22.6,34.1,39.4
		s11.5,36,11.5,57.6v4.2c0,21.7-3.8,40.9-11.5,57.5c-7.7,16.7-19,29.8-34,39.3s-33.2,14.2-54.5,14.2c-21.4,0-39.6-4.7-54.7-14.2
		s-26.5-22.6-34.2-39.3c-7.7-16.7-11.5-35.9-11.5-57.5v-4.2C1199.4,212,1203.2,192.8,1210.9,176L1210.9,176z M1274.6,276.7
		c4.6,9.1,13.1,13.6,25.3,13.6c11.8,0,20.1-4.6,24.8-13.7c4.7-9.2,7.1-22.1,7.1-38.8v-4.2c0-16.4-2.4-29.3-7.1-38.7
		s-13.1-14-25.2-14c-11.8,0-20.1,4.7-24.8,14.1c-4.7,9.4-7.1,22.3-7.1,38.6v4.2C1267.6,254.6,1269.9,267.6,1274.6,276.7
		L1274.6,276.7z M1597,142.5c11.3,13.5,17,35.7,17,66.6v135.7h-68.7V208.9c0-7.8-1-13.8-3.1-18s-5.1-7-9-8.4s-9-2.1-15.4-2.1
		c-11.2,0-19.5,4-24.8,12.1v152.2h-68.5V126.3h64.1l2.3,25.2c7-9.6,15.4-16.8,25.4-21.8c9.9-5,21-7.5,33.2-7.5
		C1569.8,122.3,1585.7,129,1597,142.5z M1729.3,126.3h39.7v52.3h-39.7v166.2h-68.7V178.6H1631v-52.3h29.6V110
		c0-17,3.3-31.4,9.8-43.3s15.9-20.9,27.9-27.1c12.1-6.1,26.4-9.2,42.9-9.2c9,0,19.4,1.5,31.1,4.4l0.6,55.5
		c-4.5-1.2-9.6-1.8-15.4-1.8c-9,0-16,1.8-20.9,5.5c-4.9,3.6-7.3,9-7.3,16L1729.3,126.3L1729.3,126.3z"/>
</g>
</svg>
